{"glyphs":{"0":{"ha":911,"x_min":106,"x_max":806,"o":"m 456 -11 q 271 45 350 -11 q 149 204 193 102 q 106 445 106 307 l 106 553 q 149 795 106 692 q 271 954 193 898 q 456 1010 350 1010 q 640 954 561 1010 q 762 795 718 898 q 806 553 806 692 l 806 445 q 762 204 806 307 q 640 45 718 102 q 456 -11 561 -11 m 456 30 q 616 82 547 30 q 724 227 685 134 q 762 445 762 321 l 762 553 q 726 772 762 679 q 620 918 689 866 q 456 970 551 970 q 292 918 361 970 q 186 772 223 866 q 149 553 149 679 l 149 445 q 188 227 149 321 q 295 82 227 134 q 456 30 364 30 z "},"1":{"ha":518,"x_min":111,"x_max":362,"o":"m 319 0 l 319 963 l 336 954 l 111 831 l 111 878 l 335 1000 l 362 1000 l 362 0 l 319 0 z "},"2":{"ha":792,"x_min":92,"x_max":700,"o":"m 92 0 l 92 27 l 389 374 q 512 519 459 456 q 593 639 564 583 q 623 753 623 695 q 593 863 623 814 q 511 941 563 912 q 395 970 460 970 q 272 939 327 970 q 184 854 217 908 q 152 734 152 801 l 109 734 q 146 876 109 813 q 249 975 184 939 q 395 1010 314 1010 q 533 976 472 1010 q 630 883 595 942 q 666 750 666 824 q 635 623 666 682 q 550 499 605 564 q 425 353 496 435 l 159 43 l 159 41 l 326 41 l 700 41 l 700 0 l 92 0 z "},"3":{"ha":776,"x_min":83,"x_max":688,"o":"m 384 -11 q 235 25 303 -11 q 125 127 167 62 q 83 278 83 192 l 126 278 q 162 147 126 203 q 257 61 198 92 q 384 30 315 30 q 515 63 456 30 q 609 153 574 96 q 644 278 644 209 q 607 400 644 347 q 501 485 570 454 q 336 515 432 515 l 316 515 l 316 556 l 363 556 q 479 587 427 556 q 563 669 531 618 q 594 779 594 720 q 567 877 594 834 q 492 945 539 920 q 388 970 446 970 q 276 942 326 970 q 197 868 227 914 q 168 766 168 822 l 125 766 q 159 888 125 833 q 254 977 194 944 q 389 1010 313 1010 q 515 981 458 1010 q 604 900 571 952 q 637 780 637 848 q 601 647 637 707 q 505 553 565 587 q 373 522 444 518 l 373 544 q 537 515 467 550 q 648 418 608 481 q 688 275 688 355 q 647 131 688 196 q 538 28 607 66 q 384 -11 469 -11 z "},"4":{"ha":810,"x_min":61,"x_max":743,"o":"m 559 0 l 559 746 l 559 909 l 553 909 l 476 793 l 123 282 l 123 279 l 743 279 l 743 239 l 61 239 l 61 262 l 570 1000 l 602 1000 l 602 0 l 559 0 z "},"5":{"ha":791,"x_min":90,"x_max":701,"o":"m 392 -11 q 268 14 328 -11 q 161 83 208 38 q 90 191 115 129 l 129 209 q 189 118 148 158 q 283 54 229 77 q 397 30 338 30 q 529 66 470 30 q 623 164 588 102 q 658 305 658 227 q 624 447 658 383 q 530 547 590 510 q 392 585 470 585 q 258 552 313 585 q 184 490 204 519 l 151 495 l 151 1000 l 636 1000 l 636 959 l 194 959 l 194 522 l 179 533 q 264 597 203 569 q 397 625 326 625 q 549 584 480 625 q 660 472 618 543 q 701 308 701 400 q 660 143 701 215 q 548 30 618 71 q 392 -11 477 -11 z "},"6":{"ha":802,"x_min":85,"x_max":715,"o":"m 401 -11 q 238 32 309 -11 q 126 146 167 75 q 85 302 85 218 q 99 398 85 353 q 134 481 113 443 q 180 552 156 520 l 521 1000 l 571 1000 l 245 575 l 224 562 q 317 610 266 597 q 408 623 368 623 q 565 582 495 623 q 674 470 634 541 q 715 308 715 399 q 674 145 715 217 q 562 31 633 73 q 401 -11 491 -11 m 403 30 q 542 67 480 30 q 638 167 603 104 q 674 309 674 230 q 640 449 674 387 q 545 546 606 511 q 404 582 484 582 q 263 547 326 582 q 165 449 201 511 q 129 308 129 387 q 165 166 129 229 q 263 66 201 103 q 403 30 325 30 z "},"7":{"ha":727,"x_min":56,"x_max":677,"o":"m 229 0 l 624 954 l 624 959 l 56 959 l 56 1000 l 677 1000 l 677 972 l 274 0 l 229 0 z "},"8":{"ha":827,"x_min":90,"x_max":739,"o":"m 414 -11 q 248 27 321 -11 q 132 131 174 65 q 90 278 90 196 q 133 425 90 360 q 249 527 176 490 q 414 564 322 564 q 579 527 505 564 q 696 425 652 490 q 739 278 739 360 q 696 131 739 196 q 580 27 654 65 q 414 -11 507 -11 m 414 30 q 558 63 494 30 q 659 153 622 96 q 696 278 696 209 q 659 403 696 347 q 558 491 622 458 q 414 524 494 524 q 269 491 333 524 q 169 403 205 458 q 132 278 132 347 q 169 153 132 209 q 269 63 205 96 q 414 30 333 30 m 414 524 q 281 556 339 524 q 189 643 222 588 q 156 766 156 698 q 189 891 156 836 q 280 979 222 947 q 414 1010 338 1010 q 548 979 490 1010 q 638 891 606 947 q 671 766 671 836 q 638 642 671 697 q 547 555 605 587 q 414 524 488 524 m 414 564 q 525 592 477 564 q 601 666 574 620 q 628 766 628 711 q 599 872 628 825 q 522 947 570 920 q 414 974 473 974 q 305 947 354 974 q 227 873 256 920 q 198 766 198 826 q 226 666 198 711 q 302 592 254 620 q 414 564 351 564 z "},"9":{"ha":802,"x_min":87,"x_max":716,"o":"m 400 1010 q 564 967 492 1010 q 675 853 635 924 q 716 697 716 782 q 703 602 716 647 q 667 518 689 557 q 621 448 646 479 l 281 0 l 231 0 l 556 425 l 578 438 q 485 390 536 403 q 393 377 434 377 q 237 418 307 377 q 127 530 168 458 q 87 692 87 601 q 128 855 87 783 q 240 969 169 927 q 400 1010 311 1010 m 399 970 q 260 933 321 970 q 163 833 199 897 q 127 690 127 770 q 162 551 127 612 q 257 453 197 489 q 397 418 318 418 q 538 453 476 418 q 637 551 601 489 q 673 692 673 612 q 637 833 673 770 q 539 933 601 897 q 399 970 477 970 z "},"A":{"ha":922,"x_min":34,"x_max":888,"o":"m 34 0 l 444 1000 l 479 1000 l 888 0 l 844 0 l 709 336 l 701 351 l 464 940 l 458 940 l 221 351 l 213 336 l 79 0 l 34 0 m 194 323 l 194 363 l 728 363 l 728 323 l 194 323 z "},"Á":{"ha":922,"x_min":34,"x_max":888,"o":"m 34 0 l 444 1000 l 479 1000 l 888 0 l 844 0 l 709 336 l 701 351 l 464 940 l 458 940 l 221 351 l 213 336 l 79 0 l 34 0 m 194 323 l 194 363 l 728 363 l 728 323 l 194 323 m 461 1055 l 431 1089 l 623 1275 l 650 1245 l 461 1055 z "},"Ă":{"ha":922,"x_min":34,"x_max":888,"o":"m 34 0 l 444 1000 l 479 1000 l 888 0 l 844 0 l 709 336 l 701 351 l 464 940 l 458 940 l 221 351 l 213 336 l 79 0 l 34 0 m 194 323 l 194 363 l 728 363 l 728 323 l 194 323 m 461 1055 q 365 1077 408 1055 q 297 1134 322 1098 q 273 1214 273 1170 l 311 1214 q 353 1129 311 1162 q 461 1096 396 1096 q 571 1129 528 1096 q 614 1214 614 1162 l 652 1214 q 629 1134 654 1170 q 560 1077 604 1098 q 461 1055 516 1055 z "},"Ắ":{"ha":922,"x_min":34,"x_max":888,"o":"m 34 0 l 444 1000 l 479 1000 l 888 0 l 844 0 l 709 336 l 701 351 l 464 940 l 458 940 l 221 351 l 213 336 l 79 0 l 34 0 m 194 323 l 194 363 l 728 363 l 728 323 l 194 323 m 439 1161 l 414 1191 l 604 1379 l 632 1350 l 439 1161 m 458 1055 q 361 1078 405 1055 q 293 1140 318 1101 q 269 1225 267 1178 l 307 1225 q 351 1132 307 1171 q 458 1093 396 1093 q 566 1132 521 1093 q 610 1225 610 1171 l 648 1225 q 623 1140 648 1178 q 554 1078 597 1101 q 458 1055 511 1055 z "},"Ặ":{"ha":922,"x_min":34,"x_max":888,"o":"m 34 0 l 444 1000 l 479 1000 l 888 0 l 844 0 l 709 336 l 701 351 l 464 940 l 458 940 l 221 351 l 213 336 l 79 0 l 34 0 m 194 323 l 194 363 l 728 363 l 728 323 l 194 323 m 460 -208 q 418 -191 435 -208 q 401 -149 401 -174 q 418 -108 401 -125 q 460 -91 435 -91 q 501 -108 484 -91 q 518 -149 518 -125 q 501 -191 518 -174 q 460 -208 484 -208 m 461 1055 q 365 1077 408 1055 q 297 1134 322 1098 q 273 1214 273 1170 l 311 1214 q 353 1129 311 1162 q 461 1096 396 1096 q 571 1129 528 1096 q 614 1214 614 1162 l 652 1214 q 629 1134 654 1170 q 560 1077 604 1098 q 461 1055 516 1055 z "},"Ằ":{"ha":922,"x_min":34,"x_max":888,"o":"m 34 0 l 444 1000 l 479 1000 l 888 0 l 844 0 l 709 336 l 701 351 l 464 940 l 458 940 l 221 351 l 213 336 l 79 0 l 34 0 m 194 323 l 194 363 l 728 363 l 728 323 l 194 323 m 484 1161 l 292 1350 l 320 1379 l 510 1191 l 484 1161 m 465 1055 q 370 1078 413 1055 q 301 1140 327 1101 q 275 1225 275 1178 l 313 1225 q 358 1132 313 1171 q 465 1093 403 1093 q 572 1132 528 1093 q 617 1225 617 1171 l 655 1225 q 631 1140 656 1178 q 563 1078 606 1101 q 465 1055 519 1055 z "},"Ẳ":{"ha":922,"x_min":34,"x_max":888,"o":"m 34 0 l 444 1000 l 479 1000 l 888 0 l 844 0 l 709 336 l 701 351 l 464 940 l 458 940 l 221 351 l 213 336 l 79 0 l 34 0 m 194 323 l 194 363 l 728 363 l 728 323 l 194 323 m 463 1053 q 367 1076 410 1053 q 298 1137 324 1099 q 273 1222 273 1175 l 311 1222 q 355 1129 311 1168 q 463 1090 400 1090 q 570 1129 525 1090 q 614 1222 614 1168 l 652 1222 q 629 1137 654 1175 q 560 1076 604 1099 q 463 1053 516 1053 m 456 1164 l 430 1194 q 479 1233 460 1209 q 498 1280 498 1256 q 478 1323 498 1308 q 425 1339 458 1339 q 385 1335 406 1339 q 347 1325 365 1331 l 347 1366 q 388 1376 366 1373 q 422 1378 410 1378 q 506 1352 477 1378 q 534 1283 534 1326 q 513 1215 534 1249 q 456 1164 492 1181 z "},"Ẵ":{"ha":922,"x_min":34,"x_max":888,"o":"m 34 0 l 444 1000 l 479 1000 l 888 0 l 844 0 l 709 336 l 701 351 l 464 940 l 458 940 l 221 351 l 213 336 l 79 0 l 34 0 m 194 323 l 194 363 l 728 363 l 728 323 l 194 323 m 270 1270 q 300 1358 270 1328 q 378 1388 331 1388 q 432 1376 410 1388 q 472 1349 454 1364 q 506 1322 489 1333 q 545 1310 524 1310 q 594 1330 576 1310 q 612 1388 612 1350 l 652 1388 q 640 1324 654 1351 q 602 1284 627 1298 q 544 1270 576 1270 q 494 1282 515 1270 q 454 1310 473 1294 q 417 1337 436 1325 q 376 1350 399 1350 q 329 1331 347 1350 q 311 1270 311 1312 l 270 1270 m 460 1055 q 365 1078 408 1055 q 296 1140 321 1101 q 270 1225 270 1178 l 308 1225 q 353 1132 308 1171 q 460 1093 397 1093 q 567 1132 522 1093 q 612 1225 612 1171 l 650 1225 q 626 1140 651 1178 q 557 1078 601 1101 q 460 1055 513 1055 z "},"Ǎ":{"ha":922,"x_min":34,"x_max":888,"o":"m 34 0 l 444 1000 l 479 1000 l 888 0 l 844 0 l 709 336 l 701 351 l 464 940 l 458 940 l 221 351 l 213 336 l 79 0 l 34 0 m 194 323 l 194 363 l 728 363 l 728 323 l 194 323 m 292 1221 l 458 1086 l 468 1086 l 631 1221 l 658 1187 l 476 1044 l 450 1044 l 264 1187 l 292 1221 z "},"Â":{"ha":922,"x_min":34,"x_max":888,"o":"m 34 0 l 444 1000 l 479 1000 l 888 0 l 844 0 l 709 336 l 701 351 l 464 940 l 458 940 l 221 351 l 213 336 l 79 0 l 34 0 m 194 323 l 194 363 l 728 363 l 728 323 l 194 323 m 294 1055 l 267 1089 l 453 1232 l 479 1232 l 661 1089 l 633 1055 l 471 1190 l 461 1190 l 294 1055 z "},"Ấ":{"ha":922,"x_min":34,"x_max":888,"o":"m 34 0 l 444 1000 l 479 1000 l 888 0 l 844 0 l 709 336 l 701 351 l 464 940 l 458 940 l 221 351 l 213 336 l 79 0 l 34 0 m 194 323 l 194 363 l 728 363 l 728 323 l 194 323 m 624 1175 l 594 1206 l 769 1379 l 803 1347 l 624 1175 m 296 1047 l 269 1078 l 454 1225 l 480 1225 l 662 1078 l 635 1047 l 472 1177 l 463 1177 l 296 1047 z "},"Ậ":{"ha":922,"x_min":34,"x_max":888,"o":"m 34 0 l 444 1000 l 479 1000 l 888 0 l 844 0 l 709 336 l 701 351 l 464 940 l 458 940 l 221 351 l 213 336 l 79 0 l 34 0 m 194 323 l 194 363 l 728 363 l 728 323 l 194 323 m 460 -208 q 418 -191 435 -208 q 401 -149 401 -174 q 418 -108 401 -125 q 460 -91 435 -91 q 501 -108 484 -91 q 518 -149 518 -125 q 501 -191 518 -174 q 460 -208 484 -208 m 294 1055 l 267 1089 l 453 1232 l 479 1232 l 661 1089 l 633 1055 l 471 1190 l 461 1190 l 294 1055 z "},"Ầ":{"ha":922,"x_min":34,"x_max":888,"o":"m 34 0 l 444 1000 l 479 1000 l 888 0 l 844 0 l 709 336 l 701 351 l 464 940 l 458 940 l 221 351 l 213 336 l 79 0 l 34 0 m 194 323 l 194 363 l 728 363 l 728 323 l 194 323 m 298 1175 l 119 1347 l 153 1379 l 328 1206 l 298 1175 m 627 1047 l 460 1177 l 450 1177 l 288 1047 l 260 1078 l 442 1225 l 468 1225 l 654 1078 l 627 1047 z "},"Ẩ":{"ha":922,"x_min":34,"x_max":888,"o":"m 34 0 l 444 1000 l 479 1000 l 888 0 l 844 0 l 709 336 l 701 351 l 464 940 l 458 940 l 221 351 l 213 336 l 79 0 l 34 0 m 194 323 l 194 363 l 728 363 l 728 323 l 194 323 m 614 1169 l 583 1195 q 622 1238 605 1213 q 639 1286 639 1263 q 620 1328 639 1312 q 567 1344 601 1344 q 528 1340 551 1344 q 490 1331 506 1337 l 490 1369 q 527 1378 506 1375 q 567 1382 548 1382 q 650 1357 620 1382 q 681 1289 681 1333 q 671 1245 681 1267 q 645 1202 661 1222 q 614 1169 630 1182 m 294 1047 l 267 1078 l 453 1225 l 479 1225 l 661 1078 l 633 1047 l 471 1177 l 461 1177 l 294 1047 z "},"Ẫ":{"ha":922,"x_min":34,"x_max":888,"o":"m 34 0 l 444 1000 l 479 1000 l 888 0 l 844 0 l 709 336 l 701 351 l 464 940 l 458 940 l 221 351 l 213 336 l 79 0 l 34 0 m 194 323 l 194 363 l 728 363 l 728 323 l 194 323 m 270 1270 q 300 1358 270 1328 q 378 1388 331 1388 q 432 1376 410 1388 q 472 1349 454 1364 q 506 1322 489 1333 q 545 1310 524 1310 q 594 1330 576 1310 q 612 1388 612 1350 l 652 1388 q 640 1323 654 1350 q 600 1283 625 1297 q 544 1270 575 1270 q 494 1282 515 1270 q 453 1310 472 1294 q 416 1337 435 1325 q 374 1350 397 1350 q 330 1331 349 1350 q 311 1270 311 1312 l 270 1270 m 292 1047 l 264 1078 l 450 1225 l 476 1225 l 658 1078 l 631 1047 l 468 1177 l 458 1177 l 292 1047 z "},"Ȁ":{"ha":922,"x_min":34,"x_max":888,"o":"m 34 0 l 444 1000 l 479 1000 l 888 0 l 844 0 l 709 336 l 701 351 l 464 940 l 458 940 l 221 351 l 213 336 l 79 0 l 34 0 m 194 323 l 194 363 l 728 363 l 728 323 l 194 323 m 346 1086 l 212 1299 l 252 1322 l 374 1100 l 346 1086 m 536 1086 l 410 1299 l 450 1322 l 570 1100 l 536 1086 z "},"Ä":{"ha":922,"x_min":34,"x_max":888,"o":"m 34 0 l 444 1000 l 479 1000 l 888 0 l 844 0 l 709 336 l 701 351 l 464 940 l 458 940 l 221 351 l 213 336 l 79 0 l 34 0 m 194 323 l 194 363 l 728 363 l 728 323 l 194 323 m 597 1085 q 556 1102 573 1085 q 540 1142 540 1118 q 556 1182 540 1166 q 597 1199 573 1199 q 637 1182 621 1199 q 654 1142 654 1166 q 637 1102 654 1118 q 597 1085 621 1085 m 331 1085 q 291 1102 307 1085 q 274 1142 274 1118 q 291 1182 274 1166 q 331 1199 307 1199 q 371 1182 355 1199 q 388 1142 388 1166 q 371 1102 388 1118 q 331 1085 355 1085 z "},"Ȧ":{"ha":922,"x_min":34,"x_max":888,"o":"m 34 0 l 444 1000 l 479 1000 l 888 0 l 844 0 l 709 336 l 701 351 l 464 940 l 458 940 l 221 351 l 213 336 l 79 0 l 34 0 m 194 323 l 194 363 l 728 363 l 728 323 l 194 323 m 460 1081 q 418 1098 435 1081 q 401 1139 401 1115 q 418 1181 401 1164 q 460 1198 435 1198 q 501 1181 484 1198 q 518 1139 518 1164 q 501 1098 518 1115 q 460 1081 484 1081 z "},"Ạ":{"ha":922,"x_min":34,"x_max":888,"o":"m 34 0 l 444 1000 l 479 1000 l 888 0 l 844 0 l 709 336 l 701 351 l 464 940 l 458 940 l 221 351 l 213 336 l 79 0 l 34 0 m 194 323 l 194 363 l 728 363 l 728 323 l 194 323 m 460 -208 q 418 -191 435 -208 q 401 -149 401 -174 q 418 -108 401 -125 q 460 -91 435 -91 q 501 -108 484 -91 q 518 -149 518 -125 q 501 -191 518 -174 q 460 -208 484 -208 z "},"À":{"ha":922,"x_min":34,"x_max":888,"o":"m 34 0 l 444 1000 l 479 1000 l 888 0 l 844 0 l 709 336 l 701 351 l 464 940 l 458 940 l 221 351 l 213 336 l 79 0 l 34 0 m 194 323 l 194 363 l 728 363 l 728 323 l 194 323 m 461 1055 l 273 1245 l 300 1275 l 491 1089 l 461 1055 z "},"Ả":{"ha":922,"x_min":34,"x_max":888,"o":"m 34 0 l 444 1000 l 479 1000 l 888 0 l 844 0 l 709 336 l 701 351 l 464 940 l 458 940 l 221 351 l 213 336 l 79 0 l 34 0 m 194 323 l 194 363 l 728 363 l 728 323 l 194 323 m 477 1097 l 452 1127 q 500 1166 481 1143 q 519 1214 519 1190 q 500 1257 519 1242 q 446 1272 480 1272 q 407 1269 427 1272 q 369 1259 387 1265 l 369 1299 q 409 1309 387 1307 q 444 1312 431 1312 q 527 1285 498 1312 q 556 1217 556 1259 q 535 1148 556 1182 q 477 1097 513 1115 z "},"Ȃ":{"ha":922,"x_min":34,"x_max":888,"o":"m 34 0 l 444 1000 l 479 1000 l 888 0 l 844 0 l 709 336 l 701 351 l 464 940 l 458 940 l 221 351 l 213 336 l 79 0 l 34 0 m 194 323 l 194 363 l 728 363 l 728 323 l 194 323 m 461 1222 q 560 1201 516 1222 q 629 1143 604 1179 q 652 1063 654 1107 l 614 1063 q 571 1148 614 1116 q 461 1181 528 1181 q 353 1148 396 1181 q 311 1063 311 1116 l 273 1063 q 297 1143 273 1107 q 365 1201 322 1179 q 461 1222 408 1222 z "},"Ā":{"ha":922,"x_min":34,"x_max":888,"o":"m 34 0 l 444 1000 l 479 1000 l 888 0 l 844 0 l 709 336 l 701 351 l 464 940 l 458 940 l 221 351 l 213 336 l 79 0 l 34 0 m 194 323 l 194 363 l 728 363 l 728 323 l 194 323 m 233 1122 l 233 1164 l 688 1164 l 688 1122 l 233 1122 z "},"Ą":{"ha":922,"x_min":34,"x_max":920,"o":"m 34 0 l 444 1000 l 479 1000 l 888 0 l 844 0 l 709 336 l 701 351 l 464 940 l 458 940 l 221 351 l 213 336 l 79 0 l 34 0 m 194 323 l 194 363 l 728 363 l 728 323 l 194 323 m 829 -264 q 761 -236 787 -264 q 735 -164 735 -208 q 774 -67 735 -110 q 857 16 814 -25 l 888 0 q 837 -55 864 -29 q 791 -108 810 -81 q 772 -164 772 -134 q 791 -209 772 -193 q 836 -225 810 -225 q 883 -215 861 -225 q 920 -194 905 -204 l 920 -236 q 879 -256 905 -248 q 829 -264 853 -264 z "},"Å":{"ha":922,"x_min":34,"x_max":888,"o":"m 34 0 l 444 1000 l 479 1000 l 888 0 l 844 0 l 709 336 l 701 351 l 464 940 l 458 940 l 221 351 l 213 336 l 79 0 l 34 0 m 194 323 l 194 363 l 728 363 l 728 323 l 194 323 m 461 1044 q 395 1061 425 1044 q 349 1107 366 1078 q 332 1173 332 1137 q 349 1239 332 1210 q 395 1285 366 1268 q 461 1302 425 1302 q 527 1285 498 1302 q 573 1239 556 1268 q 590 1173 590 1210 q 573 1107 590 1137 q 527 1061 556 1078 q 461 1044 498 1044 m 462 1085 q 524 1111 499 1085 q 549 1174 549 1136 q 524 1236 549 1211 q 461 1261 499 1261 q 398 1236 424 1261 q 373 1173 373 1211 q 398 1111 373 1136 q 462 1085 424 1085 z "},"Ǻ":{"ha":922,"x_min":34,"x_max":888,"o":"m 34 0 l 444 1000 l 479 1000 l 888 0 l 844 0 l 709 336 l 701 351 l 464 940 l 458 940 l 221 351 l 213 336 l 79 0 l 34 0 m 194 323 l 194 363 l 728 363 l 728 323 l 194 323 m 477 1034 q 391 1069 427 1034 q 355 1156 355 1105 q 391 1242 355 1206 q 477 1278 427 1278 q 564 1242 528 1278 q 600 1156 600 1206 q 564 1069 600 1105 q 477 1034 528 1034 m 477 1072 q 537 1096 513 1072 q 562 1156 562 1121 q 537 1216 562 1192 q 477 1240 513 1240 q 418 1216 443 1240 q 393 1156 393 1192 q 418 1096 393 1121 q 477 1072 443 1072 m 491 1305 l 461 1339 l 652 1525 l 680 1495 l 491 1305 z "},"Ã":{"ha":922,"x_min":34,"x_max":888,"o":"m 34 0 l 444 1000 l 479 1000 l 888 0 l 844 0 l 709 336 l 701 351 l 464 940 l 458 940 l 221 351 l 213 336 l 79 0 l 34 0 m 194 323 l 194 363 l 728 363 l 728 323 l 194 323 m 267 1084 q 300 1178 269 1142 q 376 1214 331 1214 q 430 1200 408 1214 q 471 1168 453 1186 q 506 1136 488 1149 q 545 1122 524 1122 q 594 1149 577 1122 q 612 1214 612 1177 l 651 1214 q 623 1121 652 1158 q 545 1084 594 1084 q 494 1097 516 1084 q 453 1128 472 1110 q 416 1159 435 1145 q 373 1172 397 1172 q 328 1148 346 1172 q 311 1084 311 1124 l 267 1084 z "},"Æ":{"ha":1259,"x_min":14,"x_max":1164,"o":"m 14 0 l 582 1000 l 620 1000 l 628 943 l 591 943 l 251 336 l 60 0 l 14 0 m 233 323 l 233 363 l 662 363 l 662 323 l 233 323 m 678 0 l 647 339 l 589 1000 l 1164 1000 l 1164 959 l 632 959 l 715 41 l 1164 41 l 1164 0 l 678 0 m 666 492 l 659 533 l 1097 533 l 1097 492 l 666 492 z "},"Ǽ":{"ha":1259,"x_min":14,"x_max":1164,"o":"m 14 0 l 582 1000 l 620 1000 l 628 943 l 591 943 l 251 336 l 60 0 l 14 0 m 233 323 l 233 363 l 662 363 l 662 323 l 233 323 m 678 0 l 647 339 l 589 1000 l 1164 1000 l 1164 959 l 632 959 l 715 41 l 1164 41 l 1164 0 l 678 0 m 666 492 l 659 533 l 1097 533 l 1097 492 l 666 492 m 780 1055 l 750 1089 l 941 1275 l 968 1245 l 780 1055 z "},"B":{"ha":823,"x_min":138,"x_max":732,"o":"m 176 0 l 176 41 l 418 41 q 616 102 544 41 q 689 267 689 163 q 616 432 689 371 q 418 492 544 492 l 152 492 l 152 533 l 389 533 q 502 560 452 533 q 581 634 552 587 q 609 745 609 682 q 547 901 609 842 q 389 959 485 959 l 152 959 l 152 1000 l 389 1000 q 526 968 467 1000 q 619 879 585 936 q 652 745 652 821 q 634 648 652 692 q 583 570 616 604 q 505 517 549 536 l 505 525 q 626 478 575 513 q 705 389 677 443 q 732 267 732 336 q 694 126 732 186 q 585 33 655 66 q 418 0 514 0 l 176 0 m 138 0 l 138 1000 l 182 1000 l 182 0 l 138 0 z "},"C":{"ha":936,"x_min":83,"x_max":875,"o":"m 560 -11 q 373 29 460 -11 q 221 139 286 68 q 119 302 156 210 q 83 500 83 395 q 122 706 83 613 q 230 868 161 800 q 385 973 298 936 q 568 1010 472 1010 q 736 981 656 1010 q 872 906 817 952 l 853 863 q 723 942 802 915 q 568 970 645 970 q 403 936 482 970 q 261 839 323 902 q 162 690 199 777 q 126 499 126 604 q 163 307 126 393 q 261 159 199 220 q 401 63 323 97 q 562 30 479 30 q 683 47 625 30 q 786 93 741 65 q 856 149 831 120 l 875 106 q 733 21 818 52 q 560 -11 648 -11 z "},"Ć":{"ha":936,"x_min":83,"x_max":875,"o":"m 560 -11 q 373 29 460 -11 q 221 139 286 68 q 119 302 156 210 q 83 500 83 395 q 122 706 83 613 q 230 868 161 800 q 385 973 298 936 q 568 1010 472 1010 q 736 981 656 1010 q 872 906 817 952 l 853 863 q 723 942 802 915 q 568 970 645 970 q 403 936 482 970 q 261 839 323 902 q 162 690 199 777 q 126 499 126 604 q 163 307 126 393 q 261 159 199 220 q 401 63 323 97 q 562 30 479 30 q 683 47 625 30 q 786 93 741 65 q 856 149 831 120 l 875 106 q 733 21 818 52 q 560 -11 648 -11 m 562 1055 l 532 1089 l 723 1275 l 750 1245 l 562 1055 z "},"Č":{"ha":936,"x_min":83,"x_max":875,"o":"m 560 -11 q 373 29 460 -11 q 221 139 286 68 q 119 302 156 210 q 83 500 83 395 q 122 706 83 613 q 230 868 161 800 q 385 973 298 936 q 568 1010 472 1010 q 736 981 656 1010 q 872 906 817 952 l 853 863 q 723 942 802 915 q 568 970 645 970 q 403 936 482 970 q 261 839 323 902 q 162 690 199 777 q 126 499 126 604 q 163 307 126 393 q 261 159 199 220 q 401 63 323 97 q 562 30 479 30 q 683 47 625 30 q 786 93 741 65 q 856 149 831 120 l 875 106 q 733 21 818 52 q 560 -11 648 -11 m 392 1221 l 559 1086 l 568 1086 l 731 1221 l 758 1187 l 576 1044 l 551 1044 l 365 1187 l 392 1221 z "},"Ç":{"ha":936,"x_min":83,"x_max":875,"o":"m 560 -11 q 373 29 460 -11 q 221 139 286 68 q 119 302 156 210 q 83 500 83 395 q 122 706 83 613 q 230 868 161 800 q 385 973 298 936 q 568 1010 472 1010 q 736 981 656 1010 q 872 906 817 952 l 853 863 q 723 942 802 915 q 568 970 645 970 q 403 936 482 970 q 261 839 323 902 q 162 690 199 777 q 126 499 126 604 q 163 307 126 393 q 261 159 199 220 q 401 63 323 97 q 562 30 479 30 q 683 47 625 30 q 786 93 741 65 q 856 149 831 120 l 875 106 q 733 21 818 52 q 560 -11 648 -11 m 463 -292 l 463 -250 q 571 -237 530 -252 q 613 -180 613 -222 q 583 -133 613 -152 q 505 -114 553 -114 l 540 0 l 583 0 l 548 -109 l 537 -80 q 621 -117 592 -89 q 650 -183 650 -145 q 601 -265 650 -238 q 463 -292 551 -292 z "},"Ḉ":{"ha":936,"x_min":83,"x_max":875,"o":"m 560 -11 q 373 29 460 -11 q 221 139 286 68 q 119 302 156 210 q 83 500 83 395 q 122 706 83 613 q 230 868 161 800 q 385 973 298 936 q 568 1010 472 1010 q 736 981 656 1010 q 872 906 817 952 l 853 863 q 723 942 802 915 q 568 970 645 970 q 403 936 482 970 q 261 839 323 902 q 162 690 199 777 q 126 499 126 604 q 163 307 126 393 q 261 159 199 220 q 401 63 323 97 q 562 30 479 30 q 683 47 625 30 q 786 93 741 65 q 856 149 831 120 l 875 106 q 733 21 818 52 q 560 -11 648 -11 m 463 -292 l 463 -250 q 571 -237 530 -252 q 613 -180 613 -222 q 583 -133 613 -152 q 505 -114 553 -114 l 540 0 l 583 0 l 548 -109 l 537 -80 q 621 -117 592 -89 q 650 -183 650 -145 q 601 -265 650 -238 q 463 -292 551 -292 m 562 1055 l 532 1089 l 723 1275 l 750 1245 l 562 1055 z "},"Ĉ":{"ha":936,"x_min":83,"x_max":875,"o":"m 560 -11 q 373 29 460 -11 q 221 139 286 68 q 119 302 156 210 q 83 500 83 395 q 122 706 83 613 q 230 868 161 800 q 385 973 298 936 q 568 1010 472 1010 q 736 981 656 1010 q 872 906 817 952 l 853 863 q 723 942 802 915 q 568 970 645 970 q 403 936 482 970 q 261 839 323 902 q 162 690 199 777 q 126 499 126 604 q 163 307 126 393 q 261 159 199 220 q 401 63 323 97 q 562 30 479 30 q 683 47 625 30 q 786 93 741 65 q 856 149 831 120 l 875 106 q 733 21 818 52 q 560 -11 648 -11 m 395 1055 l 368 1089 l 553 1232 l 579 1232 l 761 1089 l 734 1055 l 571 1190 l 562 1190 l 395 1055 z "},"Ċ":{"ha":936,"x_min":83,"x_max":875,"o":"m 560 -11 q 373 29 460 -11 q 221 139 286 68 q 119 302 156 210 q 83 500 83 395 q 122 706 83 613 q 230 868 161 800 q 385 973 298 936 q 568 1010 472 1010 q 736 981 656 1010 q 872 906 817 952 l 853 863 q 723 942 802 915 q 568 970 645 970 q 403 936 482 970 q 261 839 323 902 q 162 690 199 777 q 126 499 126 604 q 163 307 126 393 q 261 159 199 220 q 401 63 323 97 q 562 30 479 30 q 683 47 625 30 q 786 93 741 65 q 856 149 831 120 l 875 106 q 733 21 818 52 q 560 -11 648 -11 m 560 1081 q 519 1098 536 1081 q 502 1139 502 1115 q 519 1181 502 1164 q 560 1198 536 1198 q 602 1181 585 1198 q 618 1139 618 1164 q 602 1098 618 1115 q 560 1081 585 1081 z "},"D":{"ha":962,"x_min":138,"x_max":879,"o":"m 138 0 l 138 1000 l 448 1000 q 632 964 552 1000 q 768 863 713 928 q 851 708 823 798 q 879 510 879 618 q 848 297 879 391 q 761 136 818 203 q 625 35 704 70 q 448 0 545 0 l 138 0 m 182 41 l 442 41 q 609 76 536 41 q 732 175 682 111 q 809 324 783 238 q 836 510 836 410 q 807 699 836 615 q 725 840 778 782 q 600 928 672 898 q 442 959 528 959 l 182 959 l 182 41 z "},"Ǆ":{"ha":1759,"x_min":138,"x_max":1664,"o":"m 138 0 l 138 1000 l 448 1000 q 632 964 552 1000 q 768 863 713 928 q 851 708 823 798 q 879 510 879 618 q 848 297 879 391 q 761 136 818 203 q 625 35 704 70 q 448 0 545 0 l 138 0 m 182 41 l 442 41 q 609 76 536 41 q 732 175 682 111 q 809 324 783 238 q 836 510 836 410 q 807 699 836 615 q 725 840 778 782 q 600 928 672 898 q 442 959 528 959 l 182 959 l 182 41 m 1013 0 l 1013 24 l 1591 956 l 1591 959 l 1048 959 l 1048 1000 l 1651 1000 l 1651 975 l 1073 43 l 1073 41 l 1664 41 l 1664 0 l 1013 0 m 1185 1221 l 1352 1086 l 1362 1086 l 1525 1221 l 1552 1187 l 1370 1044 l 1344 1044 l 1158 1187 l 1185 1221 z "},"Ď":{"ha":962,"x_min":138,"x_max":879,"o":"m 138 0 l 138 1000 l 448 1000 q 632 964 552 1000 q 768 863 713 928 q 851 708 823 798 q 879 510 879 618 q 848 297 879 391 q 761 136 818 203 q 625 35 704 70 q 448 0 545 0 l 138 0 m 182 41 l 442 41 q 609 76 536 41 q 732 175 682 111 q 809 324 783 238 q 836 510 836 410 q 807 699 836 615 q 725 840 778 782 q 600 928 672 898 q 442 959 528 959 l 182 959 l 182 41 m 305 1221 l 472 1086 l 481 1086 l 644 1221 l 671 1187 l 490 1044 l 464 1044 l 278 1187 l 305 1221 z "},"Đ":{"ha":981,"x_min":35,"x_max":898,"o":"m 157 0 l 157 1000 l 467 1000 q 651 964 571 1000 q 787 863 732 928 q 870 708 842 798 q 898 510 898 618 q 867 297 898 391 q 780 136 837 203 q 644 35 723 70 q 467 0 564 0 l 157 0 m 201 41 l 461 41 q 628 76 555 41 q 751 175 701 111 q 828 324 802 238 q 854 510 854 410 q 826 699 854 615 q 744 840 797 782 q 619 928 691 898 q 461 959 547 959 l 201 959 l 201 41 m 35 495 l 35 533 l 317 533 l 317 495 l 35 495 z "},"Ḍ":{"ha":962,"x_min":138,"x_max":879,"o":"m 138 0 l 138 1000 l 448 1000 q 632 964 552 1000 q 768 863 713 928 q 851 708 823 798 q 879 510 879 618 q 848 297 879 391 q 761 136 818 203 q 625 35 704 70 q 448 0 545 0 l 138 0 m 182 41 l 442 41 q 609 76 536 41 q 732 175 682 111 q 809 324 783 238 q 836 510 836 410 q 807 699 836 615 q 725 840 778 782 q 600 928 672 898 q 442 959 528 959 l 182 959 l 182 41 m 477 -208 q 436 -191 453 -208 q 419 -149 419 -174 q 436 -108 419 -125 q 477 -91 453 -91 q 519 -108 502 -91 q 536 -149 536 -125 q 519 -191 536 -174 q 477 -208 502 -208 z "},"Ḏ":{"ha":962,"x_min":138,"x_max":879,"o":"m 138 0 l 138 1000 l 448 1000 q 632 964 552 1000 q 768 863 713 928 q 851 708 823 798 q 879 510 879 618 q 848 297 879 391 q 761 136 818 203 q 625 35 704 70 q 448 0 545 0 l 138 0 m 182 41 l 442 41 q 609 76 536 41 q 732 175 682 111 q 809 324 783 238 q 836 510 836 410 q 807 699 836 615 q 725 840 778 782 q 600 928 672 898 q 442 959 528 959 l 182 959 l 182 41 m 269 -256 l 269 -217 l 684 -217 l 684 -256 l 269 -256 z "},"ǅ":{"ha":1572,"x_min":138,"x_max":1495,"o":"m 138 0 l 138 1000 l 448 1000 q 632 964 552 1000 q 768 863 713 928 q 851 708 823 798 q 879 510 879 618 q 848 297 879 391 q 761 136 818 203 q 625 35 704 70 q 448 0 545 0 l 138 0 m 182 41 l 442 41 q 609 76 536 41 q 732 175 682 111 q 809 324 783 238 q 836 510 836 410 q 807 699 836 615 q 725 840 778 782 q 600 928 672 898 q 442 959 528 959 l 182 959 l 182 41 m 996 0 l 996 24 l 1426 667 l 1426 673 l 1016 673 l 1016 711 l 1487 711 l 1487 692 l 1054 43 l 1054 38 l 1495 38 l 1495 0 l 996 0 m 1103 1028 l 1257 867 l 1263 867 l 1417 1028 l 1444 1000 l 1271 822 l 1249 822 l 1076 1000 l 1103 1028 z "},"Ð":{"ha":981,"x_min":35,"x_max":898,"o":"m 157 0 l 157 1000 l 467 1000 q 651 964 571 1000 q 787 863 732 928 q 870 708 842 798 q 898 510 898 618 q 867 297 898 391 q 780 136 837 203 q 644 35 723 70 q 467 0 564 0 l 157 0 m 201 41 l 461 41 q 628 76 555 41 q 751 175 701 111 q 828 324 802 238 q 854 510 854 410 q 826 699 854 615 q 744 840 797 782 q 619 928 691 898 q 461 959 547 959 l 201 959 l 201 41 m 35 495 l 35 533 l 317 533 l 317 495 l 35 495 z "},"E":{"ha":750,"x_min":138,"x_max":655,"o":"m 138 0 l 138 1000 l 655 1000 l 655 959 l 182 959 l 182 533 l 589 533 l 589 492 l 182 492 l 182 41 l 655 41 l 655 0 l 138 0 z "},"É":{"ha":750,"x_min":138,"x_max":655,"o":"m 138 0 l 138 1000 l 655 1000 l 655 959 l 182 959 l 182 533 l 589 533 l 589 492 l 182 492 l 182 41 l 655 41 l 655 0 l 138 0 m 397 1055 l 368 1089 l 559 1275 l 586 1245 l 397 1055 z "},"Ĕ":{"ha":750,"x_min":138,"x_max":655,"o":"m 138 0 l 138 1000 l 655 1000 l 655 959 l 182 959 l 182 533 l 589 533 l 589 492 l 182 492 l 182 41 l 655 41 l 655 0 l 138 0 m 397 1055 q 301 1077 344 1055 q 234 1134 258 1098 q 209 1214 209 1170 l 247 1214 q 290 1129 247 1162 q 397 1096 332 1096 q 508 1129 465 1096 q 551 1214 551 1162 l 589 1214 q 565 1134 590 1170 q 496 1077 540 1098 q 397 1055 452 1055 z "},"Ě":{"ha":750,"x_min":138,"x_max":655,"o":"m 138 0 l 138 1000 l 655 1000 l 655 959 l 182 959 l 182 533 l 589 533 l 589 492 l 182 492 l 182 41 l 655 41 l 655 0 l 138 0 m 228 1221 l 395 1086 l 404 1086 l 567 1221 l 594 1187 l 412 1044 l 387 1044 l 201 1187 l 228 1221 z "},"Ḝ":{"ha":750,"x_min":138,"x_max":655,"o":"m 138 0 l 138 1000 l 655 1000 l 655 959 l 182 959 l 182 533 l 589 533 l 589 492 l 182 492 l 182 41 l 655 41 l 655 0 l 138 0 m 298 -292 l 298 -250 q 407 -237 366 -252 q 449 -180 449 -222 q 419 -133 449 -152 q 340 -114 389 -114 l 376 0 l 419 0 l 384 -109 l 373 -80 q 457 -117 428 -89 q 486 -183 486 -145 q 436 -265 486 -238 q 298 -292 387 -292 m 397 1055 q 301 1077 344 1055 q 234 1134 258 1098 q 209 1214 209 1170 l 247 1214 q 290 1129 247 1162 q 397 1096 332 1096 q 508 1129 465 1096 q 551 1214 551 1162 l 589 1214 q 565 1134 590 1170 q 496 1077 540 1098 q 397 1055 452 1055 z "},"Ê":{"ha":750,"x_min":138,"x_max":655,"o":"m 138 0 l 138 1000 l 655 1000 l 655 959 l 182 959 l 182 533 l 589 533 l 589 492 l 182 492 l 182 41 l 655 41 l 655 0 l 138 0 m 231 1055 l 203 1089 l 389 1232 l 415 1232 l 597 1089 l 570 1055 l 407 1190 l 397 1190 l 231 1055 z "},"Ế":{"ha":750,"x_min":138,"x_max":739,"o":"m 138 0 l 138 1000 l 655 1000 l 655 959 l 182 959 l 182 533 l 589 533 l 589 492 l 182 492 l 182 41 l 655 41 l 655 0 l 138 0 m 560 1175 l 530 1206 l 705 1379 l 739 1347 l 560 1175 m 232 1047 l 205 1078 l 391 1225 l 416 1225 l 598 1078 l 571 1047 l 408 1177 l 399 1177 l 232 1047 z "},"Ệ":{"ha":750,"x_min":138,"x_max":655,"o":"m 138 0 l 138 1000 l 655 1000 l 655 959 l 182 959 l 182 533 l 589 533 l 589 492 l 182 492 l 182 41 l 655 41 l 655 0 l 138 0 m 404 -208 q 363 -191 380 -208 q 346 -149 346 -174 q 363 -108 346 -125 q 404 -91 380 -91 q 446 -108 429 -91 q 463 -149 463 -125 q 446 -191 463 -174 q 404 -208 429 -208 m 239 1055 l 212 1089 l 397 1232 l 423 1232 l 605 1089 l 578 1055 l 415 1190 l 406 1190 l 239 1055 z "},"Ề":{"ha":750,"x_min":56,"x_max":655,"o":"m 138 0 l 138 1000 l 655 1000 l 655 959 l 182 959 l 182 533 l 589 533 l 589 492 l 182 492 l 182 41 l 655 41 l 655 0 l 138 0 m 235 1175 l 56 1347 l 90 1379 l 264 1206 l 235 1175 m 563 1047 l 396 1177 l 387 1177 l 224 1047 l 197 1078 l 378 1225 l 404 1225 l 590 1078 l 563 1047 z "},"Ể":{"ha":750,"x_min":138,"x_max":655,"o":"m 138 0 l 138 1000 l 655 1000 l 655 959 l 182 959 l 182 533 l 589 533 l 589 492 l 182 492 l 182 41 l 655 41 l 655 0 l 138 0 m 551 1169 l 519 1195 q 558 1238 541 1213 q 575 1286 575 1263 q 556 1328 575 1312 q 503 1344 537 1344 q 465 1340 487 1344 q 426 1331 442 1337 l 426 1369 q 463 1378 442 1375 q 503 1382 484 1382 q 587 1357 556 1382 q 617 1289 617 1333 q 607 1245 617 1267 q 582 1202 597 1222 q 551 1169 566 1182 m 231 1047 l 203 1078 l 389 1225 l 415 1225 l 597 1078 l 570 1047 l 407 1177 l 397 1177 l 231 1047 z "},"Ễ":{"ha":750,"x_min":138,"x_max":655,"o":"m 138 0 l 138 1000 l 655 1000 l 655 959 l 182 959 l 182 533 l 589 533 l 589 492 l 182 492 l 182 41 l 655 41 l 655 0 l 138 0 m 206 1270 q 237 1358 206 1328 q 315 1388 267 1388 q 369 1376 347 1388 q 408 1349 391 1364 q 443 1322 425 1333 q 481 1310 460 1310 q 530 1330 512 1310 q 548 1388 548 1350 l 589 1388 q 576 1323 590 1350 q 536 1283 562 1297 q 480 1270 511 1270 q 430 1282 452 1270 q 390 1310 408 1294 q 352 1337 371 1325 q 311 1350 334 1350 q 266 1331 286 1350 q 247 1270 247 1312 l 206 1270 m 228 1047 l 201 1078 l 387 1225 l 412 1225 l 594 1078 l 567 1047 l 404 1177 l 395 1177 l 228 1047 z "},"Ȅ":{"ha":750,"x_min":138,"x_max":655,"o":"m 138 0 l 138 1000 l 655 1000 l 655 959 l 182 959 l 182 533 l 589 533 l 589 492 l 182 492 l 182 41 l 655 41 l 655 0 l 138 0 m 282 1086 l 148 1299 l 189 1322 l 311 1100 l 282 1086 m 472 1086 l 346 1299 l 387 1322 l 506 1100 l 472 1086 z "},"Ë":{"ha":750,"x_min":138,"x_max":655,"o":"m 138 0 l 138 1000 l 655 1000 l 655 959 l 182 959 l 182 533 l 589 533 l 589 492 l 182 492 l 182 41 l 655 41 l 655 0 l 138 0 m 533 1085 q 493 1102 509 1085 q 476 1142 476 1118 q 493 1182 476 1166 q 533 1199 509 1199 q 573 1182 557 1199 q 590 1142 590 1166 q 573 1102 590 1118 q 533 1085 557 1085 m 267 1085 q 227 1102 243 1085 q 210 1142 210 1118 q 227 1182 210 1166 q 267 1199 243 1199 q 308 1182 291 1199 q 324 1142 324 1166 q 308 1102 324 1118 q 267 1085 291 1085 z "},"Ė":{"ha":750,"x_min":138,"x_max":655,"o":"m 138 0 l 138 1000 l 655 1000 l 655 959 l 182 959 l 182 533 l 589 533 l 589 492 l 182 492 l 182 41 l 655 41 l 655 0 l 138 0 m 396 1081 q 355 1098 372 1081 q 338 1139 338 1115 q 355 1181 338 1164 q 396 1198 372 1198 q 437 1181 420 1198 q 454 1139 454 1164 q 437 1098 454 1115 q 396 1081 420 1081 z "},"Ẹ":{"ha":750,"x_min":138,"x_max":655,"o":"m 138 0 l 138 1000 l 655 1000 l 655 959 l 182 959 l 182 533 l 589 533 l 589 492 l 182 492 l 182 41 l 655 41 l 655 0 l 138 0 m 406 -208 q 364 -191 381 -208 q 347 -149 347 -174 q 364 -108 347 -125 q 406 -91 381 -91 q 447 -108 430 -91 q 464 -149 464 -125 q 447 -191 464 -174 q 406 -208 430 -208 z "},"È":{"ha":750,"x_min":138,"x_max":655,"o":"m 138 0 l 138 1000 l 655 1000 l 655 959 l 182 959 l 182 533 l 589 533 l 589 492 l 182 492 l 182 41 l 655 41 l 655 0 l 138 0 m 397 1055 l 209 1245 l 236 1275 l 427 1089 l 397 1055 z "},"Ẻ":{"ha":750,"x_min":138,"x_max":655,"o":"m 138 0 l 138 1000 l 655 1000 l 655 959 l 182 959 l 182 533 l 589 533 l 589 492 l 182 492 l 182 41 l 655 41 l 655 0 l 138 0 m 414 1097 l 388 1127 q 437 1166 418 1143 q 456 1214 456 1190 q 436 1257 456 1242 q 382 1272 416 1272 q 343 1269 363 1272 q 305 1259 323 1265 l 305 1299 q 346 1309 323 1307 q 380 1312 368 1312 q 464 1285 435 1312 q 492 1217 492 1259 q 471 1148 492 1182 q 414 1097 450 1115 z "},"Ȇ":{"ha":750,"x_min":138,"x_max":655,"o":"m 138 0 l 138 1000 l 655 1000 l 655 959 l 182 959 l 182 533 l 589 533 l 589 492 l 182 492 l 182 41 l 655 41 l 655 0 l 138 0 m 397 1222 q 496 1201 452 1222 q 565 1143 540 1179 q 589 1063 590 1107 l 551 1063 q 508 1148 551 1116 q 397 1181 465 1181 q 290 1148 332 1181 q 247 1063 247 1116 l 209 1063 q 234 1143 209 1107 q 301 1201 258 1179 q 397 1222 344 1222 z "},"Ē":{"ha":750,"x_min":138,"x_max":655,"o":"m 138 0 l 138 1000 l 655 1000 l 655 959 l 182 959 l 182 533 l 589 533 l 589 492 l 182 492 l 182 41 l 655 41 l 655 0 l 138 0 m 170 1122 l 170 1164 l 624 1164 l 624 1122 l 170 1122 z "},"Ḗ":{"ha":750,"x_min":138,"x_max":655,"o":"m 138 0 l 138 1000 l 655 1000 l 655 959 l 182 959 l 182 533 l 589 533 l 589 492 l 182 492 l 182 41 l 655 41 l 655 0 l 138 0 m 170 1122 l 170 1164 l 624 1164 l 624 1122 l 170 1122 m 397 1219 l 368 1253 l 559 1439 l 586 1409 l 397 1219 z "},"Ḕ":{"ha":750,"x_min":138,"x_max":655,"o":"m 138 0 l 138 1000 l 655 1000 l 655 959 l 182 959 l 182 533 l 589 533 l 589 492 l 182 492 l 182 41 l 655 41 l 655 0 l 138 0 m 170 1122 l 170 1164 l 624 1164 l 624 1122 l 170 1122 m 397 1219 l 209 1409 l 236 1439 l 427 1253 l 397 1219 z "},"Ę":{"ha":750,"x_min":138,"x_max":686,"o":"m 138 0 l 138 1000 l 655 1000 l 655 959 l 182 959 l 182 533 l 589 533 l 589 492 l 182 492 l 182 41 l 655 41 l 655 0 l 138 0 m 595 -264 q 528 -236 554 -264 q 502 -164 502 -208 q 541 -67 502 -110 q 624 16 581 -25 l 655 0 q 604 -55 631 -29 q 557 -108 576 -81 q 538 -164 538 -134 q 558 -209 538 -193 q 602 -225 577 -225 q 650 -215 628 -225 q 686 -194 671 -204 l 686 -236 q 646 -256 671 -248 q 595 -264 620 -264 z "},"Ẽ":{"ha":750,"x_min":138,"x_max":655,"o":"m 138 0 l 138 1000 l 655 1000 l 655 959 l 182 959 l 182 533 l 589 533 l 589 492 l 182 492 l 182 41 l 655 41 l 655 0 l 138 0 m 203 1084 q 236 1178 205 1142 q 312 1214 267 1214 q 367 1200 344 1214 q 407 1168 389 1186 q 442 1136 425 1149 q 481 1122 460 1122 q 531 1149 513 1122 q 548 1214 548 1177 l 587 1214 q 559 1121 589 1158 q 481 1084 530 1084 q 430 1097 452 1084 q 390 1128 408 1110 q 352 1159 371 1145 q 309 1172 333 1172 q 264 1148 282 1172 q 247 1084 247 1124 l 203 1084 z "},"Ə":{"ha":1048,"x_min":83,"x_max":966,"o":"m 494 -11 q 275 50 368 -11 q 133 220 183 111 q 83 477 83 330 l 83 514 l 949 514 l 949 473 l 126 473 q 168 251 126 352 q 291 90 209 151 q 494 30 372 30 q 661 64 583 30 q 798 161 739 98 q 890 310 857 224 q 924 499 924 396 q 891 685 924 600 q 801 834 859 770 q 663 934 742 899 q 488 970 583 970 q 323 941 400 970 q 195 863 245 913 l 178 906 q 309 979 228 948 q 491 1010 389 1010 q 683 972 596 1010 q 833 866 770 935 q 931 704 897 797 q 966 500 966 611 q 930 298 966 391 q 830 136 895 205 q 681 28 766 66 q 494 -11 595 -11 z "},"F":{"ha":693,"x_min":138,"x_max":637,"o":"m 138 0 l 138 1000 l 637 1000 l 637 959 l 182 959 l 182 533 l 583 533 l 583 492 l 182 492 l 182 0 l 138 0 z "},"G":{"ha":1048,"x_min":83,"x_max":966,"o":"m 556 -11 q 369 28 455 -11 q 218 136 282 66 q 118 298 154 205 q 83 500 83 391 q 117 704 83 611 q 215 866 152 797 q 366 972 279 935 q 559 1010 454 1010 q 741 979 660 1010 q 872 906 823 948 l 853 863 q 724 942 802 915 q 562 970 646 970 q 336 908 435 970 q 182 739 238 846 q 126 499 126 633 q 159 310 126 396 q 252 161 193 224 q 389 64 311 98 q 556 30 467 30 q 759 90 677 30 q 882 251 840 151 q 924 473 924 352 l 522 473 l 522 514 l 966 514 l 966 477 q 916 220 966 330 q 773 50 865 111 q 556 -11 682 -11 z "},"Ğ":{"ha":1048,"x_min":83,"x_max":966,"o":"m 556 -11 q 369 28 455 -11 q 218 136 282 66 q 118 298 154 205 q 83 500 83 391 q 117 704 83 611 q 215 866 152 797 q 366 972 279 935 q 559 1010 454 1010 q 741 979 660 1010 q 872 906 823 948 l 853 863 q 724 942 802 915 q 562 970 646 970 q 336 908 435 970 q 182 739 238 846 q 126 499 126 633 q 159 310 126 396 q 252 161 193 224 q 389 64 311 98 q 556 30 467 30 q 759 90 677 30 q 882 251 840 151 q 924 473 924 352 l 522 473 l 522 514 l 966 514 l 966 477 q 916 220 966 330 q 773 50 865 111 q 556 -11 682 -11 m 536 1055 q 439 1077 482 1055 q 372 1134 397 1098 q 347 1214 347 1170 l 385 1214 q 428 1129 385 1162 q 536 1096 471 1096 q 646 1129 603 1096 q 689 1214 689 1162 l 727 1214 q 703 1134 728 1170 q 634 1077 678 1098 q 536 1055 591 1055 z "},"Ǧ":{"ha":1048,"x_min":83,"x_max":966,"o":"m 556 -11 q 369 28 455 -11 q 218 136 282 66 q 118 298 154 205 q 83 500 83 391 q 117 704 83 611 q 215 866 152 797 q 366 972 279 935 q 559 1010 454 1010 q 741 979 660 1010 q 872 906 823 948 l 853 863 q 724 942 802 915 q 562 970 646 970 q 336 908 435 970 q 182 739 238 846 q 126 499 126 633 q 159 310 126 396 q 252 161 193 224 q 389 64 311 98 q 556 30 467 30 q 759 90 677 30 q 882 251 840 151 q 924 473 924 352 l 522 473 l 522 514 l 966 514 l 966 477 q 916 220 966 330 q 773 50 865 111 q 556 -11 682 -11 m 366 1221 l 533 1086 l 543 1086 l 705 1221 l 732 1187 l 551 1044 l 525 1044 l 339 1187 l 366 1221 z "},"Ĝ":{"ha":1048,"x_min":83,"x_max":966,"o":"m 556 -11 q 369 28 455 -11 q 218 136 282 66 q 118 298 154 205 q 83 500 83 391 q 117 704 83 611 q 215 866 152 797 q 366 972 279 935 q 559 1010 454 1010 q 741 979 660 1010 q 872 906 823 948 l 853 863 q 724 942 802 915 q 562 970 646 970 q 336 908 435 970 q 182 739 238 846 q 126 499 126 633 q 159 310 126 396 q 252 161 193 224 q 389 64 311 98 q 556 30 467 30 q 759 90 677 30 q 882 251 840 151 q 924 473 924 352 l 522 473 l 522 514 l 966 514 l 966 477 q 916 220 966 330 q 773 50 865 111 q 556 -11 682 -11 m 369 1055 l 342 1089 l 528 1232 l 553 1232 l 735 1089 l 708 1055 l 545 1190 l 536 1190 l 369 1055 z "},"Ģ":{"ha":1048,"x_min":83,"x_max":966,"o":"m 556 -11 q 369 28 455 -11 q 218 136 282 66 q 118 298 154 205 q 83 500 83 391 q 117 704 83 611 q 215 866 152 797 q 366 972 279 935 q 559 1010 454 1010 q 741 979 660 1010 q 872 906 823 948 l 853 863 q 724 942 802 915 q 562 970 646 970 q 336 908 435 970 q 182 739 238 846 q 126 499 126 633 q 159 310 126 396 q 252 161 193 224 q 389 64 311 98 q 556 30 467 30 q 759 90 677 30 q 882 251 840 151 q 924 473 924 352 l 522 473 l 522 514 l 966 514 l 966 477 q 916 220 966 330 q 773 50 865 111 q 556 -11 682 -11 m 484 -330 l 458 -308 l 509 -252 q 533 -222 524 -235 q 546 -199 542 -210 q 548 -178 549 -189 l 567 -175 q 553 -195 561 -187 q 534 -202 546 -202 q 500 -187 516 -202 q 484 -149 484 -172 q 500 -114 484 -127 q 534 -100 516 -100 q 574 -117 560 -100 q 587 -160 587 -134 q 578 -202 587 -181 q 557 -241 569 -224 q 537 -269 545 -259 l 484 -330 z "},"Ġ":{"ha":1048,"x_min":83,"x_max":966,"o":"m 556 -11 q 369 28 455 -11 q 218 136 282 66 q 118 298 154 205 q 83 500 83 391 q 117 704 83 611 q 215 866 152 797 q 366 972 279 935 q 559 1010 454 1010 q 741 979 660 1010 q 872 906 823 948 l 853 863 q 724 942 802 915 q 562 970 646 970 q 336 908 435 970 q 182 739 238 846 q 126 499 126 633 q 159 310 126 396 q 252 161 193 224 q 389 64 311 98 q 556 30 467 30 q 759 90 677 30 q 882 251 840 151 q 924 473 924 352 l 522 473 l 522 514 l 966 514 l 966 477 q 916 220 966 330 q 773 50 865 111 q 556 -11 682 -11 m 534 1081 q 493 1098 510 1081 q 476 1139 476 1115 q 493 1181 476 1164 q 534 1198 510 1198 q 576 1181 559 1198 q 593 1139 593 1164 q 576 1098 593 1115 q 534 1081 559 1081 z "},"Ḡ":{"ha":1048,"x_min":83,"x_max":966,"o":"m 556 -11 q 369 28 455 -11 q 218 136 282 66 q 118 298 154 205 q 83 500 83 391 q 117 704 83 611 q 215 866 152 797 q 366 972 279 935 q 559 1010 454 1010 q 741 979 660 1010 q 872 906 823 948 l 853 863 q 724 942 802 915 q 562 970 646 970 q 336 908 435 970 q 182 739 238 846 q 126 499 126 633 q 159 310 126 396 q 252 161 193 224 q 389 64 311 98 q 556 30 467 30 q 759 90 677 30 q 882 251 840 151 q 924 473 924 352 l 522 473 l 522 514 l 966 514 l 966 477 q 916 220 966 330 q 773 50 865 111 q 556 -11 682 -11 m 308 1122 l 308 1164 l 762 1164 l 762 1122 l 308 1122 z "},"H":{"ha":967,"x_min":138,"x_max":829,"o":"m 138 0 l 138 1000 l 182 1000 l 182 533 l 785 533 l 785 1000 l 829 1000 l 829 0 l 785 0 l 785 492 l 182 492 l 182 0 l 138 0 z "},"Ħ":{"ha":983,"x_min":37,"x_max":952,"o":"m 37 715 l 37 753 l 952 753 l 952 715 l 37 715 m 149 0 l 149 1000 l 193 1000 l 193 533 l 796 533 l 796 1000 l 840 1000 l 840 0 l 796 0 l 796 492 l 193 492 l 193 0 l 149 0 z "},"Ḫ":{"ha":967,"x_min":138,"x_max":829,"o":"m 138 0 l 138 1000 l 182 1000 l 182 533 l 785 533 l 785 1000 l 829 1000 l 829 0 l 785 0 l 785 492 l 182 492 l 182 0 l 138 0 m 483 -270 q 386 -245 429 -270 q 317 -177 342 -220 q 292 -80 292 -134 l 330 -80 q 374 -188 330 -144 q 483 -232 418 -232 q 592 -188 548 -232 q 636 -80 636 -144 l 674 -80 q 649 -177 674 -134 q 580 -245 623 -220 q 483 -270 537 -270 z "},"Ĥ":{"ha":967,"x_min":138,"x_max":829,"o":"m 138 0 l 138 1000 l 182 1000 l 182 533 l 785 533 l 785 1000 l 829 1000 l 829 0 l 785 0 l 785 492 l 182 492 l 182 0 l 138 0 m 316 1055 l 289 1089 l 475 1232 l 500 1232 l 682 1089 l 655 1055 l 492 1190 l 483 1190 l 316 1055 z "},"Ḥ":{"ha":967,"x_min":138,"x_max":829,"o":"m 138 0 l 138 1000 l 182 1000 l 182 533 l 785 533 l 785 1000 l 829 1000 l 829 0 l 785 0 l 785 492 l 182 492 l 182 0 l 138 0 m 483 -208 q 441 -191 458 -208 q 425 -149 425 -174 q 441 -108 425 -125 q 483 -91 458 -91 q 524 -108 507 -91 q 541 -149 541 -125 q 524 -191 541 -174 q 483 -208 507 -208 z "},"I":{"ha":332,"x_min":144,"x_max":187,"o":"m 144 0 l 144 1000 l 187 1000 l 187 0 l 144 0 z "},"Í":{"ha":332,"x_min":136,"x_max":354,"o":"m 144 0 l 144 1000 l 187 1000 l 187 0 l 144 0 m 165 1055 l 136 1089 l 327 1275 l 354 1245 l 165 1055 z "},"Ĭ":{"ha":354,"x_min":-12,"x_max":369,"o":"m 155 0 l 155 1000 l 198 1000 l 198 0 l 155 0 m 176 1055 q 80 1077 123 1055 q 13 1134 37 1098 q -12 1214 -12 1170 l 26 1214 q 68 1129 26 1162 q 176 1096 111 1096 q 287 1129 243 1096 q 330 1214 330 1162 l 368 1214 q 344 1134 369 1170 q 275 1077 319 1098 q 176 1055 231 1055 z "},"Ǐ":{"ha":354,"x_min":-20,"x_max":373,"o":"m 155 0 l 155 1000 l 198 1000 l 198 0 l 155 0 m 7 1221 l 174 1086 l 183 1086 l 346 1221 l 373 1187 l 191 1044 l 165 1044 l -20 1187 l 7 1221 z "},"Î":{"ha":354,"x_min":-18,"x_max":376,"o":"m 155 0 l 155 1000 l 198 1000 l 198 0 l 155 0 m 9 1055 l -18 1089 l 168 1232 l 194 1232 l 376 1089 l 349 1055 l 186 1190 l 176 1190 l 9 1055 z "},"Ȉ":{"ha":354,"x_min":-73,"x_max":285,"o":"m 155 0 l 155 1000 l 198 1000 l 198 0 l 155 0 m 61 1086 l -73 1299 l -33 1322 l 90 1100 l 61 1086 m 251 1086 l 125 1299 l 165 1322 l 285 1100 l 251 1086 z "},"Ï":{"ha":401,"x_min":14,"x_max":393,"o":"m 179 0 l 179 1000 l 222 1000 l 222 0 l 179 0 m 336 1085 q 296 1102 313 1085 q 279 1142 279 1118 q 296 1182 279 1166 q 336 1199 313 1199 q 377 1182 360 1199 q 393 1142 393 1166 q 377 1102 393 1118 q 336 1085 360 1085 m 71 1085 q 30 1102 47 1085 q 14 1142 14 1118 q 30 1182 14 1166 q 71 1199 47 1199 q 111 1182 94 1199 q 127 1142 127 1166 q 111 1102 127 1118 q 71 1085 94 1085 z "},"Ḯ":{"ha":401,"x_min":14,"x_max":393,"o":"m 179 0 l 179 1000 l 222 1000 l 222 0 l 179 0 m 336 1085 q 296 1102 313 1085 q 279 1142 279 1118 q 296 1182 279 1166 q 336 1199 313 1199 q 377 1182 360 1199 q 393 1142 393 1166 q 377 1102 393 1118 q 336 1085 360 1085 m 71 1085 q 30 1102 47 1085 q 14 1142 14 1118 q 30 1182 14 1166 q 71 1199 47 1199 q 111 1182 94 1199 q 127 1142 127 1166 q 111 1102 127 1118 q 71 1085 94 1085 m 201 1203 l 171 1237 l 362 1423 l 389 1393 l 201 1203 z "},"İ":{"ha":332,"x_min":106,"x_max":222,"o":"m 144 0 l 144 1000 l 187 1000 l 187 0 l 144 0 m 164 1081 q 123 1098 140 1081 q 106 1139 106 1115 q 123 1181 106 1164 q 164 1198 140 1198 q 205 1181 189 1198 q 222 1139 222 1164 q 205 1098 222 1115 q 164 1081 189 1081 z "},"Ị":{"ha":332,"x_min":107,"x_max":224,"o":"m 144 0 l 144 1000 l 187 1000 l 187 0 l 144 0 m 165 -208 q 124 -191 141 -208 q 107 -149 107 -174 q 124 -108 107 -125 q 165 -91 141 -91 q 207 -108 190 -91 q 224 -149 224 -125 q 207 -191 224 -174 q 165 -208 190 -208 z "},"Ì":{"ha":332,"x_min":-23,"x_max":195,"o":"m 144 0 l 144 1000 l 187 1000 l 187 0 l 144 0 m 165 1055 l -23 1245 l 4 1275 l 195 1089 l 165 1055 z "},"Ỉ":{"ha":332,"x_min":73,"x_max":260,"o":"m 144 0 l 144 1000 l 187 1000 l 187 0 l 144 0 m 182 1097 l 156 1127 q 205 1166 186 1143 q 224 1214 224 1190 q 204 1257 224 1242 q 151 1272 184 1272 q 111 1269 132 1272 q 73 1259 91 1265 l 73 1299 q 114 1309 92 1307 q 148 1312 136 1312 q 232 1285 203 1312 q 260 1217 260 1259 q 239 1148 260 1182 q 182 1097 218 1115 z "},"Ȋ":{"ha":401,"x_min":12,"x_max":393,"o":"m 179 0 l 179 1000 l 222 1000 l 222 0 l 179 0 m 201 1222 q 299 1201 256 1222 q 368 1143 343 1179 q 392 1063 393 1107 l 354 1063 q 311 1148 354 1116 q 201 1181 268 1181 q 93 1148 136 1181 q 50 1063 50 1116 l 12 1063 q 37 1143 12 1107 q 104 1201 62 1179 q 201 1222 147 1222 z "},"Ī":{"ha":401,"x_min":0,"x_max":400,"o":"m 179 0 l 179 1000 l 222 1000 l 222 0 l 179 0 m 0 1122 l 0 1164 l 400 1164 l 400 1122 l 0 1122 z "},"Į":{"ha":332,"x_min":34,"x_max":218,"o":"m 144 0 l 144 1000 l 187 1000 l 187 0 l 144 0 m 127 -264 q 60 -236 86 -264 q 34 -164 34 -208 q 73 -67 34 -110 q 156 16 113 -25 l 187 0 q 136 -55 163 -29 q 90 -108 109 -81 q 71 -164 71 -134 q 90 -209 71 -193 q 134 -225 109 -225 q 182 -215 160 -225 q 218 -194 203 -204 l 218 -236 q 178 -256 203 -248 q 127 -264 152 -264 z "},"Ĩ":{"ha":412,"x_min":12,"x_max":397,"o":"m 184 0 l 184 1000 l 228 1000 l 228 0 l 184 0 m 12 1084 q 45 1178 14 1142 q 121 1214 76 1214 q 175 1200 153 1214 q 216 1168 198 1186 q 251 1136 233 1149 q 290 1122 269 1122 q 339 1149 322 1122 q 357 1214 357 1177 l 396 1214 q 368 1121 397 1158 q 290 1084 339 1084 q 239 1097 261 1084 q 198 1128 217 1110 q 161 1159 180 1145 q 118 1172 142 1172 q 73 1148 91 1172 q 56 1084 56 1124 l 12 1084 z "},"J":{"ha":635,"x_min":34,"x_max":496,"o":"m 260 -11 q 142 21 193 -11 q 63 108 92 53 q 34 235 35 163 l 76 235 q 128 86 77 143 q 260 30 178 30 q 356 56 313 30 q 427 140 400 82 q 453 292 453 197 l 453 1000 l 496 1000 l 496 294 q 465 122 496 189 q 380 22 434 54 q 260 -11 327 -11 z "},"Ĵ":{"ha":646,"x_min":34,"x_max":665,"o":"m 260 -11 q 142 21 193 -11 q 63 108 92 53 q 34 235 35 163 l 76 235 q 128 86 77 143 q 260 30 178 30 q 356 56 313 30 q 427 140 400 82 q 453 292 453 197 l 453 1000 l 496 1000 l 496 294 q 465 122 496 189 q 380 22 434 54 q 260 -11 327 -11 m 298 1055 l 271 1089 l 457 1232 l 483 1232 l 665 1089 l 637 1055 l 475 1190 l 465 1190 l 298 1055 z "},"K":{"ha":821,"x_min":138,"x_max":770,"o":"m 138 0 l 138 1000 l 182 1000 l 182 519 l 205 519 l 179 503 l 675 1000 l 735 1000 l 220 486 l 220 517 l 770 0 l 711 0 l 179 498 l 205 480 l 182 480 l 182 0 l 138 0 z "},"Ķ":{"ha":821,"x_min":138,"x_max":770,"o":"m 138 0 l 138 1000 l 182 1000 l 182 519 l 205 519 l 179 503 l 675 1000 l 735 1000 l 220 486 l 220 517 l 770 0 l 711 0 l 179 498 l 205 480 l 182 480 l 182 0 l 138 0 m 374 -330 l 349 -308 l 399 -252 q 423 -222 414 -235 q 436 -199 432 -210 q 438 -178 439 -189 l 457 -175 q 444 -195 451 -187 q 425 -202 436 -202 q 390 -187 406 -202 q 374 -149 374 -172 q 390 -114 374 -127 q 425 -100 406 -100 q 464 -117 450 -100 q 477 -160 477 -134 q 468 -202 477 -181 q 447 -241 459 -224 q 427 -269 435 -259 l 374 -330 z "},"L":{"ha":689,"x_min":138,"x_max":652,"o":"m 138 0 l 138 1000 l 182 1000 l 182 41 l 652 41 l 652 0 l 138 0 z "},"Ǉ":{"ha":1324,"x_min":138,"x_max":1185,"o":"m 138 0 l 138 1000 l 182 1000 l 182 41 l 652 41 l 652 0 l 138 0 m 949 -11 q 831 21 882 -11 q 752 108 781 53 q 723 235 724 163 l 765 235 q 817 86 766 143 q 949 30 867 30 q 1045 56 1002 30 q 1116 140 1089 82 q 1142 292 1142 197 l 1142 1000 l 1185 1000 l 1185 294 q 1154 122 1185 189 q 1069 22 1123 54 q 949 -11 1016 -11 z "},"Ĺ":{"ha":689,"x_min":130,"x_max":652,"o":"m 138 0 l 138 1000 l 182 1000 l 182 41 l 652 41 l 652 0 l 138 0 m 160 1055 l 130 1089 l 321 1275 l 349 1245 l 160 1055 z "},"Ľ":{"ha":689,"x_min":138,"x_max":659,"o":"m 138 0 l 138 1000 l 182 1000 l 182 41 l 652 41 l 652 0 l 138 0 m 610 724 l 617 1000 l 659 1000 l 648 724 l 610 724 z "},"Ļ":{"ha":689,"x_min":138,"x_max":652,"o":"m 138 0 l 138 1000 l 182 1000 l 182 41 l 652 41 l 652 0 l 138 0 m 354 -330 l 328 -308 l 378 -252 q 402 -222 393 -235 q 415 -199 412 -210 q 418 -178 419 -189 l 437 -175 q 423 -195 431 -187 q 404 -202 416 -202 q 370 -187 386 -202 q 354 -149 354 -172 q 370 -114 354 -127 q 404 -100 386 -100 q 444 -117 430 -100 q 457 -160 457 -134 q 448 -202 457 -181 q 427 -241 439 -224 q 407 -269 415 -259 l 354 -330 z "},"Ŀ":{"ha":689,"x_min":138,"x_max":652,"o":"m 138 0 l 138 1000 l 182 1000 l 182 41 l 652 41 l 652 0 l 138 0 m 534 457 q 494 474 511 457 q 477 514 477 491 q 494 554 477 538 q 534 571 511 571 q 575 554 558 571 q 591 514 591 538 q 575 474 591 491 q 534 457 558 457 z "},"Ḷ":{"ha":689,"x_min":138,"x_max":652,"o":"m 138 0 l 138 1000 l 182 1000 l 182 41 l 652 41 l 652 0 l 138 0 m 406 -208 q 364 -191 381 -208 q 347 -149 347 -174 q 364 -108 347 -125 q 406 -91 381 -91 q 447 -108 430 -91 q 464 -149 464 -125 q 447 -191 464 -174 q 406 -208 430 -208 z "},"ǈ":{"ha":1001,"x_min":138,"x_max":921,"o":"m 138 0 l 138 1000 l 182 1000 l 182 41 l 652 41 l 652 0 l 138 0 m 711 -296 q 685 -294 699 -296 q 658 -290 672 -293 l 658 -250 q 684 -256 671 -254 q 708 -258 697 -258 q 811 -211 779 -258 q 842 -104 842 -164 l 842 711 l 883 711 l 883 -94 q 865 -196 883 -151 q 808 -269 846 -242 q 711 -296 770 -296 m 863 853 q 821 870 838 853 q 804 911 804 887 q 821 953 804 936 q 863 970 838 970 q 904 953 887 970 q 921 911 921 936 q 904 870 921 887 q 863 853 887 853 z "},"Ḻ":{"ha":689,"x_min":138,"x_max":652,"o":"m 138 0 l 138 1000 l 182 1000 l 182 41 l 652 41 l 652 0 l 138 0 m 197 -256 l 197 -217 l 612 -217 l 612 -256 l 197 -256 z "},"Ł":{"ha":724,"x_min":52,"x_max":688,"o":"m 71 401 l 52 431 l 193 522 l 209 526 l 320 600 l 338 570 l 209 484 l 193 476 l 71 401 m 174 0 l 174 1000 l 217 1000 l 217 41 l 688 41 l 688 0 l 174 0 z "},"M":{"ha":1085,"x_min":138,"x_max":947,"o":"m 138 0 l 138 1000 l 193 1000 l 538 259 l 547 259 l 891 1000 l 947 1000 l 947 0 l 903 0 l 903 730 l 903 917 l 898 917 l 556 186 l 529 186 l 187 917 l 182 917 l 182 730 l 182 0 l 138 0 z "},"Ṃ":{"ha":1085,"x_min":138,"x_max":947,"o":"m 138 0 l 138 1000 l 193 1000 l 538 259 l 547 259 l 891 1000 l 947 1000 l 947 0 l 903 0 l 903 730 l 903 917 l 898 917 l 556 186 l 529 186 l 187 917 l 182 917 l 182 730 l 182 0 l 138 0 m 541 -208 q 500 -191 517 -208 q 483 -149 483 -174 q 500 -108 483 -125 q 541 -91 517 -91 q 583 -108 566 -91 q 600 -149 600 -125 q 583 -191 600 -174 q 541 -208 566 -208 z "},"N":{"ha":972,"x_min":138,"x_max":834,"o":"m 138 0 l 138 1000 l 180 1000 l 666 263 l 785 77 l 791 77 l 791 347 l 791 1000 l 834 1000 l 834 0 l 792 0 l 307 735 l 187 920 l 182 920 l 182 658 l 182 0 l 138 0 z "},"Ǌ":{"ha":1607,"x_min":138,"x_max":1469,"o":"m 138 0 l 138 1000 l 180 1000 l 666 263 l 785 77 l 791 77 l 791 347 l 791 1000 l 834 1000 l 834 0 l 792 0 l 307 735 l 187 920 l 182 920 l 182 658 l 182 0 l 138 0 m 1233 -11 q 1115 21 1165 -11 q 1036 108 1064 53 q 1006 235 1008 163 l 1048 235 q 1100 86 1050 143 q 1233 30 1151 30 q 1329 56 1285 30 q 1399 140 1373 82 q 1426 292 1426 197 l 1426 1000 l 1469 1000 l 1469 294 q 1438 122 1469 189 q 1353 22 1407 54 q 1233 -11 1299 -11 z "},"Ń":{"ha":972,"x_min":138,"x_max":834,"o":"m 138 0 l 138 1000 l 180 1000 l 666 263 l 785 77 l 791 77 l 791 347 l 791 1000 l 834 1000 l 834 0 l 792 0 l 307 735 l 187 920 l 182 920 l 182 658 l 182 0 l 138 0 m 487 1055 l 457 1089 l 648 1275 l 675 1245 l 487 1055 z "},"Ň":{"ha":972,"x_min":138,"x_max":834,"o":"m 138 0 l 138 1000 l 180 1000 l 666 263 l 785 77 l 791 77 l 791 347 l 791 1000 l 834 1000 l 834 0 l 792 0 l 307 735 l 187 920 l 182 920 l 182 658 l 182 0 l 138 0 m 317 1221 l 484 1086 l 494 1086 l 656 1221 l 684 1187 l 502 1044 l 476 1044 l 290 1187 l 317 1221 z "},"Ņ":{"ha":972,"x_min":138,"x_max":834,"o":"m 138 0 l 138 1000 l 180 1000 l 666 263 l 785 77 l 791 77 l 791 347 l 791 1000 l 834 1000 l 834 0 l 792 0 l 307 735 l 187 920 l 182 920 l 182 658 l 182 0 l 138 0 m 425 -330 l 399 -308 l 449 -252 q 473 -222 464 -235 q 486 -199 482 -210 q 488 -178 490 -189 l 507 -175 q 494 -195 501 -187 q 475 -202 486 -202 q 440 -187 456 -202 q 425 -149 425 -172 q 440 -114 425 -127 q 475 -100 456 -100 q 514 -117 500 -100 q 528 -160 528 -134 q 518 -202 528 -181 q 497 -241 509 -224 q 477 -269 486 -259 l 425 -330 z "},"Ṅ":{"ha":972,"x_min":138,"x_max":834,"o":"m 138 0 l 138 1000 l 180 1000 l 666 263 l 785 77 l 791 77 l 791 347 l 791 1000 l 834 1000 l 834 0 l 792 0 l 307 735 l 187 920 l 182 920 l 182 658 l 182 0 l 138 0 m 486 1081 q 444 1098 461 1081 q 427 1139 427 1115 q 444 1181 427 1164 q 486 1198 461 1198 q 527 1181 510 1198 q 544 1139 544 1164 q 527 1098 544 1115 q 486 1081 510 1081 z "},"Ṇ":{"ha":972,"x_min":138,"x_max":834,"o":"m 138 0 l 138 1000 l 180 1000 l 666 263 l 785 77 l 791 77 l 791 347 l 791 1000 l 834 1000 l 834 0 l 792 0 l 307 735 l 187 920 l 182 920 l 182 658 l 182 0 l 138 0 m 476 -208 q 435 -191 452 -208 q 418 -149 418 -174 q 435 -108 418 -125 q 476 -91 452 -91 q 517 -108 500 -91 q 534 -149 534 -125 q 517 -191 534 -174 q 476 -208 500 -208 z "},"ǋ":{"ha":1241,"x_min":138,"x_max":1161,"o":"m 138 0 l 138 1000 l 180 1000 l 666 263 l 785 77 l 791 77 l 791 347 l 791 1000 l 834 1000 l 834 0 l 792 0 l 307 735 l 187 920 l 182 920 l 182 658 l 182 0 l 138 0 m 951 -296 q 925 -294 939 -296 q 898 -290 912 -293 l 898 -250 q 924 -256 911 -254 q 948 -258 937 -258 q 1051 -211 1019 -258 q 1082 -104 1082 -164 l 1082 711 l 1123 711 l 1123 -94 q 1105 -196 1123 -151 q 1048 -269 1086 -242 q 951 -296 1010 -296 m 1103 853 q 1061 870 1078 853 q 1044 911 1044 887 q 1061 953 1044 936 q 1103 970 1078 970 q 1144 953 1127 970 q 1161 911 1161 936 q 1144 870 1161 887 q 1103 853 1127 853 z "},"Ṉ":{"ha":972,"x_min":138,"x_max":834,"o":"m 138 0 l 138 1000 l 180 1000 l 666 263 l 785 77 l 791 77 l 791 347 l 791 1000 l 834 1000 l 834 0 l 792 0 l 307 735 l 187 920 l 182 920 l 182 658 l 182 0 l 138 0 m 267 -256 l 267 -217 l 682 -217 l 682 -256 l 267 -256 z "},"Ñ":{"ha":972,"x_min":138,"x_max":834,"o":"m 138 0 l 138 1000 l 180 1000 l 666 263 l 785 77 l 791 77 l 791 347 l 791 1000 l 834 1000 l 834 0 l 792 0 l 307 735 l 187 920 l 182 920 l 182 658 l 182 0 l 138 0 m 293 1084 q 326 1178 295 1142 q 401 1214 357 1214 q 456 1200 433 1214 q 496 1168 479 1186 q 532 1136 514 1149 q 571 1122 549 1122 q 620 1149 603 1122 q 637 1214 637 1177 l 677 1214 q 649 1121 678 1158 q 571 1084 620 1084 q 520 1097 542 1084 q 479 1128 498 1110 q 441 1159 460 1145 q 399 1172 422 1172 q 354 1148 372 1172 q 336 1084 336 1124 l 293 1084 z "},"Ŋ":{"ha":972,"x_min":138,"x_max":834,"o":"m 665 -297 q 608 -291 640 -297 q 548 -273 576 -285 l 548 -229 q 610 -251 588 -248 q 656 -256 632 -255 q 762 -211 731 -258 q 793 -103 793 -164 l 793 27 l 834 27 l 834 -95 q 814 -203 834 -157 q 755 -273 793 -248 q 665 -297 718 -297 m 138 0 l 138 1000 l 180 1000 l 666 263 l 785 77 l 791 77 l 791 347 l 791 1000 l 834 1000 l 834 0 l 792 0 l 307 735 l 187 920 l 182 920 l 182 658 l 182 0 l 138 0 z "},"O":{"ha":1116,"x_min":83,"x_max":1034,"o":"m 556 -11 q 370 28 456 -11 q 219 136 283 66 q 119 298 155 205 q 83 500 83 391 q 119 703 83 610 q 219 865 155 795 q 370 972 283 934 q 556 1010 456 1010 q 745 972 658 1010 q 897 865 831 934 q 998 703 962 795 q 1034 500 1034 610 q 998 298 1034 391 q 897 136 962 205 q 745 28 831 66 q 556 -11 658 -11 m 556 30 q 727 65 648 30 q 865 163 806 100 q 957 312 924 227 q 990 500 990 398 q 957 687 990 602 q 865 837 924 773 q 727 935 806 900 q 556 970 648 970 q 388 935 466 970 q 251 837 310 900 q 159 687 192 773 q 126 500 126 602 q 159 312 126 398 q 251 163 192 227 q 388 65 310 100 q 556 30 466 30 z "},"Ó":{"ha":1116,"x_min":83,"x_max":1034,"o":"m 556 -11 q 370 28 456 -11 q 219 136 283 66 q 119 298 155 205 q 83 500 83 391 q 119 703 83 610 q 219 865 155 795 q 370 972 283 934 q 556 1010 456 1010 q 745 972 658 1010 q 897 865 831 934 q 998 703 962 795 q 1034 500 1034 610 q 998 298 1034 391 q 897 136 962 205 q 745 28 831 66 q 556 -11 658 -11 m 556 30 q 727 65 648 30 q 865 163 806 100 q 957 312 924 227 q 990 500 990 398 q 957 687 990 602 q 865 837 924 773 q 727 935 806 900 q 556 970 648 970 q 388 935 466 970 q 251 837 310 900 q 159 687 192 773 q 126 500 126 602 q 159 312 126 398 q 251 163 192 227 q 388 65 310 100 q 556 30 466 30 m 556 1055 l 526 1089 l 718 1275 l 745 1245 l 556 1055 z "},"Ŏ":{"ha":1116,"x_min":83,"x_max":1034,"o":"m 556 -11 q 370 28 456 -11 q 219 136 283 66 q 119 298 155 205 q 83 500 83 391 q 119 703 83 610 q 219 865 155 795 q 370 972 283 934 q 556 1010 456 1010 q 745 972 658 1010 q 897 865 831 934 q 998 703 962 795 q 1034 500 1034 610 q 998 298 1034 391 q 897 136 962 205 q 745 28 831 66 q 556 -11 658 -11 m 556 30 q 727 65 648 30 q 865 163 806 100 q 957 312 924 227 q 990 500 990 398 q 957 687 990 602 q 865 837 924 773 q 727 935 806 900 q 556 970 648 970 q 388 935 466 970 q 251 837 310 900 q 159 687 192 773 q 126 500 126 602 q 159 312 126 398 q 251 163 192 227 q 388 65 310 100 q 556 30 466 30 m 556 1055 q 460 1077 503 1055 q 392 1134 417 1098 q 368 1214 368 1170 l 406 1214 q 448 1129 406 1162 q 556 1096 491 1096 q 666 1129 623 1096 q 709 1214 709 1162 l 747 1214 q 724 1134 749 1170 q 655 1077 699 1098 q 556 1055 611 1055 z "},"Ô":{"ha":1116,"x_min":83,"x_max":1034,"o":"m 556 -11 q 370 28 456 -11 q 219 136 283 66 q 119 298 155 205 q 83 500 83 391 q 119 703 83 610 q 219 865 155 795 q 370 972 283 934 q 556 1010 456 1010 q 745 972 658 1010 q 897 865 831 934 q 998 703 962 795 q 1034 500 1034 610 q 998 298 1034 391 q 897 136 962 205 q 745 28 831 66 q 556 -11 658 -11 m 556 30 q 727 65 648 30 q 865 163 806 100 q 957 312 924 227 q 990 500 990 398 q 957 687 990 602 q 865 837 924 773 q 727 935 806 900 q 556 970 648 970 q 388 935 466 970 q 251 837 310 900 q 159 687 192 773 q 126 500 126 602 q 159 312 126 398 q 251 163 192 227 q 388 65 310 100 q 556 30 466 30 m 389 1055 l 362 1089 l 548 1232 l 574 1232 l 755 1089 l 728 1055 l 566 1190 l 556 1190 l 389 1055 z "},"Ố":{"ha":1116,"x_min":83,"x_max":1034,"o":"m 556 -11 q 370 28 456 -11 q 219 136 283 66 q 119 298 155 205 q 83 500 83 391 q 119 703 83 610 q 219 865 155 795 q 370 972 283 934 q 556 1010 456 1010 q 745 972 658 1010 q 897 865 831 934 q 998 703 962 795 q 1034 500 1034 610 q 998 298 1034 391 q 897 136 962 205 q 745 28 831 66 q 556 -11 658 -11 m 556 30 q 727 65 648 30 q 865 163 806 100 q 957 312 924 227 q 990 500 990 398 q 957 687 990 602 q 865 837 924 773 q 727 935 806 900 q 556 970 648 970 q 388 935 466 970 q 251 837 310 900 q 159 687 192 773 q 126 500 126 602 q 159 312 126 398 q 251 163 192 227 q 388 65 310 100 q 556 30 466 30 m 719 1175 l 689 1206 l 864 1379 l 898 1347 l 719 1175 m 391 1047 l 363 1078 l 549 1225 l 575 1225 l 757 1078 l 730 1047 l 567 1177 l 557 1177 l 391 1047 z "},"Ộ":{"ha":1116,"x_min":83,"x_max":1034,"o":"m 556 -11 q 370 28 456 -11 q 219 136 283 66 q 119 298 155 205 q 83 500 83 391 q 119 703 83 610 q 219 865 155 795 q 370 972 283 934 q 556 1010 456 1010 q 745 972 658 1010 q 897 865 831 934 q 998 703 962 795 q 1034 500 1034 610 q 998 298 1034 391 q 897 136 962 205 q 745 28 831 66 q 556 -11 658 -11 m 556 30 q 727 65 648 30 q 865 163 806 100 q 957 312 924 227 q 990 500 990 398 q 957 687 990 602 q 865 837 924 773 q 727 935 806 900 q 556 970 648 970 q 388 935 466 970 q 251 837 310 900 q 159 687 192 773 q 126 500 126 602 q 159 312 126 398 q 251 163 192 227 q 388 65 310 100 q 556 30 466 30 m 555 -208 q 513 -191 530 -208 q 496 -149 496 -174 q 513 -108 496 -125 q 555 -91 530 -91 q 596 -108 579 -91 q 613 -149 613 -125 q 596 -191 613 -174 q 555 -208 579 -208 m 389 1055 l 362 1089 l 548 1232 l 574 1232 l 755 1089 l 728 1055 l 566 1190 l 556 1190 l 389 1055 z "},"Ồ":{"ha":1116,"x_min":83,"x_max":1034,"o":"m 556 -11 q 370 28 456 -11 q 219 136 283 66 q 119 298 155 205 q 83 500 83 391 q 119 703 83 610 q 219 865 155 795 q 370 972 283 934 q 556 1010 456 1010 q 745 972 658 1010 q 897 865 831 934 q 998 703 962 795 q 1034 500 1034 610 q 998 298 1034 391 q 897 136 962 205 q 745 28 831 66 q 556 -11 658 -11 m 556 30 q 727 65 648 30 q 865 163 806 100 q 957 312 924 227 q 990 500 990 398 q 957 687 990 602 q 865 837 924 773 q 727 935 806 900 q 556 970 648 970 q 388 935 466 970 q 251 837 310 900 q 159 687 192 773 q 126 500 126 602 q 159 312 126 398 q 251 163 192 227 q 388 65 310 100 q 556 30 466 30 m 393 1175 l 214 1347 l 248 1379 l 423 1206 l 393 1175 m 722 1047 l 555 1177 l 545 1177 l 382 1047 l 355 1078 l 537 1225 l 563 1225 l 749 1078 l 722 1047 z "},"Ổ":{"ha":1116,"x_min":83,"x_max":1034,"o":"m 556 -11 q 370 28 456 -11 q 219 136 283 66 q 119 298 155 205 q 83 500 83 391 q 119 703 83 610 q 219 865 155 795 q 370 972 283 934 q 556 1010 456 1010 q 745 972 658 1010 q 897 865 831 934 q 998 703 962 795 q 1034 500 1034 610 q 998 298 1034 391 q 897 136 962 205 q 745 28 831 66 q 556 -11 658 -11 m 556 30 q 727 65 648 30 q 865 163 806 100 q 957 312 924 227 q 990 500 990 398 q 957 687 990 602 q 865 837 924 773 q 727 935 806 900 q 556 970 648 970 q 388 935 466 970 q 251 837 310 900 q 159 687 192 773 q 126 500 126 602 q 159 312 126 398 q 251 163 192 227 q 388 65 310 100 q 556 30 466 30 m 709 1169 l 678 1195 q 717 1238 700 1213 q 734 1286 734 1263 q 715 1328 734 1312 q 662 1344 696 1344 q 623 1340 646 1344 q 585 1331 601 1337 l 585 1369 q 622 1378 601 1375 q 662 1382 643 1382 q 745 1357 715 1382 q 776 1289 776 1333 q 766 1245 776 1267 q 740 1202 755 1222 q 709 1169 725 1182 m 389 1047 l 362 1078 l 548 1225 l 574 1225 l 755 1078 l 728 1047 l 566 1177 l 556 1177 l 389 1047 z "},"Ỗ":{"ha":1116,"x_min":83,"x_max":1034,"o":"m 556 -11 q 370 28 456 -11 q 219 136 283 66 q 119 298 155 205 q 83 500 83 391 q 119 703 83 610 q 219 865 155 795 q 370 972 283 934 q 556 1010 456 1010 q 745 972 658 1010 q 897 865 831 934 q 998 703 962 795 q 1034 500 1034 610 q 998 298 1034 391 q 897 136 962 205 q 745 28 831 66 q 556 -11 658 -11 m 556 30 q 727 65 648 30 q 865 163 806 100 q 957 312 924 227 q 990 500 990 398 q 957 687 990 602 q 865 837 924 773 q 727 935 806 900 q 556 970 648 970 q 388 935 466 970 q 251 837 310 900 q 159 687 192 773 q 126 500 126 602 q 159 312 126 398 q 251 163 192 227 q 388 65 310 100 q 556 30 466 30 m 365 1270 q 395 1358 365 1328 q 473 1388 426 1388 q 527 1376 505 1388 q 567 1349 549 1364 q 601 1322 584 1333 q 640 1310 618 1310 q 689 1330 671 1310 q 707 1388 707 1350 l 747 1388 q 734 1323 749 1350 q 695 1283 720 1297 q 639 1270 670 1270 q 589 1282 610 1270 q 548 1310 567 1294 q 511 1337 530 1325 q 469 1350 492 1350 q 425 1331 444 1350 q 406 1270 406 1312 l 365 1270 m 387 1047 l 359 1078 l 545 1225 l 571 1225 l 753 1078 l 726 1047 l 563 1177 l 553 1177 l 387 1047 z "},"Ȍ":{"ha":1116,"x_min":83,"x_max":1034,"o":"m 556 -11 q 370 28 456 -11 q 219 136 283 66 q 119 298 155 205 q 83 500 83 391 q 119 703 83 610 q 219 865 155 795 q 370 972 283 934 q 556 1010 456 1010 q 745 972 658 1010 q 897 865 831 934 q 998 703 962 795 q 1034 500 1034 610 q 998 298 1034 391 q 897 136 962 205 q 745 28 831 66 q 556 -11 658 -11 m 556 30 q 727 65 648 30 q 865 163 806 100 q 957 312 924 227 q 990 500 990 398 q 957 687 990 602 q 865 837 924 773 q 727 935 806 900 q 556 970 648 970 q 388 935 466 970 q 251 837 310 900 q 159 687 192 773 q 126 500 126 602 q 159 312 126 398 q 251 163 192 227 q 388 65 310 100 q 556 30 466 30 m 441 1086 l 307 1299 l 347 1322 l 469 1100 l 441 1086 m 631 1086 l 505 1299 l 545 1322 l 665 1100 l 631 1086 z "},"Ö":{"ha":1116,"x_min":83,"x_max":1034,"o":"m 556 -11 q 370 28 456 -11 q 219 136 283 66 q 119 298 155 205 q 83 500 83 391 q 119 703 83 610 q 219 865 155 795 q 370 972 283 934 q 556 1010 456 1010 q 745 972 658 1010 q 897 865 831 934 q 998 703 962 795 q 1034 500 1034 610 q 998 298 1034 391 q 897 136 962 205 q 745 28 831 66 q 556 -11 658 -11 m 556 30 q 727 65 648 30 q 865 163 806 100 q 957 312 924 227 q 990 500 990 398 q 957 687 990 602 q 865 837 924 773 q 727 935 806 900 q 556 970 648 970 q 388 935 466 970 q 251 837 310 900 q 159 687 192 773 q 126 500 126 602 q 159 312 126 398 q 251 163 192 227 q 388 65 310 100 q 556 30 466 30 m 692 1085 q 651 1102 668 1085 q 635 1142 635 1118 q 651 1182 635 1166 q 692 1199 668 1199 q 732 1182 715 1199 q 749 1142 749 1166 q 732 1102 749 1118 q 692 1085 715 1085 m 426 1085 q 386 1102 402 1085 q 369 1142 369 1118 q 386 1182 369 1166 q 426 1199 402 1199 q 466 1182 450 1199 q 483 1142 483 1166 q 466 1102 483 1118 q 426 1085 450 1085 z "},"Ȫ":{"ha":1116,"x_min":83,"x_max":1034,"o":"m 556 -11 q 370 28 456 -11 q 219 136 283 66 q 119 298 155 205 q 83 500 83 391 q 119 703 83 610 q 219 865 155 795 q 370 972 283 934 q 556 1010 456 1010 q 745 972 658 1010 q 897 865 831 934 q 998 703 962 795 q 1034 500 1034 610 q 998 298 1034 391 q 897 136 962 205 q 745 28 831 66 q 556 -11 658 -11 m 556 30 q 727 65 648 30 q 865 163 806 100 q 957 312 924 227 q 990 500 990 398 q 957 687 990 602 q 865 837 924 773 q 727 935 806 900 q 556 970 648 970 q 388 935 466 970 q 251 837 310 900 q 159 687 192 773 q 126 500 126 602 q 159 312 126 398 q 251 163 192 227 q 388 65 310 100 q 556 30 466 30 m 692 1085 q 651 1102 668 1085 q 635 1142 635 1118 q 651 1182 635 1166 q 692 1199 668 1199 q 732 1182 715 1199 q 749 1142 749 1166 q 732 1102 749 1118 q 692 1085 715 1085 m 426 1085 q 386 1102 402 1085 q 369 1142 369 1118 q 386 1182 369 1166 q 426 1199 402 1199 q 466 1182 450 1199 q 483 1142 483 1166 q 466 1102 483 1118 q 426 1085 450 1085 m 328 1270 l 328 1312 l 783 1312 l 783 1270 l 328 1270 z "},"Ȱ":{"ha":1116,"x_min":83,"x_max":1034,"o":"m 556 -11 q 370 28 456 -11 q 219 136 283 66 q 119 298 155 205 q 83 500 83 391 q 119 703 83 610 q 219 865 155 795 q 370 972 283 934 q 556 1010 456 1010 q 745 972 658 1010 q 897 865 831 934 q 998 703 962 795 q 1034 500 1034 610 q 998 298 1034 391 q 897 136 962 205 q 745 28 831 66 q 556 -11 658 -11 m 556 30 q 727 65 648 30 q 865 163 806 100 q 957 312 924 227 q 990 500 990 398 q 957 687 990 602 q 865 837 924 773 q 727 935 806 900 q 556 970 648 970 q 388 935 466 970 q 251 837 310 900 q 159 687 192 773 q 126 500 126 602 q 159 312 126 398 q 251 163 192 227 q 388 65 310 100 q 556 30 466 30 m 555 1081 q 513 1098 530 1081 q 496 1139 496 1115 q 513 1181 496 1164 q 555 1198 530 1198 q 596 1181 579 1198 q 613 1139 613 1164 q 596 1098 613 1115 q 555 1081 579 1081 m 328 1263 l 328 1305 l 783 1305 l 783 1263 l 328 1263 z "},"Ọ":{"ha":1116,"x_min":83,"x_max":1034,"o":"m 556 -11 q 370 28 456 -11 q 219 136 283 66 q 119 298 155 205 q 83 500 83 391 q 119 703 83 610 q 219 865 155 795 q 370 972 283 934 q 556 1010 456 1010 q 745 972 658 1010 q 897 865 831 934 q 998 703 962 795 q 1034 500 1034 610 q 998 298 1034 391 q 897 136 962 205 q 745 28 831 66 q 556 -11 658 -11 m 556 30 q 727 65 648 30 q 865 163 806 100 q 957 312 924 227 q 990 500 990 398 q 957 687 990 602 q 865 837 924 773 q 727 935 806 900 q 556 970 648 970 q 388 935 466 970 q 251 837 310 900 q 159 687 192 773 q 126 500 126 602 q 159 312 126 398 q 251 163 192 227 q 388 65 310 100 q 556 30 466 30 m 556 -208 q 515 -191 532 -208 q 498 -149 498 -174 q 515 -108 498 -125 q 556 -91 532 -91 q 597 -108 581 -91 q 614 -149 614 -125 q 597 -191 614 -174 q 556 -208 581 -208 z "},"Ò":{"ha":1116,"x_min":83,"x_max":1034,"o":"m 556 -11 q 370 28 456 -11 q 219 136 283 66 q 119 298 155 205 q 83 500 83 391 q 119 703 83 610 q 219 865 155 795 q 370 972 283 934 q 556 1010 456 1010 q 745 972 658 1010 q 897 865 831 934 q 998 703 962 795 q 1034 500 1034 610 q 998 298 1034 391 q 897 136 962 205 q 745 28 831 66 q 556 -11 658 -11 m 556 30 q 727 65 648 30 q 865 163 806 100 q 957 312 924 227 q 990 500 990 398 q 957 687 990 602 q 865 837 924 773 q 727 935 806 900 q 556 970 648 970 q 388 935 466 970 q 251 837 310 900 q 159 687 192 773 q 126 500 126 602 q 159 312 126 398 q 251 163 192 227 q 388 65 310 100 q 556 30 466 30 m 556 1055 l 368 1245 l 395 1275 l 586 1089 l 556 1055 z "},"Ỏ":{"ha":1116,"x_min":83,"x_max":1034,"o":"m 556 -11 q 370 28 456 -11 q 219 136 283 66 q 119 298 155 205 q 83 500 83 391 q 119 703 83 610 q 219 865 155 795 q 370 972 283 934 q 556 1010 456 1010 q 745 972 658 1010 q 897 865 831 934 q 998 703 962 795 q 1034 500 1034 610 q 998 298 1034 391 q 897 136 962 205 q 745 28 831 66 q 556 -11 658 -11 m 556 30 q 727 65 648 30 q 865 163 806 100 q 957 312 924 227 q 990 500 990 398 q 957 687 990 602 q 865 837 924 773 q 727 935 806 900 q 556 970 648 970 q 388 935 466 970 q 251 837 310 900 q 159 687 192 773 q 126 500 126 602 q 159 312 126 398 q 251 163 192 227 q 388 65 310 100 q 556 30 466 30 m 572 1097 l 547 1127 q 595 1166 576 1143 q 614 1214 614 1190 q 595 1257 614 1242 q 541 1272 575 1272 q 502 1269 522 1272 q 464 1259 481 1265 l 464 1299 q 504 1309 482 1307 q 538 1312 526 1312 q 622 1285 593 1312 q 651 1217 651 1259 q 630 1148 651 1182 q 572 1097 608 1115 z "},"Ơ":{"ha":1116,"x_min":83,"x_max":1034,"o":"m 556 -11 q 370 28 456 -11 q 219 136 283 66 q 119 298 155 205 q 83 500 83 391 q 119 703 83 610 q 219 865 155 795 q 370 972 283 934 q 556 1010 456 1010 q 745 972 658 1010 q 897 865 831 934 q 998 703 962 795 q 1034 500 1034 610 q 998 298 1034 391 q 897 136 962 205 q 745 28 831 66 q 556 -11 658 -11 m 556 30 q 727 65 648 30 q 865 163 806 100 q 957 312 924 227 q 990 500 990 398 q 957 687 990 602 q 865 837 924 773 q 727 935 806 900 q 556 970 648 970 q 388 935 466 970 q 251 837 310 900 q 159 687 192 773 q 126 500 126 602 q 159 312 126 398 q 251 163 192 227 q 388 65 310 100 q 556 30 466 30 m 777 922 l 777 956 q 895 997 848 958 q 941 1109 941 1036 q 940 1146 941 1128 q 936 1173 938 1164 l 981 1179 q 986 1146 984 1168 q 987 1104 987 1124 q 959 1001 987 1042 q 882 941 930 960 q 777 922 834 921 z "},"Ớ":{"ha":1116,"x_min":83,"x_max":1034,"o":"m 556 -11 q 370 28 456 -11 q 219 136 283 66 q 119 298 155 205 q 83 500 83 391 q 119 703 83 610 q 219 865 155 795 q 370 972 283 934 q 556 1010 456 1010 q 745 972 658 1010 q 897 865 831 934 q 998 703 962 795 q 1034 500 1034 610 q 998 298 1034 391 q 897 136 962 205 q 745 28 831 66 q 556 -11 658 -11 m 556 30 q 727 65 648 30 q 865 163 806 100 q 957 312 924 227 q 990 500 990 398 q 957 687 990 602 q 865 837 924 773 q 727 935 806 900 q 556 970 648 970 q 388 935 466 970 q 251 837 310 900 q 159 687 192 773 q 126 500 126 602 q 159 312 126 398 q 251 163 192 227 q 388 65 310 100 q 556 30 466 30 m 777 922 l 777 956 q 895 997 848 958 q 941 1109 941 1036 q 940 1146 941 1128 q 936 1173 938 1164 l 981 1179 q 986 1146 984 1168 q 987 1104 987 1124 q 959 1001 987 1042 q 882 941 930 960 q 777 922 834 921 m 556 1055 l 526 1089 l 718 1275 l 745 1245 l 556 1055 z "},"Ợ":{"ha":1116,"x_min":83,"x_max":1034,"o":"m 556 -11 q 370 28 456 -11 q 219 136 283 66 q 119 298 155 205 q 83 500 83 391 q 119 703 83 610 q 219 865 155 795 q 370 972 283 934 q 556 1010 456 1010 q 745 972 658 1010 q 897 865 831 934 q 998 703 962 795 q 1034 500 1034 610 q 998 298 1034 391 q 897 136 962 205 q 745 28 831 66 q 556 -11 658 -11 m 556 30 q 727 65 648 30 q 865 163 806 100 q 957 312 924 227 q 990 500 990 398 q 957 687 990 602 q 865 837 924 773 q 727 935 806 900 q 556 970 648 970 q 388 935 466 970 q 251 837 310 900 q 159 687 192 773 q 126 500 126 602 q 159 312 126 398 q 251 163 192 227 q 388 65 310 100 q 556 30 466 30 m 777 922 l 777 956 q 895 997 848 958 q 941 1109 941 1036 q 940 1146 941 1128 q 936 1173 938 1164 l 981 1179 q 986 1146 984 1168 q 987 1104 987 1124 q 959 1001 987 1042 q 882 941 930 960 q 777 922 834 921 m 555 -208 q 513 -191 530 -208 q 496 -149 496 -174 q 513 -108 496 -125 q 555 -91 530 -91 q 596 -108 579 -91 q 613 -149 613 -125 q 596 -191 613 -174 q 555 -208 579 -208 z "},"Ờ":{"ha":1116,"x_min":83,"x_max":1034,"o":"m 556 -11 q 370 28 456 -11 q 219 136 283 66 q 119 298 155 205 q 83 500 83 391 q 119 703 83 610 q 219 865 155 795 q 370 972 283 934 q 556 1010 456 1010 q 745 972 658 1010 q 897 865 831 934 q 998 703 962 795 q 1034 500 1034 610 q 998 298 1034 391 q 897 136 962 205 q 745 28 831 66 q 556 -11 658 -11 m 556 30 q 727 65 648 30 q 865 163 806 100 q 957 312 924 227 q 990 500 990 398 q 957 687 990 602 q 865 837 924 773 q 727 935 806 900 q 556 970 648 970 q 388 935 466 970 q 251 837 310 900 q 159 687 192 773 q 126 500 126 602 q 159 312 126 398 q 251 163 192 227 q 388 65 310 100 q 556 30 466 30 m 777 922 l 777 956 q 895 997 848 958 q 941 1109 941 1036 q 940 1146 941 1128 q 936 1173 938 1164 l 981 1179 q 986 1146 984 1168 q 987 1104 987 1124 q 959 1001 987 1042 q 882 941 930 960 q 777 922 834 921 m 556 1055 l 368 1245 l 395 1275 l 586 1089 l 556 1055 z "},"Ở":{"ha":1116,"x_min":83,"x_max":1034,"o":"m 556 -11 q 370 28 456 -11 q 219 136 283 66 q 119 298 155 205 q 83 500 83 391 q 119 703 83 610 q 219 865 155 795 q 370 972 283 934 q 556 1010 456 1010 q 745 972 658 1010 q 897 865 831 934 q 998 703 962 795 q 1034 500 1034 610 q 998 298 1034 391 q 897 136 962 205 q 745 28 831 66 q 556 -11 658 -11 m 556 30 q 727 65 648 30 q 865 163 806 100 q 957 312 924 227 q 990 500 990 398 q 957 687 990 602 q 865 837 924 773 q 727 935 806 900 q 556 970 648 970 q 388 935 466 970 q 251 837 310 900 q 159 687 192 773 q 126 500 126 602 q 159 312 126 398 q 251 163 192 227 q 388 65 310 100 q 556 30 466 30 m 777 922 l 777 956 q 895 997 848 958 q 941 1109 941 1036 q 940 1146 941 1128 q 936 1173 938 1164 l 981 1179 q 986 1146 984 1168 q 987 1104 987 1124 q 959 1001 987 1042 q 882 941 930 960 q 777 922 834 921 m 572 1097 l 547 1127 q 595 1166 576 1143 q 614 1214 614 1190 q 595 1257 614 1242 q 541 1272 575 1272 q 502 1269 522 1272 q 464 1259 481 1265 l 464 1299 q 504 1309 482 1307 q 538 1312 526 1312 q 622 1285 593 1312 q 651 1217 651 1259 q 630 1148 651 1182 q 572 1097 608 1115 z "},"Ỡ":{"ha":1116,"x_min":83,"x_max":1034,"o":"m 556 -11 q 370 28 456 -11 q 219 136 283 66 q 119 298 155 205 q 83 500 83 391 q 119 703 83 610 q 219 865 155 795 q 370 972 283 934 q 556 1010 456 1010 q 745 972 658 1010 q 897 865 831 934 q 998 703 962 795 q 1034 500 1034 610 q 998 298 1034 391 q 897 136 962 205 q 745 28 831 66 q 556 -11 658 -11 m 556 30 q 727 65 648 30 q 865 163 806 100 q 957 312 924 227 q 990 500 990 398 q 957 687 990 602 q 865 837 924 773 q 727 935 806 900 q 556 970 648 970 q 388 935 466 970 q 251 837 310 900 q 159 687 192 773 q 126 500 126 602 q 159 312 126 398 q 251 163 192 227 q 388 65 310 100 q 556 30 466 30 m 777 922 l 777 956 q 895 997 848 958 q 941 1109 941 1036 q 940 1146 941 1128 q 936 1173 938 1164 l 981 1179 q 986 1146 984 1168 q 987 1104 987 1124 q 959 1001 987 1042 q 882 941 930 960 q 777 922 834 921 m 362 1084 q 395 1178 364 1142 q 471 1214 426 1214 q 525 1200 503 1214 q 566 1168 548 1186 q 601 1136 583 1149 q 640 1122 618 1122 q 689 1149 672 1122 q 707 1214 707 1177 l 746 1214 q 718 1121 747 1158 q 640 1084 689 1084 q 589 1097 611 1084 q 548 1128 567 1110 q 511 1159 530 1145 q 468 1172 492 1172 q 423 1148 441 1172 q 406 1084 406 1124 l 362 1084 z "},"Ő":{"ha":1116,"x_min":83,"x_max":1034,"o":"m 556 -11 q 370 28 456 -11 q 219 136 283 66 q 119 298 155 205 q 83 500 83 391 q 119 703 83 610 q 219 865 155 795 q 370 972 283 934 q 556 1010 456 1010 q 745 972 658 1010 q 897 865 831 934 q 998 703 962 795 q 1034 500 1034 610 q 998 298 1034 391 q 897 136 962 205 q 745 28 831 66 q 556 -11 658 -11 m 556 30 q 727 65 648 30 q 865 163 806 100 q 957 312 924 227 q 990 500 990 398 q 957 687 990 602 q 865 837 924 773 q 727 935 806 900 q 556 970 648 970 q 388 935 466 970 q 251 837 310 900 q 159 687 192 773 q 126 500 126 602 q 159 312 126 398 q 251 163 192 227 q 388 65 310 100 q 556 30 466 30 m 480 1086 l 449 1100 l 572 1322 l 609 1299 l 480 1086 m 673 1086 l 647 1100 l 765 1322 l 804 1299 l 673 1086 z "},"Ȏ":{"ha":1116,"x_min":83,"x_max":1034,"o":"m 556 -11 q 370 28 456 -11 q 219 136 283 66 q 119 298 155 205 q 83 500 83 391 q 119 703 83 610 q 219 865 155 795 q 370 972 283 934 q 556 1010 456 1010 q 745 972 658 1010 q 897 865 831 934 q 998 703 962 795 q 1034 500 1034 610 q 998 298 1034 391 q 897 136 962 205 q 745 28 831 66 q 556 -11 658 -11 m 556 30 q 727 65 648 30 q 865 163 806 100 q 957 312 924 227 q 990 500 990 398 q 957 687 990 602 q 865 837 924 773 q 727 935 806 900 q 556 970 648 970 q 388 935 466 970 q 251 837 310 900 q 159 687 192 773 q 126 500 126 602 q 159 312 126 398 q 251 163 192 227 q 388 65 310 100 q 556 30 466 30 m 556 1222 q 655 1201 611 1222 q 724 1143 699 1179 q 747 1063 749 1107 l 709 1063 q 666 1148 709 1116 q 556 1181 623 1181 q 448 1148 491 1181 q 406 1063 406 1116 l 368 1063 q 392 1143 368 1107 q 460 1201 417 1179 q 556 1222 503 1222 z "},"Ō":{"ha":1116,"x_min":83,"x_max":1034,"o":"m 556 -11 q 370 28 456 -11 q 219 136 283 66 q 119 298 155 205 q 83 500 83 391 q 119 703 83 610 q 219 865 155 795 q 370 972 283 934 q 556 1010 456 1010 q 745 972 658 1010 q 897 865 831 934 q 998 703 962 795 q 1034 500 1034 610 q 998 298 1034 391 q 897 136 962 205 q 745 28 831 66 q 556 -11 658 -11 m 556 30 q 727 65 648 30 q 865 163 806 100 q 957 312 924 227 q 990 500 990 398 q 957 687 990 602 q 865 837 924 773 q 727 935 806 900 q 556 970 648 970 q 388 935 466 970 q 251 837 310 900 q 159 687 192 773 q 126 500 126 602 q 159 312 126 398 q 251 163 192 227 q 388 65 310 100 q 556 30 466 30 m 328 1122 l 328 1164 l 783 1164 l 783 1122 l 328 1122 z "},"Ṓ":{"ha":1116,"x_min":83,"x_max":1034,"o":"m 357 1122 l 357 1164 l 811 1164 l 811 1122 l 357 1122 m 585 1219 l 555 1253 l 746 1439 l 773 1409 l 585 1219 m 556 -11 q 370 28 456 -11 q 219 136 283 66 q 119 298 155 205 q 83 500 83 391 q 119 703 83 610 q 219 865 155 795 q 370 972 283 934 q 556 1010 456 1010 q 745 972 658 1010 q 897 865 831 934 q 998 703 962 795 q 1034 500 1034 610 q 998 298 1034 391 q 897 136 962 205 q 745 28 831 66 q 556 -11 658 -11 m 556 30 q 727 65 648 30 q 865 163 806 100 q 957 312 924 227 q 990 500 990 398 q 957 687 990 602 q 865 837 924 773 q 727 935 806 900 q 556 970 648 970 q 388 935 466 970 q 251 837 310 900 q 159 687 192 773 q 126 500 126 602 q 159 312 126 398 q 251 163 192 227 q 388 65 310 100 q 556 30 466 30 z "},"Ṑ":{"ha":1116,"x_min":83,"x_max":1034,"o":"m 556 -11 q 370 28 456 -11 q 219 136 283 66 q 119 298 155 205 q 83 500 83 391 q 119 703 83 610 q 219 865 155 795 q 370 972 283 934 q 556 1010 456 1010 q 745 972 658 1010 q 897 865 831 934 q 998 703 962 795 q 1034 500 1034 610 q 998 298 1034 391 q 897 136 962 205 q 745 28 831 66 q 556 -11 658 -11 m 556 30 q 727 65 648 30 q 865 163 806 100 q 957 312 924 227 q 990 500 990 398 q 957 687 990 602 q 865 837 924 773 q 727 935 806 900 q 556 970 648 970 q 388 935 466 970 q 251 837 310 900 q 159 687 192 773 q 126 500 126 602 q 159 312 126 398 q 251 163 192 227 q 388 65 310 100 q 556 30 466 30 m 328 1122 l 328 1164 l 783 1164 l 783 1122 l 328 1122 m 556 1219 l 368 1409 l 395 1439 l 586 1253 l 556 1219 z "},"Ǫ":{"ha":1116,"x_min":83,"x_max":1034,"o":"m 556 -11 q 370 28 456 -11 q 219 136 283 66 q 119 298 155 205 q 83 500 83 391 q 119 703 83 610 q 219 865 155 795 q 370 972 283 934 q 556 1010 456 1010 q 745 972 658 1010 q 897 865 831 934 q 998 703 962 795 q 1034 500 1034 610 q 998 298 1034 391 q 897 136 962 205 q 745 28 831 66 q 556 -11 658 -11 m 556 30 q 727 65 648 30 q 865 163 806 100 q 957 312 924 227 q 990 500 990 398 q 957 687 990 602 q 865 837 924 773 q 727 935 806 900 q 556 970 648 970 q 388 935 466 970 q 251 837 310 900 q 159 687 192 773 q 126 500 126 602 q 159 312 126 398 q 251 163 192 227 q 388 65 310 100 q 556 30 466 30 m 587 -264 q 520 -236 546 -264 q 494 -164 494 -208 q 533 -67 494 -110 q 616 16 572 -25 l 647 0 q 595 -55 623 -29 q 549 -108 568 -81 q 530 -164 530 -134 q 550 -209 530 -193 q 594 -225 569 -225 q 642 -215 620 -225 q 678 -194 663 -204 l 678 -236 q 637 -256 663 -248 q 587 -264 612 -264 z "},"Ø":{"ha":1116,"x_min":81,"x_max":1036,"o":"m 556 -11 q 370 28 456 -11 q 219 136 283 66 q 119 298 155 205 q 83 500 83 391 q 119 703 83 610 q 219 865 155 795 q 370 972 283 934 q 556 1010 456 1010 q 745 972 658 1010 q 897 865 831 934 q 998 703 962 795 q 1034 500 1034 610 q 998 298 1034 391 q 897 136 962 205 q 745 28 831 66 q 556 -11 658 -11 m 556 30 q 727 65 648 30 q 865 163 806 100 q 957 312 924 227 q 990 500 990 398 q 957 687 990 602 q 865 837 924 773 q 727 935 806 900 q 556 970 648 970 q 388 935 466 970 q 251 837 310 900 q 159 687 192 773 q 126 500 126 602 q 159 312 126 398 q 251 163 192 227 q 388 65 310 100 q 556 30 466 30 m 81 0 l 985 1000 l 1036 1000 l 133 0 l 81 0 z "},"Ǿ":{"ha":1116,"x_min":81,"x_max":1036,"o":"m 556 -11 q 370 28 456 -11 q 219 136 283 66 q 119 298 155 205 q 83 500 83 391 q 119 703 83 610 q 219 865 155 795 q 370 972 283 934 q 556 1010 456 1010 q 745 972 658 1010 q 897 865 831 934 q 998 703 962 795 q 1034 500 1034 610 q 998 298 1034 391 q 897 136 962 205 q 745 28 831 66 q 556 -11 658 -11 m 556 30 q 727 65 648 30 q 865 163 806 100 q 957 312 924 227 q 990 500 990 398 q 957 687 990 602 q 865 837 924 773 q 727 935 806 900 q 556 970 648 970 q 388 935 466 970 q 251 837 310 900 q 159 687 192 773 q 126 500 126 602 q 159 312 126 398 q 251 163 192 227 q 388 65 310 100 q 556 30 466 30 m 81 0 l 985 1000 l 1036 1000 l 133 0 l 81 0 m 556 1055 l 526 1089 l 718 1275 l 745 1245 l 556 1055 z "},"Õ":{"ha":1116,"x_min":83,"x_max":1034,"o":"m 556 -11 q 370 28 456 -11 q 219 136 283 66 q 119 298 155 205 q 83 500 83 391 q 119 703 83 610 q 219 865 155 795 q 370 972 283 934 q 556 1010 456 1010 q 745 972 658 1010 q 897 865 831 934 q 998 703 962 795 q 1034 500 1034 610 q 998 298 1034 391 q 897 136 962 205 q 745 28 831 66 q 556 -11 658 -11 m 556 30 q 727 65 648 30 q 865 163 806 100 q 957 312 924 227 q 990 500 990 398 q 957 687 990 602 q 865 837 924 773 q 727 935 806 900 q 556 970 648 970 q 388 935 466 970 q 251 837 310 900 q 159 687 192 773 q 126 500 126 602 q 159 312 126 398 q 251 163 192 227 q 388 65 310 100 q 556 30 466 30 m 362 1084 q 395 1178 364 1142 q 471 1214 426 1214 q 525 1200 503 1214 q 566 1168 548 1186 q 601 1136 583 1149 q 640 1122 618 1122 q 689 1149 672 1122 q 707 1214 707 1177 l 746 1214 q 718 1121 747 1158 q 640 1084 689 1084 q 589 1097 611 1084 q 548 1128 567 1110 q 511 1159 530 1145 q 468 1172 492 1172 q 423 1148 441 1172 q 406 1084 406 1124 l 362 1084 z "},"Ṍ":{"ha":1116,"x_min":83,"x_max":1034,"o":"m 556 -11 q 370 28 456 -11 q 219 136 283 66 q 119 298 155 205 q 83 500 83 391 q 119 703 83 610 q 219 865 155 795 q 370 972 283 934 q 556 1010 456 1010 q 745 972 658 1010 q 897 865 831 934 q 998 703 962 795 q 1034 500 1034 610 q 998 298 1034 391 q 897 136 962 205 q 745 28 831 66 q 556 -11 658 -11 m 556 30 q 727 65 648 30 q 865 163 806 100 q 957 312 924 227 q 990 500 990 398 q 957 687 990 602 q 865 837 924 773 q 727 935 806 900 q 556 970 648 970 q 388 935 466 970 q 251 837 310 900 q 159 687 192 773 q 126 500 126 602 q 159 312 126 398 q 251 163 192 227 q 388 65 310 100 q 556 30 466 30 m 362 1084 q 395 1178 364 1142 q 471 1214 426 1214 q 525 1200 503 1214 q 566 1168 548 1186 q 601 1136 583 1149 q 640 1122 618 1122 q 689 1149 672 1122 q 707 1214 707 1177 l 746 1214 q 718 1121 747 1158 q 640 1084 689 1084 q 589 1097 611 1084 q 548 1128 567 1110 q 511 1159 530 1145 q 468 1172 492 1172 q 423 1148 441 1172 q 406 1084 406 1124 l 362 1084 m 556 1245 l 526 1279 l 718 1465 l 745 1435 l 556 1245 z "},"Ṏ":{"ha":1116,"x_min":83,"x_max":1034,"o":"m 556 -11 q 370 28 456 -11 q 219 136 283 66 q 119 298 155 205 q 83 500 83 391 q 119 703 83 610 q 219 865 155 795 q 370 972 283 934 q 556 1010 456 1010 q 745 972 658 1010 q 897 865 831 934 q 998 703 962 795 q 1034 500 1034 610 q 998 298 1034 391 q 897 136 962 205 q 745 28 831 66 q 556 -11 658 -11 m 556 30 q 727 65 648 30 q 865 163 806 100 q 957 312 924 227 q 990 500 990 398 q 957 687 990 602 q 865 837 924 773 q 727 935 806 900 q 556 970 648 970 q 388 935 466 970 q 251 837 310 900 q 159 687 192 773 q 126 500 126 602 q 159 312 126 398 q 251 163 192 227 q 388 65 310 100 q 556 30 466 30 m 362 1084 q 395 1178 364 1142 q 471 1214 426 1214 q 525 1200 503 1214 q 566 1168 548 1186 q 601 1136 583 1149 q 640 1122 618 1122 q 689 1149 672 1122 q 707 1214 707 1177 l 746 1214 q 718 1121 747 1158 q 640 1084 689 1084 q 589 1097 611 1084 q 548 1128 567 1110 q 511 1159 530 1145 q 468 1172 492 1172 q 423 1148 441 1172 q 406 1084 406 1124 l 362 1084 m 692 1275 q 651 1292 668 1275 q 635 1332 635 1308 q 651 1372 635 1356 q 692 1389 668 1389 q 732 1372 715 1389 q 749 1332 749 1356 q 732 1292 749 1308 q 692 1275 715 1275 m 426 1275 q 386 1292 402 1275 q 369 1332 369 1308 q 386 1372 369 1356 q 426 1389 402 1389 q 466 1372 450 1389 q 483 1332 483 1356 q 466 1292 483 1308 q 426 1275 450 1275 z "},"Ȭ":{"ha":1116,"x_min":83,"x_max":1034,"o":"m 556 -11 q 370 28 456 -11 q 219 136 283 66 q 119 298 155 205 q 83 500 83 391 q 119 703 83 610 q 219 865 155 795 q 370 972 283 934 q 556 1010 456 1010 q 745 972 658 1010 q 897 865 831 934 q 998 703 962 795 q 1034 500 1034 610 q 998 298 1034 391 q 897 136 962 205 q 745 28 831 66 q 556 -11 658 -11 m 556 30 q 727 65 648 30 q 865 163 806 100 q 957 312 924 227 q 990 500 990 398 q 957 687 990 602 q 865 837 924 773 q 727 935 806 900 q 556 970 648 970 q 388 935 466 970 q 251 837 310 900 q 159 687 192 773 q 126 500 126 602 q 159 312 126 398 q 251 163 192 227 q 388 65 310 100 q 556 30 466 30 m 362 1084 q 395 1178 364 1142 q 471 1214 426 1214 q 525 1200 503 1214 q 566 1168 548 1186 q 601 1136 583 1149 q 640 1122 618 1122 q 689 1149 672 1122 q 707 1214 707 1177 l 746 1214 q 718 1121 747 1158 q 640 1084 689 1084 q 589 1097 611 1084 q 548 1128 567 1110 q 511 1159 530 1145 q 468 1172 492 1172 q 423 1148 441 1172 q 406 1084 406 1124 l 362 1084 m 328 1312 l 328 1354 l 783 1354 l 783 1312 l 328 1312 z "},"Œ":{"ha":1564,"x_min":83,"x_max":1469,"o":"m 551 -11 q 367 28 452 -11 q 218 136 281 66 q 118 298 154 205 q 83 500 83 391 q 118 704 83 611 q 218 866 154 797 q 367 972 281 935 q 551 1010 452 1010 q 733 972 648 1010 q 881 863 819 935 q 972 690 943 791 l 954 690 l 954 1000 l 1469 1000 l 1469 959 l 997 959 l 997 533 l 1402 533 l 1402 492 l 997 492 l 997 41 l 1469 41 l 1469 0 l 954 0 l 954 309 l 972 309 q 881 137 943 209 q 734 27 819 66 q 551 -11 649 -11 m 553 30 q 764 91 673 30 q 907 259 856 152 q 959 503 959 366 q 909 743 959 637 q 767 909 859 848 q 553 970 676 970 q 333 908 430 970 q 181 741 237 847 q 126 502 126 635 q 158 314 126 400 q 249 164 191 228 q 385 65 307 100 q 553 30 463 30 z "},"P":{"ha":751,"x_min":138,"x_max":677,"o":"m 160 452 l 160 492 l 385 492 q 514 523 458 492 q 602 606 570 553 q 633 731 633 660 q 563 898 633 837 q 380 959 493 959 l 160 959 l 160 1000 l 385 1000 q 535 967 469 1000 q 639 873 601 934 q 677 731 677 813 q 642 592 677 655 q 543 490 607 528 q 393 452 479 452 l 160 452 m 138 0 l 138 1000 l 182 1000 l 182 0 l 138 0 z "},"Þ":{"ha":788,"x_min":138,"x_max":715,"o":"m 168 222 l 168 263 l 445 263 q 609 330 547 263 q 671 503 671 397 q 609 670 671 609 q 445 731 547 731 l 168 731 l 168 772 l 439 772 q 584 739 522 772 q 681 646 646 706 q 715 503 715 585 q 681 358 715 421 q 584 258 646 294 q 439 222 522 222 l 168 222 m 138 0 l 138 1000 l 182 1000 l 182 0 l 138 0 z "},"Q":{"ha":1123,"x_min":83,"x_max":1034,"o":"m 888 0 l 822 92 l 815 102 l 624 372 l 673 372 l 846 126 l 854 115 l 937 0 l 888 0 m 556 -11 q 370 28 456 -11 q 219 136 283 66 q 119 298 155 205 q 83 500 83 391 q 119 703 83 610 q 219 865 155 795 q 370 972 283 934 q 556 1010 456 1010 q 745 972 658 1010 q 897 865 831 934 q 998 703 962 795 q 1034 500 1034 610 q 998 298 1034 391 q 897 136 962 205 q 745 28 831 66 q 556 -11 658 -11 m 556 30 q 727 65 648 30 q 865 163 806 100 q 957 312 924 227 q 990 500 990 398 q 957 687 990 602 q 865 837 924 773 q 727 935 806 900 q 556 970 648 970 q 388 935 466 970 q 251 837 310 900 q 159 687 192 773 q 126 500 126 602 q 159 312 126 398 q 251 163 192 227 q 388 65 310 100 q 556 30 466 30 z "},"R":{"ha":811,"x_min":138,"x_max":743,"o":"m 160 452 l 160 492 l 385 492 q 514 523 458 492 q 602 606 570 553 q 633 731 633 660 q 563 898 633 837 q 380 959 493 959 l 160 959 l 160 1000 l 385 1000 q 535 967 469 1000 q 639 873 601 934 q 677 731 677 813 q 642 592 677 655 q 544 490 607 528 q 395 452 480 452 l 160 452 m 138 0 l 138 1000 l 182 1000 l 182 0 l 138 0 m 694 0 l 389 456 l 418 486 l 743 0 l 694 0 z "},"Ŕ":{"ha":811,"x_min":138,"x_max":743,"o":"m 160 452 l 160 492 l 385 492 q 514 523 458 492 q 602 606 570 553 q 633 731 633 660 q 563 898 633 837 q 380 959 493 959 l 160 959 l 160 1000 l 385 1000 q 535 967 469 1000 q 639 873 601 934 q 677 731 677 813 q 642 592 677 655 q 544 490 607 528 q 395 452 480 452 l 160 452 m 138 0 l 138 1000 l 182 1000 l 182 0 l 138 0 m 694 0 l 389 456 l 418 486 l 743 0 l 694 0 m 388 1055 l 358 1089 l 549 1275 l 576 1245 l 388 1055 z "},"Ř":{"ha":811,"x_min":138,"x_max":743,"o":"m 160 452 l 160 492 l 385 492 q 514 523 458 492 q 602 606 570 553 q 633 731 633 660 q 563 898 633 837 q 380 959 493 959 l 160 959 l 160 1000 l 385 1000 q 535 967 469 1000 q 639 873 601 934 q 677 731 677 813 q 642 592 677 655 q 544 490 607 528 q 395 452 480 452 l 160 452 m 138 0 l 138 1000 l 182 1000 l 182 0 l 138 0 m 694 0 l 389 456 l 418 486 l 743 0 l 694 0 m 218 1221 l 385 1086 l 395 1086 l 557 1221 l 585 1187 l 403 1044 l 377 1044 l 191 1187 l 218 1221 z "},"Ŗ":{"ha":811,"x_min":138,"x_max":743,"o":"m 160 452 l 160 492 l 385 492 q 514 523 458 492 q 602 606 570 553 q 633 731 633 660 q 563 898 633 837 q 380 959 493 959 l 160 959 l 160 1000 l 385 1000 q 535 967 469 1000 q 639 873 601 934 q 677 731 677 813 q 642 592 677 655 q 544 490 607 528 q 395 452 480 452 l 160 452 m 138 0 l 138 1000 l 182 1000 l 182 0 l 138 0 m 694 0 l 389 456 l 418 486 l 743 0 l 694 0 m 385 -330 l 359 -308 l 410 -252 q 434 -222 425 -235 q 447 -199 443 -210 q 449 -178 450 -189 l 468 -175 q 454 -195 462 -187 q 435 -202 447 -202 q 401 -187 417 -202 q 385 -149 385 -172 q 401 -114 385 -127 q 435 -100 417 -100 q 475 -117 461 -100 q 488 -160 488 -134 q 479 -202 488 -181 q 458 -241 470 -224 q 438 -269 446 -259 l 385 -330 z "},"Ȑ":{"ha":811,"x_min":138,"x_max":743,"o":"m 160 452 l 160 492 l 385 492 q 514 523 458 492 q 602 606 570 553 q 633 731 633 660 q 563 898 633 837 q 380 959 493 959 l 160 959 l 160 1000 l 385 1000 q 535 967 469 1000 q 639 873 601 934 q 677 731 677 813 q 642 592 677 655 q 544 490 607 528 q 395 452 480 452 l 160 452 m 138 0 l 138 1000 l 182 1000 l 182 0 l 138 0 m 694 0 l 389 456 l 418 486 l 743 0 l 694 0 m 273 1086 l 138 1299 l 179 1322 l 301 1100 l 273 1086 m 463 1086 l 336 1299 l 377 1322 l 496 1100 l 463 1086 z "},"Ṛ":{"ha":811,"x_min":138,"x_max":743,"o":"m 160 452 l 160 492 l 385 492 q 514 523 458 492 q 602 606 570 553 q 633 731 633 660 q 563 898 633 837 q 380 959 493 959 l 160 959 l 160 1000 l 385 1000 q 535 967 469 1000 q 639 873 601 934 q 677 731 677 813 q 642 592 677 655 q 544 490 607 528 q 395 452 480 452 l 160 452 m 138 0 l 138 1000 l 182 1000 l 182 0 l 138 0 m 694 0 l 389 456 l 418 486 l 743 0 l 694 0 m 437 -208 q 395 -191 412 -208 q 378 -149 378 -174 q 395 -108 378 -125 q 437 -91 412 -91 q 478 -108 461 -91 q 495 -149 495 -125 q 478 -191 495 -174 q 437 -208 461 -208 z "},"Ȓ":{"ha":811,"x_min":138,"x_max":743,"o":"m 160 452 l 160 492 l 385 492 q 514 523 458 492 q 602 606 570 553 q 633 731 633 660 q 563 898 633 837 q 380 959 493 959 l 160 959 l 160 1000 l 385 1000 q 535 967 469 1000 q 639 873 601 934 q 677 731 677 813 q 642 592 677 655 q 544 490 607 528 q 395 452 480 452 l 160 452 m 138 0 l 138 1000 l 182 1000 l 182 0 l 138 0 m 694 0 l 389 456 l 418 486 l 743 0 l 694 0 m 388 1222 q 487 1201 443 1222 q 555 1143 530 1179 q 579 1063 581 1107 l 541 1063 q 498 1148 541 1116 q 388 1181 455 1181 q 280 1148 323 1181 q 237 1063 237 1116 l 199 1063 q 224 1143 199 1107 q 292 1201 249 1179 q 388 1222 334 1222 z "},"Ṟ":{"ha":811,"x_min":138,"x_max":743,"o":"m 160 452 l 160 492 l 385 492 q 514 523 458 492 q 602 606 570 553 q 633 731 633 660 q 563 898 633 837 q 380 959 493 959 l 160 959 l 160 1000 l 385 1000 q 535 967 469 1000 q 639 873 601 934 q 677 731 677 813 q 642 592 677 655 q 544 490 607 528 q 395 452 480 452 l 160 452 m 138 0 l 138 1000 l 182 1000 l 182 0 l 138 0 m 694 0 l 389 456 l 418 486 l 743 0 l 694 0 m 228 -256 l 228 -217 l 643 -217 l 643 -256 l 228 -256 z "},"S":{"ha":738,"x_min":83,"x_max":650,"o":"m 372 -11 q 241 20 299 -11 q 143 99 183 52 q 83 197 103 147 l 123 214 q 178 119 142 160 q 266 54 215 77 q 375 30 316 30 q 490 57 437 30 q 575 133 543 84 q 608 247 608 182 q 579 354 608 310 q 510 426 551 397 q 429 471 469 454 q 367 496 389 488 q 242 557 301 520 q 147 650 184 595 q 111 783 111 705 q 141 902 111 850 q 226 982 171 953 q 356 1010 281 1010 q 476 987 425 1010 q 561 929 527 964 q 614 855 595 893 l 579 842 q 531 902 562 873 q 457 949 500 930 q 357 968 414 968 q 210 918 269 968 q 152 780 152 868 q 170 691 152 729 q 216 627 187 654 q 279 582 245 600 q 347 550 313 563 q 432 517 381 537 q 532 465 482 498 q 616 381 583 433 q 650 253 650 330 q 608 109 650 168 q 503 20 567 50 q 372 -11 439 -11 z "},"Ś":{"ha":738,"x_min":83,"x_max":650,"o":"m 372 -11 q 241 20 299 -11 q 143 99 183 52 q 83 197 103 147 l 123 214 q 178 119 142 160 q 266 54 215 77 q 375 30 316 30 q 490 57 437 30 q 575 133 543 84 q 608 247 608 182 q 579 354 608 310 q 510 426 551 397 q 429 471 469 454 q 367 496 389 488 q 242 557 301 520 q 147 650 184 595 q 111 783 111 705 q 141 902 111 850 q 226 982 171 953 q 356 1010 281 1010 q 476 987 425 1010 q 561 929 527 964 q 614 855 595 893 l 579 842 q 531 902 562 873 q 457 949 500 930 q 357 968 414 968 q 210 918 269 968 q 152 780 152 868 q 170 691 152 729 q 216 627 187 654 q 279 582 245 600 q 347 550 313 563 q 432 517 381 537 q 532 465 482 498 q 616 381 583 433 q 650 253 650 330 q 608 109 650 168 q 503 20 567 50 q 372 -11 439 -11 m 370 1055 l 340 1089 l 532 1275 l 559 1245 l 370 1055 z "},"Ṥ":{"ha":738,"x_min":83,"x_max":650,"o":"m 372 -11 q 241 20 299 -11 q 143 99 183 52 q 83 197 103 147 l 123 214 q 178 119 142 160 q 266 54 215 77 q 375 30 316 30 q 490 57 437 30 q 575 133 543 84 q 608 247 608 182 q 579 354 608 310 q 510 426 551 397 q 429 471 469 454 q 367 496 389 488 q 242 557 301 520 q 147 650 184 595 q 111 783 111 705 q 141 902 111 850 q 226 982 171 953 q 356 1010 281 1010 q 476 987 425 1010 q 561 929 527 964 q 614 855 595 893 l 579 842 q 531 902 562 873 q 457 949 500 930 q 357 968 414 968 q 210 918 269 968 q 152 780 152 868 q 170 691 152 729 q 216 627 187 654 q 279 582 245 600 q 347 550 313 563 q 432 517 381 537 q 532 465 482 498 q 616 381 583 433 q 650 253 650 330 q 608 109 650 168 q 503 20 567 50 q 372 -11 439 -11 m 411 1097 l 378 1122 l 553 1335 l 583 1312 l 411 1097 m 264 1142 q 223 1159 240 1142 q 206 1200 206 1176 q 223 1242 206 1225 q 264 1259 240 1259 q 306 1242 289 1259 q 323 1200 323 1225 q 306 1159 323 1176 q 264 1142 289 1142 z "},"Š":{"ha":738,"x_min":83,"x_max":650,"o":"m 372 -11 q 241 20 299 -11 q 143 99 183 52 q 83 197 103 147 l 123 214 q 178 119 142 160 q 266 54 215 77 q 375 30 316 30 q 490 57 437 30 q 575 133 543 84 q 608 247 608 182 q 579 354 608 310 q 510 426 551 397 q 429 471 469 454 q 367 496 389 488 q 242 557 301 520 q 147 650 184 595 q 111 783 111 705 q 141 902 111 850 q 226 982 171 953 q 356 1010 281 1010 q 476 987 425 1010 q 561 929 527 964 q 614 855 595 893 l 579 842 q 531 902 562 873 q 457 949 500 930 q 357 968 414 968 q 210 918 269 968 q 152 780 152 868 q 170 691 152 729 q 216 627 187 654 q 279 582 245 600 q 347 550 313 563 q 432 517 381 537 q 532 465 482 498 q 616 381 583 433 q 650 253 650 330 q 608 109 650 168 q 503 20 567 50 q 372 -11 439 -11 m 201 1221 l 368 1086 l 377 1086 l 540 1221 l 567 1187 l 385 1044 l 359 1044 l 174 1187 l 201 1221 z "},"Ṧ":{"ha":738,"x_min":83,"x_max":650,"o":"m 372 -11 q 241 20 299 -11 q 143 99 183 52 q 83 197 103 147 l 123 214 q 178 119 142 160 q 266 54 215 77 q 375 30 316 30 q 490 57 437 30 q 575 133 543 84 q 608 247 608 182 q 579 354 608 310 q 510 426 551 397 q 429 471 469 454 q 367 496 389 488 q 242 557 301 520 q 147 650 184 595 q 111 783 111 705 q 141 902 111 850 q 226 982 171 953 q 356 1010 281 1010 q 476 987 425 1010 q 561 929 527 964 q 614 855 595 893 l 579 842 q 531 902 562 873 q 457 949 500 930 q 357 968 414 968 q 210 918 269 968 q 152 780 152 868 q 170 691 152 729 q 216 627 187 654 q 279 582 245 600 q 347 550 313 563 q 432 517 381 537 q 532 465 482 498 q 616 381 583 433 q 650 253 650 330 q 608 109 650 168 q 503 20 567 50 q 372 -11 439 -11 m 201 1221 l 368 1086 l 377 1086 l 540 1221 l 567 1187 l 385 1044 l 359 1044 l 174 1187 l 201 1221 m 369 1222 q 328 1239 345 1222 q 311 1280 311 1256 q 328 1322 311 1305 q 369 1339 345 1339 q 410 1322 393 1339 q 427 1280 427 1305 q 410 1239 427 1256 q 369 1222 393 1222 z "},"Ş":{"ha":738,"x_min":83,"x_max":650,"o":"m 372 -11 q 241 20 299 -11 q 143 99 183 52 q 83 197 103 147 l 123 214 q 178 119 142 160 q 266 54 215 77 q 375 30 316 30 q 490 57 437 30 q 575 133 543 84 q 608 247 608 182 q 579 354 608 310 q 510 426 551 397 q 429 471 469 454 q 367 496 389 488 q 242 557 301 520 q 147 650 184 595 q 111 783 111 705 q 141 902 111 850 q 226 982 171 953 q 356 1010 281 1010 q 476 987 425 1010 q 561 929 527 964 q 614 855 595 893 l 579 842 q 531 902 562 873 q 457 949 500 930 q 357 968 414 968 q 210 918 269 968 q 152 780 152 868 q 170 691 152 729 q 216 627 187 654 q 279 582 245 600 q 347 550 313 563 q 432 517 381 537 q 532 465 482 498 q 616 381 583 433 q 650 253 650 330 q 608 109 650 168 q 503 20 567 50 q 372 -11 439 -11 m 267 -292 l 267 -250 q 376 -237 334 -252 q 418 -180 418 -222 q 388 -133 418 -152 q 309 -114 357 -114 l 345 0 l 388 0 l 353 -109 l 342 -80 q 426 -117 397 -89 q 454 -183 454 -145 q 405 -265 454 -238 q 267 -292 356 -292 z "},"Ŝ":{"ha":738,"x_min":83,"x_max":650,"o":"m 372 -11 q 241 20 299 -11 q 143 99 183 52 q 83 197 103 147 l 123 214 q 178 119 142 160 q 266 54 215 77 q 375 30 316 30 q 490 57 437 30 q 575 133 543 84 q 608 247 608 182 q 579 354 608 310 q 510 426 551 397 q 429 471 469 454 q 367 496 389 488 q 242 557 301 520 q 147 650 184 595 q 111 783 111 705 q 141 902 111 850 q 226 982 171 953 q 356 1010 281 1010 q 476 987 425 1010 q 561 929 527 964 q 614 855 595 893 l 579 842 q 531 902 562 873 q 457 949 500 930 q 357 968 414 968 q 210 918 269 968 q 152 780 152 868 q 170 691 152 729 q 216 627 187 654 q 279 582 245 600 q 347 550 313 563 q 432 517 381 537 q 532 465 482 498 q 616 381 583 433 q 650 253 650 330 q 608 109 650 168 q 503 20 567 50 q 372 -11 439 -11 m 203 1055 l 176 1089 l 362 1232 l 388 1232 l 570 1089 l 543 1055 l 380 1190 l 370 1190 l 203 1055 z "},"Ș":{"ha":738,"x_min":83,"x_max":650,"o":"m 372 -11 q 241 20 299 -11 q 143 99 183 52 q 83 197 103 147 l 123 214 q 178 119 142 160 q 266 54 215 77 q 375 30 316 30 q 490 57 437 30 q 575 133 543 84 q 608 247 608 182 q 579 354 608 310 q 510 426 551 397 q 429 471 469 454 q 367 496 389 488 q 242 557 301 520 q 147 650 184 595 q 111 783 111 705 q 141 902 111 850 q 226 982 171 953 q 356 1010 281 1010 q 476 987 425 1010 q 561 929 527 964 q 614 855 595 893 l 579 842 q 531 902 562 873 q 457 949 500 930 q 357 968 414 968 q 210 918 269 968 q 152 780 152 868 q 170 691 152 729 q 216 627 187 654 q 279 582 245 600 q 347 550 313 563 q 432 517 381 537 q 532 465 482 498 q 616 381 583 433 q 650 253 650 330 q 608 109 650 168 q 503 20 567 50 q 372 -11 439 -11 m 323 -330 l 297 -308 l 347 -252 q 371 -222 362 -235 q 384 -199 380 -210 q 387 -178 388 -189 l 406 -175 q 392 -195 399 -187 q 373 -202 385 -202 q 339 -187 355 -202 q 323 -149 323 -172 q 339 -114 323 -127 q 373 -100 355 -100 q 412 -117 399 -100 q 426 -160 426 -134 q 417 -202 426 -181 q 396 -241 408 -224 q 376 -269 384 -259 l 323 -330 z "},"Ṡ":{"ha":738,"x_min":83,"x_max":650,"o":"m 372 -11 q 241 20 299 -11 q 143 99 183 52 q 83 197 103 147 l 123 214 q 178 119 142 160 q 266 54 215 77 q 375 30 316 30 q 490 57 437 30 q 575 133 543 84 q 608 247 608 182 q 579 354 608 310 q 510 426 551 397 q 429 471 469 454 q 367 496 389 488 q 242 557 301 520 q 147 650 184 595 q 111 783 111 705 q 141 902 111 850 q 226 982 171 953 q 356 1010 281 1010 q 476 987 425 1010 q 561 929 527 964 q 614 855 595 893 l 579 842 q 531 902 562 873 q 457 949 500 930 q 357 968 414 968 q 210 918 269 968 q 152 780 152 868 q 170 691 152 729 q 216 627 187 654 q 279 582 245 600 q 347 550 313 563 q 432 517 381 537 q 532 465 482 498 q 616 381 583 433 q 650 253 650 330 q 608 109 650 168 q 503 20 567 50 q 372 -11 439 -11 m 369 1081 q 328 1098 345 1081 q 311 1139 311 1115 q 328 1181 311 1164 q 369 1198 345 1198 q 410 1181 393 1198 q 427 1139 427 1164 q 410 1098 427 1115 q 369 1081 393 1081 z "},"Ṣ":{"ha":738,"x_min":83,"x_max":650,"o":"m 372 -11 q 241 20 299 -11 q 143 99 183 52 q 83 197 103 147 l 123 214 q 178 119 142 160 q 266 54 215 77 q 375 30 316 30 q 490 57 437 30 q 575 133 543 84 q 608 247 608 182 q 579 354 608 310 q 510 426 551 397 q 429 471 469 454 q 367 496 389 488 q 242 557 301 520 q 147 650 184 595 q 111 783 111 705 q 141 902 111 850 q 226 982 171 953 q 356 1010 281 1010 q 476 987 425 1010 q 561 929 527 964 q 614 855 595 893 l 579 842 q 531 902 562 873 q 457 949 500 930 q 357 968 414 968 q 210 918 269 968 q 152 780 152 868 q 170 691 152 729 q 216 627 187 654 q 279 582 245 600 q 347 550 313 563 q 432 517 381 537 q 532 465 482 498 q 616 381 583 433 q 650 253 650 330 q 608 109 650 168 q 503 20 567 50 q 372 -11 439 -11 m 374 -208 q 333 -191 350 -208 q 316 -149 316 -174 q 333 -108 316 -125 q 374 -91 350 -91 q 416 -108 399 -91 q 433 -149 433 -125 q 416 -191 433 -174 q 374 -208 399 -208 z "},"Ṩ":{"ha":738,"x_min":83,"x_max":650,"o":"m 372 -11 q 241 20 299 -11 q 143 99 183 52 q 83 197 103 147 l 123 214 q 178 119 142 160 q 266 54 215 77 q 375 30 316 30 q 490 57 437 30 q 575 133 543 84 q 608 247 608 182 q 579 354 608 310 q 510 426 551 397 q 429 471 469 454 q 367 496 389 488 q 242 557 301 520 q 147 650 184 595 q 111 783 111 705 q 141 902 111 850 q 226 982 171 953 q 356 1010 281 1010 q 476 987 425 1010 q 561 929 527 964 q 614 855 595 893 l 579 842 q 531 902 562 873 q 457 949 500 930 q 357 968 414 968 q 210 918 269 968 q 152 780 152 868 q 170 691 152 729 q 216 627 187 654 q 279 582 245 600 q 347 550 313 563 q 432 517 381 537 q 532 465 482 498 q 616 381 583 433 q 650 253 650 330 q 608 109 650 168 q 503 20 567 50 q 372 -11 439 -11 m 373 -208 q 332 -191 349 -208 q 315 -149 315 -174 q 332 -108 315 -125 q 373 -91 349 -91 q 414 -108 397 -91 q 431 -149 431 -125 q 414 -191 431 -174 q 373 -208 397 -208 m 373 1081 q 332 1098 349 1081 q 315 1139 315 1115 q 332 1181 315 1164 q 373 1198 349 1198 q 414 1181 397 1198 q 431 1139 431 1164 q 414 1098 431 1115 q 373 1081 397 1081 z "},"ẞ":{"ha":892,"x_min":127,"x_max":802,"o":"m 471 -11 q 401 -5 437 -11 q 340 11 364 1 l 340 54 q 406 37 368 44 q 476 30 443 30 q 614 65 550 30 q 719 163 679 100 q 758 312 758 227 q 680 497 758 428 q 463 567 602 567 l 435 567 l 435 586 l 600 963 l 602 940 q 508 962 569 954 q 393 970 448 970 q 263 948 309 970 q 198 893 218 926 q 175 827 178 861 q 171 768 171 793 l 171 0 l 127 0 l 127 764 q 130 819 127 787 q 145 884 132 851 q 186 946 157 918 q 269 993 216 975 q 406 1010 321 1010 q 479 1007 439 1010 q 561 994 519 1003 q 642 970 602 985 l 642 959 l 477 583 l 456 605 q 642 572 565 610 q 761 465 720 534 q 802 311 802 397 q 759 147 802 220 q 641 32 715 74 q 471 -11 566 -11 z "},"T":{"ha":712,"x_min":50,"x_max":662,"o":"m 335 0 l 335 971 l 378 971 l 378 0 l 335 0 m 50 959 l 50 1000 l 662 1000 l 662 959 l 50 959 z "},"Ŧ":{"ha":712,"x_min":50,"x_max":662,"o":"m 335 0 l 335 971 l 378 971 l 378 0 l 335 0 m 50 959 l 50 1000 l 662 1000 l 662 959 l 50 959 m 216 481 l 216 519 l 498 519 l 498 481 l 216 481 z "},"Ť":{"ha":712,"x_min":50,"x_max":662,"o":"m 335 0 l 335 971 l 378 971 l 378 0 l 335 0 m 50 959 l 50 1000 l 662 1000 l 662 959 l 50 959 m 187 1221 l 354 1086 l 363 1086 l 526 1221 l 553 1187 l 372 1044 l 346 1044 l 160 1187 l 187 1221 z "},"Ţ":{"ha":712,"x_min":50,"x_max":662,"o":"m 335 0 l 335 971 l 378 971 l 378 0 l 335 0 m 50 959 l 50 1000 l 662 1000 l 662 959 l 50 959 m 258 -292 l 258 -250 q 367 -237 325 -252 q 408 -180 408 -222 q 378 -133 408 -152 q 300 -114 348 -114 l 335 0 l 378 0 l 343 -109 l 332 -80 q 416 -117 387 -89 q 445 -183 445 -145 q 396 -265 445 -238 q 258 -292 347 -292 z "},"Ț":{"ha":712,"x_min":50,"x_max":662,"o":"m 335 0 l 335 971 l 378 971 l 378 0 l 335 0 m 50 959 l 50 1000 l 662 1000 l 662 959 l 50 959 m 305 -330 l 279 -308 l 330 -252 q 354 -222 345 -235 q 367 -199 363 -210 q 369 -178 370 -189 l 388 -175 q 374 -195 382 -187 q 355 -202 367 -202 q 321 -187 337 -202 q 305 -149 305 -172 q 321 -114 305 -127 q 355 -100 337 -100 q 395 -117 381 -100 q 408 -160 408 -134 q 399 -202 408 -181 q 378 -241 390 -224 q 358 -269 366 -259 l 305 -330 z "},"Ṭ":{"ha":712,"x_min":50,"x_max":662,"o":"m 335 0 l 335 971 l 378 971 l 378 0 l 335 0 m 50 959 l 50 1000 l 662 1000 l 662 959 l 50 959 m 357 -208 q 315 -191 332 -208 q 298 -149 298 -174 q 315 -108 298 -125 q 357 -91 332 -91 q 398 -108 381 -91 q 415 -149 415 -125 q 398 -191 415 -174 q 357 -208 381 -208 z "},"Ṯ":{"ha":712,"x_min":50,"x_max":662,"o":"m 335 0 l 335 971 l 378 971 l 378 0 l 335 0 m 50 959 l 50 1000 l 662 1000 l 662 959 l 50 959 m 148 -256 l 148 -217 l 563 -217 l 563 -256 l 148 -256 z "},"U":{"ha":932,"x_min":138,"x_max":793,"o":"m 467 -11 q 294 30 368 -11 q 179 146 220 71 q 138 323 138 221 l 138 1000 l 182 1000 l 182 334 q 217 173 182 241 q 317 67 253 104 q 467 30 381 30 q 673 112 596 30 q 750 334 750 195 l 750 1000 l 793 1000 l 793 323 q 753 146 793 221 q 640 30 713 71 q 467 -11 566 -11 z "},"Ú":{"ha":932,"x_min":138,"x_max":793,"o":"m 467 -11 q 294 30 368 -11 q 179 146 220 71 q 138 323 138 221 l 138 1000 l 182 1000 l 182 334 q 217 173 182 241 q 317 67 253 104 q 467 30 381 30 q 673 112 596 30 q 750 334 750 195 l 750 1000 l 793 1000 l 793 323 q 753 146 793 221 q 640 30 713 71 q 467 -11 566 -11 m 467 1055 l 437 1089 l 628 1275 l 655 1245 l 467 1055 z "},"Ŭ":{"ha":932,"x_min":138,"x_max":793,"o":"m 467 -11 q 294 30 368 -11 q 179 146 220 71 q 138 323 138 221 l 138 1000 l 182 1000 l 182 334 q 217 173 182 241 q 317 67 253 104 q 467 30 381 30 q 673 112 596 30 q 750 334 750 195 l 750 1000 l 793 1000 l 793 323 q 753 146 793 221 q 640 30 713 71 q 467 -11 566 -11 m 467 1055 q 370 1077 413 1055 q 303 1134 328 1098 q 278 1214 278 1170 l 316 1214 q 359 1129 316 1162 q 467 1096 401 1096 q 577 1129 534 1096 q 620 1214 620 1162 l 658 1214 q 634 1134 659 1170 q 565 1077 609 1098 q 467 1055 522 1055 z "},"Û":{"ha":932,"x_min":138,"x_max":793,"o":"m 467 -11 q 294 30 368 -11 q 179 146 220 71 q 138 323 138 221 l 138 1000 l 182 1000 l 182 334 q 217 173 182 241 q 317 67 253 104 q 467 30 381 30 q 673 112 596 30 q 750 334 750 195 l 750 1000 l 793 1000 l 793 323 q 753 146 793 221 q 640 30 713 71 q 467 -11 566 -11 m 300 1055 l 273 1089 l 458 1232 l 484 1232 l 666 1089 l 639 1055 l 476 1190 l 467 1190 l 300 1055 z "},"Ȕ":{"ha":932,"x_min":138,"x_max":793,"o":"m 467 -11 q 294 30 368 -11 q 179 146 220 71 q 138 323 138 221 l 138 1000 l 182 1000 l 182 334 q 217 173 182 241 q 317 67 253 104 q 467 30 381 30 q 673 112 596 30 q 750 334 750 195 l 750 1000 l 793 1000 l 793 323 q 753 146 793 221 q 640 30 713 71 q 467 -11 566 -11 m 351 1086 l 217 1299 l 258 1322 l 380 1100 l 351 1086 m 541 1086 l 415 1299 l 456 1322 l 575 1100 l 541 1086 z "},"Ü":{"ha":932,"x_min":138,"x_max":793,"o":"m 467 -11 q 294 30 368 -11 q 179 146 220 71 q 138 323 138 221 l 138 1000 l 182 1000 l 182 334 q 217 173 182 241 q 317 67 253 104 q 467 30 381 30 q 673 112 596 30 q 750 334 750 195 l 750 1000 l 793 1000 l 793 323 q 753 146 793 221 q 640 30 713 71 q 467 -11 566 -11 m 602 1085 q 562 1102 578 1085 q 545 1142 545 1118 q 562 1182 545 1166 q 602 1199 578 1199 q 643 1182 626 1199 q 659 1142 659 1166 q 643 1102 659 1118 q 602 1085 626 1085 m 336 1085 q 296 1102 313 1085 q 279 1142 279 1118 q 296 1182 279 1166 q 336 1199 313 1199 q 377 1182 360 1199 q 393 1142 393 1166 q 377 1102 393 1118 q 336 1085 360 1085 z "},"Ụ":{"ha":932,"x_min":138,"x_max":793,"o":"m 467 -11 q 294 30 368 -11 q 179 146 220 71 q 138 323 138 221 l 138 1000 l 182 1000 l 182 334 q 217 173 182 241 q 317 67 253 104 q 467 30 381 30 q 673 112 596 30 q 750 334 750 195 l 750 1000 l 793 1000 l 793 323 q 753 146 793 221 q 640 30 713 71 q 467 -11 566 -11 m 465 -208 q 424 -191 441 -208 q 407 -149 407 -174 q 424 -108 407 -125 q 465 -91 441 -91 q 507 -108 490 -91 q 524 -149 524 -125 q 507 -191 524 -174 q 465 -208 490 -208 z "},"Ù":{"ha":932,"x_min":138,"x_max":793,"o":"m 467 -11 q 294 30 368 -11 q 179 146 220 71 q 138 323 138 221 l 138 1000 l 182 1000 l 182 334 q 217 173 182 241 q 317 67 253 104 q 467 30 381 30 q 673 112 596 30 q 750 334 750 195 l 750 1000 l 793 1000 l 793 323 q 753 146 793 221 q 640 30 713 71 q 467 -11 566 -11 m 467 1055 l 278 1245 l 305 1275 l 496 1089 l 467 1055 z "},"Ủ":{"ha":932,"x_min":138,"x_max":793,"o":"m 467 -11 q 294 30 368 -11 q 179 146 220 71 q 138 323 138 221 l 138 1000 l 182 1000 l 182 334 q 217 173 182 241 q 317 67 253 104 q 467 30 381 30 q 673 112 596 30 q 750 334 750 195 l 750 1000 l 793 1000 l 793 323 q 753 146 793 221 q 640 30 713 71 q 467 -11 566 -11 m 483 1097 l 457 1127 q 506 1166 487 1143 q 525 1214 525 1190 q 505 1257 525 1242 q 452 1272 486 1272 q 412 1269 433 1272 q 374 1259 392 1265 l 374 1299 q 415 1309 393 1307 q 449 1312 437 1312 q 533 1285 504 1312 q 562 1217 562 1259 q 540 1148 562 1182 q 483 1097 519 1115 z "},"Ư":{"ha":932,"x_min":138,"x_max":981,"o":"m 467 -11 q 294 30 368 -11 q 179 146 220 71 q 138 323 138 221 l 138 1000 l 182 1000 l 182 334 q 217 173 182 241 q 317 67 253 104 q 467 30 381 30 q 673 112 596 30 q 750 334 750 195 l 750 1000 l 793 1000 l 793 323 q 753 146 793 221 q 640 30 713 71 q 467 -11 566 -11 m 770 966 l 770 1000 q 888 1040 842 1001 q 935 1153 935 1080 q 933 1190 935 1171 q 929 1217 931 1208 l 974 1222 q 979 1189 977 1211 q 981 1147 981 1167 q 952 1044 981 1085 q 875 984 923 1004 q 770 966 827 964 z "},"Ứ":{"ha":932,"x_min":138,"x_max":981,"o":"m 467 -11 q 294 30 368 -11 q 179 146 220 71 q 138 323 138 221 l 138 1000 l 182 1000 l 182 334 q 217 173 182 241 q 317 67 253 104 q 467 30 381 30 q 673 112 596 30 q 750 334 750 195 l 750 1000 l 793 1000 l 793 323 q 753 146 793 221 q 640 30 713 71 q 467 -11 566 -11 m 770 966 l 770 1000 q 888 1040 842 1001 q 935 1153 935 1080 q 933 1190 935 1171 q 929 1217 931 1208 l 974 1222 q 979 1189 977 1211 q 981 1147 981 1167 q 952 1044 981 1085 q 875 984 923 1004 q 770 966 827 964 m 467 1055 l 437 1089 l 628 1275 l 655 1245 l 467 1055 z "},"Ự":{"ha":932,"x_min":138,"x_max":981,"o":"m 467 -11 q 294 30 368 -11 q 179 146 220 71 q 138 323 138 221 l 138 1000 l 182 1000 l 182 334 q 217 173 182 241 q 317 67 253 104 q 467 30 381 30 q 673 112 596 30 q 750 334 750 195 l 750 1000 l 793 1000 l 793 323 q 753 146 793 221 q 640 30 713 71 q 467 -11 566 -11 m 770 966 l 770 1000 q 888 1040 842 1001 q 935 1153 935 1080 q 933 1190 935 1171 q 929 1217 931 1208 l 974 1222 q 979 1189 977 1211 q 981 1147 981 1167 q 952 1044 981 1085 q 875 984 923 1004 q 770 966 827 964 m 465 -208 q 424 -191 441 -208 q 407 -149 407 -174 q 424 -108 407 -125 q 465 -91 441 -91 q 507 -108 490 -91 q 524 -149 524 -125 q 507 -191 524 -174 q 465 -208 490 -208 z "},"Ừ":{"ha":932,"x_min":138,"x_max":981,"o":"m 467 -11 q 294 30 368 -11 q 179 146 220 71 q 138 323 138 221 l 138 1000 l 182 1000 l 182 334 q 217 173 182 241 q 317 67 253 104 q 467 30 381 30 q 673 112 596 30 q 750 334 750 195 l 750 1000 l 793 1000 l 793 323 q 753 146 793 221 q 640 30 713 71 q 467 -11 566 -11 m 770 966 l 770 1000 q 888 1040 842 1001 q 935 1153 935 1080 q 933 1190 935 1171 q 929 1217 931 1208 l 974 1222 q 979 1189 977 1211 q 981 1147 981 1167 q 952 1044 981 1085 q 875 984 923 1004 q 770 966 827 964 m 467 1055 l 278 1245 l 305 1275 l 496 1089 l 467 1055 z "},"Ử":{"ha":932,"x_min":138,"x_max":981,"o":"m 467 -11 q 294 30 368 -11 q 179 146 220 71 q 138 323 138 221 l 138 1000 l 182 1000 l 182 334 q 217 173 182 241 q 317 67 253 104 q 467 30 381 30 q 673 112 596 30 q 750 334 750 195 l 750 1000 l 793 1000 l 793 323 q 753 146 793 221 q 640 30 713 71 q 467 -11 566 -11 m 770 966 l 770 1000 q 888 1040 842 1001 q 935 1153 935 1080 q 933 1190 935 1171 q 929 1217 931 1208 l 974 1222 q 979 1189 977 1211 q 981 1147 981 1167 q 952 1044 981 1085 q 875 984 923 1004 q 770 966 827 964 m 483 1097 l 457 1127 q 506 1166 487 1143 q 525 1214 525 1190 q 505 1257 525 1242 q 452 1272 486 1272 q 412 1269 433 1272 q 374 1259 392 1265 l 374 1299 q 415 1309 393 1307 q 449 1312 437 1312 q 533 1285 504 1312 q 562 1217 562 1259 q 540 1148 562 1182 q 483 1097 519 1115 z "},"Ữ":{"ha":932,"x_min":138,"x_max":981,"o":"m 467 -11 q 294 30 368 -11 q 179 146 220 71 q 138 323 138 221 l 138 1000 l 182 1000 l 182 334 q 217 173 182 241 q 317 67 253 104 q 467 30 381 30 q 673 112 596 30 q 750 334 750 195 l 750 1000 l 793 1000 l 793 323 q 753 146 793 221 q 640 30 713 71 q 467 -11 566 -11 m 770 966 l 770 1000 q 888 1040 842 1001 q 935 1153 935 1080 q 933 1190 935 1171 q 929 1217 931 1208 l 974 1222 q 979 1189 977 1211 q 981 1147 981 1167 q 952 1044 981 1085 q 875 984 923 1004 q 770 966 827 964 m 273 1084 q 306 1178 275 1142 q 381 1214 336 1214 q 436 1200 413 1214 q 476 1168 458 1186 q 511 1136 494 1149 q 551 1122 529 1122 q 600 1149 583 1122 q 617 1214 617 1177 l 656 1214 q 629 1121 658 1158 q 551 1084 600 1084 q 499 1097 522 1084 q 459 1128 477 1110 q 421 1159 440 1145 q 378 1172 402 1172 q 334 1148 351 1172 q 316 1084 316 1124 l 273 1084 z "},"Ű":{"ha":932,"x_min":138,"x_max":793,"o":"m 467 -11 q 294 30 368 -11 q 179 146 220 71 q 138 323 138 221 l 138 1000 l 182 1000 l 182 334 q 217 173 182 241 q 317 67 253 104 q 467 30 381 30 q 673 112 596 30 q 750 334 750 195 l 750 1000 l 793 1000 l 793 323 q 753 146 793 221 q 640 30 713 71 q 467 -11 566 -11 m 391 1086 l 359 1100 l 483 1322 l 519 1299 l 391 1086 m 583 1086 l 557 1100 l 675 1322 l 715 1299 l 583 1086 z "},"Ȗ":{"ha":932,"x_min":138,"x_max":793,"o":"m 467 -11 q 294 30 368 -11 q 179 146 220 71 q 138 323 138 221 l 138 1000 l 182 1000 l 182 334 q 217 173 182 241 q 317 67 253 104 q 467 30 381 30 q 673 112 596 30 q 750 334 750 195 l 750 1000 l 793 1000 l 793 323 q 753 146 793 221 q 640 30 713 71 q 467 -11 566 -11 m 467 1222 q 565 1201 522 1222 q 634 1143 609 1179 q 658 1063 659 1107 l 620 1063 q 577 1148 620 1116 q 467 1181 534 1181 q 359 1148 401 1181 q 316 1063 316 1116 l 278 1063 q 303 1143 278 1107 q 370 1201 328 1179 q 467 1222 413 1222 z "},"Ū":{"ha":932,"x_min":138,"x_max":793,"o":"m 467 -11 q 294 30 368 -11 q 179 146 220 71 q 138 323 138 221 l 138 1000 l 182 1000 l 182 334 q 217 173 182 241 q 317 67 253 104 q 467 30 381 30 q 673 112 596 30 q 750 334 750 195 l 750 1000 l 793 1000 l 793 323 q 753 146 793 221 q 640 30 713 71 q 467 -11 566 -11 m 239 1122 l 239 1164 l 693 1164 l 693 1122 l 239 1122 z "},"Ṻ":{"ha":932,"x_min":138,"x_max":793,"o":"m 467 -11 q 294 30 368 -11 q 179 146 220 71 q 138 323 138 221 l 138 1000 l 182 1000 l 182 334 q 217 173 182 241 q 317 67 253 104 q 467 30 381 30 q 673 112 596 30 q 750 334 750 195 l 750 1000 l 793 1000 l 793 323 q 753 146 793 221 q 640 30 713 71 q 467 -11 566 -11 m 239 1122 l 239 1164 l 693 1164 l 693 1122 l 239 1122 m 602 1249 q 562 1266 578 1249 q 545 1306 545 1282 q 562 1347 545 1330 q 602 1363 578 1363 q 643 1347 626 1363 q 659 1306 659 1330 q 643 1266 659 1282 q 602 1249 626 1249 m 336 1249 q 296 1266 313 1249 q 279 1306 279 1282 q 296 1347 279 1330 q 336 1363 313 1363 q 377 1347 360 1363 q 393 1306 393 1330 q 377 1266 393 1282 q 336 1249 360 1249 z "},"Ų":{"ha":932,"x_min":138,"x_max":793,"o":"m 467 -11 q 294 30 368 -11 q 179 146 220 71 q 138 323 138 221 l 138 1000 l 182 1000 l 182 334 q 217 173 182 241 q 317 67 253 104 q 467 30 381 30 q 673 112 596 30 q 750 334 750 195 l 750 1000 l 793 1000 l 793 323 q 753 146 793 221 q 640 30 713 71 q 467 -11 566 -11 m 496 -264 q 429 -236 455 -264 q 403 -164 403 -208 q 442 -67 403 -110 q 525 16 481 -25 l 556 0 q 505 -55 532 -29 q 458 -108 477 -81 q 439 -164 439 -134 q 459 -209 439 -193 q 503 -225 478 -225 q 551 -215 529 -225 q 587 -194 572 -204 l 587 -236 q 547 -256 572 -248 q 496 -264 521 -264 z "},"Ů":{"ha":932,"x_min":138,"x_max":793,"o":"m 467 -11 q 294 30 368 -11 q 179 146 220 71 q 138 323 138 221 l 138 1000 l 182 1000 l 182 334 q 217 173 182 241 q 317 67 253 104 q 467 30 381 30 q 673 112 596 30 q 750 334 750 195 l 750 1000 l 793 1000 l 793 323 q 753 146 793 221 q 640 30 713 71 q 467 -11 566 -11 m 467 1044 q 401 1061 430 1044 q 355 1107 372 1078 q 338 1173 338 1137 q 355 1239 338 1210 q 401 1285 372 1268 q 467 1302 430 1302 q 532 1285 503 1302 q 578 1239 562 1268 q 595 1173 595 1210 q 578 1107 595 1137 q 532 1061 562 1078 q 467 1044 503 1044 m 467 1085 q 530 1111 505 1085 q 555 1174 555 1136 q 530 1236 555 1211 q 467 1261 505 1261 q 404 1236 429 1261 q 378 1173 378 1211 q 404 1111 378 1136 q 467 1085 429 1085 z "},"Ũ":{"ha":932,"x_min":138,"x_max":793,"o":"m 467 -11 q 294 30 368 -11 q 179 146 220 71 q 138 323 138 221 l 138 1000 l 182 1000 l 182 334 q 217 173 182 241 q 317 67 253 104 q 467 30 381 30 q 673 112 596 30 q 750 334 750 195 l 750 1000 l 793 1000 l 793 323 q 753 146 793 221 q 640 30 713 71 q 467 -11 566 -11 m 273 1084 q 306 1178 275 1142 q 381 1214 336 1214 q 436 1200 413 1214 q 476 1168 458 1186 q 511 1136 494 1149 q 551 1122 529 1122 q 600 1149 583 1122 q 617 1214 617 1177 l 656 1214 q 629 1121 658 1158 q 551 1084 600 1084 q 499 1097 522 1084 q 459 1128 477 1110 q 421 1159 440 1145 q 378 1172 402 1172 q 334 1148 351 1172 q 316 1084 316 1124 l 273 1084 z "},"Ṹ":{"ha":932,"x_min":138,"x_max":793,"o":"m 467 -11 q 294 30 368 -11 q 179 146 220 71 q 138 323 138 221 l 138 1000 l 182 1000 l 182 334 q 217 173 182 241 q 317 67 253 104 q 467 30 381 30 q 673 112 596 30 q 750 334 750 195 l 750 1000 l 793 1000 l 793 323 q 753 146 793 221 q 640 30 713 71 q 467 -11 566 -11 m 273 1084 q 306 1178 275 1142 q 381 1214 336 1214 q 436 1200 413 1214 q 476 1168 458 1186 q 511 1136 494 1149 q 551 1122 529 1122 q 600 1149 583 1122 q 617 1214 617 1177 l 656 1214 q 629 1121 658 1158 q 551 1084 600 1084 q 499 1097 522 1084 q 459 1128 477 1110 q 421 1159 440 1145 q 378 1172 402 1172 q 334 1148 351 1172 q 316 1084 316 1124 l 273 1084 m 467 1245 l 437 1279 l 628 1465 l 655 1435 l 467 1245 z "},"V":{"ha":947,"x_min":43,"x_max":903,"o":"m 454 0 l 43 1000 l 92 1000 l 331 407 l 471 53 l 476 53 l 616 407 l 854 1000 l 903 1000 l 492 0 l 454 0 z "},"W":{"ha":1248,"x_min":45,"x_max":1203,"o":"m 316 0 l 45 1000 l 91 1000 l 311 182 l 340 47 l 346 47 l 609 933 l 639 933 l 902 47 l 907 47 l 937 182 l 1157 1000 l 1203 1000 l 932 0 l 878 0 l 627 846 l 621 846 l 370 0 l 316 0 z "},"Ẃ":{"ha":1248,"x_min":45,"x_max":1203,"o":"m 316 0 l 45 1000 l 91 1000 l 311 182 l 340 47 l 346 47 l 609 933 l 639 933 l 902 47 l 907 47 l 937 182 l 1157 1000 l 1203 1000 l 932 0 l 878 0 l 627 846 l 621 846 l 370 0 l 316 0 m 624 1055 l 594 1089 l 785 1275 l 812 1245 l 624 1055 z "},"Ŵ":{"ha":1248,"x_min":45,"x_max":1203,"o":"m 316 0 l 45 1000 l 91 1000 l 311 182 l 340 47 l 346 47 l 609 933 l 639 933 l 902 47 l 907 47 l 937 182 l 1157 1000 l 1203 1000 l 932 0 l 878 0 l 627 846 l 621 846 l 370 0 l 316 0 m 457 1055 l 430 1089 l 616 1232 l 642 1232 l 823 1089 l 796 1055 l 633 1190 l 624 1190 l 457 1055 z "},"Ẅ":{"ha":1248,"x_min":45,"x_max":1203,"o":"m 316 0 l 45 1000 l 91 1000 l 311 182 l 340 47 l 346 47 l 609 933 l 639 933 l 902 47 l 907 47 l 937 182 l 1157 1000 l 1203 1000 l 932 0 l 878 0 l 627 846 l 621 846 l 370 0 l 316 0 m 760 1085 q 719 1102 736 1085 q 703 1142 703 1118 q 719 1182 703 1166 q 760 1199 736 1199 q 800 1182 783 1199 q 817 1142 817 1166 q 800 1102 817 1118 q 760 1085 783 1085 m 494 1085 q 453 1102 470 1085 q 437 1142 437 1118 q 453 1182 437 1166 q 494 1199 470 1199 q 534 1182 517 1199 q 551 1142 551 1166 q 534 1102 551 1118 q 494 1085 517 1085 z "},"Ẁ":{"ha":1248,"x_min":45,"x_max":1203,"o":"m 316 0 l 45 1000 l 91 1000 l 311 182 l 340 47 l 346 47 l 609 933 l 639 933 l 902 47 l 907 47 l 937 182 l 1157 1000 l 1203 1000 l 932 0 l 878 0 l 627 846 l 621 846 l 370 0 l 316 0 m 624 1055 l 435 1245 l 463 1275 l 654 1089 l 624 1055 z "},"X":{"ha":865,"x_min":66,"x_max":799,"o":"m 747 0 l 435 468 l 427 468 l 406 495 l 406 500 l 66 1000 l 115 1000 l 430 532 l 438 532 l 460 503 l 460 498 l 799 0 l 747 0 m 66 0 l 406 498 l 406 503 l 427 532 l 435 532 l 750 1000 l 799 1000 l 460 500 l 460 495 l 438 468 l 430 468 l 118 0 l 66 0 z "},"Y":{"ha":827,"x_min":45,"x_max":783,"o":"m 392 0 l 392 461 l 45 1000 l 94 1000 l 279 707 l 411 507 l 416 507 l 548 707 l 734 1000 l 783 1000 l 435 461 l 435 0 l 392 0 z "},"Ý":{"ha":827,"x_min":45,"x_max":783,"o":"m 392 0 l 392 461 l 45 1000 l 94 1000 l 279 707 l 411 507 l 416 507 l 548 707 l 734 1000 l 783 1000 l 435 461 l 435 0 l 392 0 m 414 1055 l 384 1089 l 575 1275 l 602 1245 l 414 1055 z "},"Ŷ":{"ha":827,"x_min":45,"x_max":783,"o":"m 392 0 l 392 461 l 45 1000 l 94 1000 l 279 707 l 411 507 l 416 507 l 548 707 l 734 1000 l 783 1000 l 435 461 l 435 0 l 392 0 m 247 1055 l 220 1089 l 406 1232 l 431 1232 l 613 1089 l 586 1055 l 423 1190 l 414 1190 l 247 1055 z "},"Ÿ":{"ha":827,"x_min":45,"x_max":783,"o":"m 392 0 l 392 461 l 45 1000 l 94 1000 l 279 707 l 411 507 l 416 507 l 548 707 l 734 1000 l 783 1000 l 435 461 l 435 0 l 392 0 m 549 1085 q 509 1102 526 1085 q 492 1142 492 1118 q 509 1182 492 1166 q 549 1199 526 1199 q 590 1182 573 1199 q 606 1142 606 1166 q 590 1102 606 1118 q 549 1085 573 1085 m 283 1085 q 243 1102 260 1085 q 227 1142 227 1118 q 243 1182 227 1166 q 283 1199 260 1199 q 324 1182 307 1199 q 340 1142 340 1166 q 324 1102 340 1118 q 283 1085 307 1085 z "},"Ẏ":{"ha":827,"x_min":45,"x_max":783,"o":"m 392 0 l 392 461 l 45 1000 l 94 1000 l 279 707 l 411 507 l 416 507 l 548 707 l 734 1000 l 783 1000 l 435 461 l 435 0 l 392 0 m 412 1081 q 371 1098 388 1081 q 354 1139 354 1115 q 371 1181 354 1164 q 412 1198 388 1198 q 454 1181 437 1198 q 471 1139 471 1164 q 454 1098 471 1115 q 412 1081 437 1081 z "},"Ỵ":{"ha":827,"x_min":45,"x_max":783,"o":"m 392 0 l 392 461 l 45 1000 l 94 1000 l 279 707 l 411 507 l 416 507 l 548 707 l 734 1000 l 783 1000 l 435 461 l 435 0 l 392 0 m 412 -208 q 371 -191 388 -208 q 354 -149 354 -174 q 371 -108 354 -125 q 412 -91 388 -91 q 454 -108 437 -91 q 471 -149 471 -125 q 454 -191 471 -174 q 412 -208 437 -208 z "},"Ỳ":{"ha":827,"x_min":45,"x_max":783,"o":"m 392 0 l 392 461 l 45 1000 l 94 1000 l 279 707 l 411 507 l 416 507 l 548 707 l 734 1000 l 783 1000 l 435 461 l 435 0 l 392 0 m 414 1055 l 225 1245 l 252 1275 l 444 1089 l 414 1055 z "},"Ỷ":{"ha":827,"x_min":45,"x_max":783,"o":"m 392 0 l 392 461 l 45 1000 l 94 1000 l 279 707 l 411 507 l 416 507 l 548 707 l 734 1000 l 783 1000 l 435 461 l 435 0 l 392 0 m 430 1097 l 404 1127 q 453 1166 434 1143 q 472 1214 472 1190 q 452 1257 472 1242 q 399 1272 433 1272 q 359 1269 380 1272 q 321 1259 339 1265 l 321 1299 q 362 1309 340 1307 q 396 1312 384 1312 q 480 1285 451 1312 q 509 1217 509 1259 q 487 1148 509 1182 q 430 1097 466 1115 z "},"Ȳ":{"ha":827,"x_min":45,"x_max":783,"o":"m 392 0 l 392 461 l 45 1000 l 94 1000 l 279 707 l 411 507 l 416 507 l 548 707 l 734 1000 l 783 1000 l 435 461 l 435 0 l 392 0 m 186 1122 l 186 1164 l 640 1164 l 640 1122 l 186 1122 z "},"Ỹ":{"ha":827,"x_min":45,"x_max":783,"o":"m 392 0 l 392 461 l 45 1000 l 94 1000 l 279 707 l 411 507 l 416 507 l 548 707 l 734 1000 l 783 1000 l 435 461 l 435 0 l 392 0 m 220 1084 q 253 1178 222 1142 q 328 1214 283 1214 q 383 1200 360 1214 q 423 1168 406 1186 q 458 1136 441 1149 q 498 1122 476 1122 q 547 1149 530 1122 q 564 1214 564 1177 l 604 1214 q 576 1121 605 1158 q 498 1084 547 1084 q 447 1097 469 1084 q 406 1128 425 1110 q 368 1159 387 1145 q 326 1172 349 1172 q 281 1148 298 1172 q 263 1084 263 1124 l 220 1084 z "},"Z":{"ha":841,"x_min":95,"x_max":746,"o":"m 95 0 l 95 24 l 673 956 l 673 959 l 130 959 l 130 1000 l 732 1000 l 732 975 l 155 43 l 155 41 l 746 41 l 746 0 l 95 0 z "},"Ź":{"ha":841,"x_min":95,"x_max":746,"o":"m 95 0 l 95 24 l 673 956 l 673 959 l 130 959 l 130 1000 l 732 1000 l 732 975 l 155 43 l 155 41 l 746 41 l 746 0 l 95 0 m 437 1055 l 407 1089 l 598 1275 l 625 1245 l 437 1055 z "},"Ž":{"ha":841,"x_min":95,"x_max":746,"o":"m 95 0 l 95 24 l 673 956 l 673 959 l 130 959 l 130 1000 l 732 1000 l 732 975 l 155 43 l 155 41 l 746 41 l 746 0 l 95 0 m 267 1221 l 434 1086 l 444 1086 l 606 1221 l 633 1187 l 452 1044 l 426 1044 l 240 1187 l 267 1221 z "},"Ż":{"ha":841,"x_min":95,"x_max":746,"o":"m 95 0 l 95 24 l 673 956 l 673 959 l 130 959 l 130 1000 l 732 1000 l 732 975 l 155 43 l 155 41 l 746 41 l 746 0 l 95 0 m 435 1081 q 394 1098 411 1081 q 377 1139 377 1115 q 394 1181 377 1164 q 435 1198 411 1198 q 477 1181 460 1198 q 494 1139 494 1164 q 477 1098 494 1115 q 435 1081 460 1081 z "},"Ẓ":{"ha":841,"x_min":95,"x_max":746,"o":"m 95 0 l 95 24 l 673 956 l 673 959 l 130 959 l 130 1000 l 732 1000 l 732 975 l 155 43 l 155 41 l 746 41 l 746 0 l 95 0 m 442 -208 q 401 -191 418 -208 q 384 -149 384 -174 q 401 -108 384 -125 q 442 -91 418 -91 q 484 -108 467 -91 q 500 -149 500 -125 q 484 -191 500 -174 q 442 -208 467 -208 z "},"a":{"ha":718,"x_min":77,"x_max":646,"o":"m 300 -11 q 187 16 237 -11 q 107 88 136 42 q 77 191 77 134 q 117 307 77 257 q 234 384 157 356 q 422 411 311 411 l 556 411 l 556 373 l 422 373 q 195 322 273 373 q 118 191 118 271 q 142 109 118 146 q 208 49 167 71 q 300 27 250 27 q 415 58 359 27 q 506 138 470 89 q 541 244 541 188 l 541 374 l 541 381 l 541 469 q 533 557 541 517 q 504 624 525 596 q 447 668 484 652 q 353 684 410 684 q 284 674 323 684 q 208 647 245 664 q 144 610 170 631 l 125 644 q 193 684 152 666 q 277 711 234 701 q 355 722 321 722 q 469 702 425 722 q 538 647 513 682 q 572 565 562 611 q 582 464 582 518 l 582 157 q 599 73 582 106 q 640 28 616 41 l 646 26 l 631 -11 l 614 -3 q 565 47 581 15 q 541 127 549 80 l 547 122 l 530 122 l 541 127 q 446 31 509 72 q 300 -11 382 -11 z "},"á":{"ha":718,"x_min":77,"x_max":646,"o":"m 300 -11 q 187 16 237 -11 q 107 88 136 42 q 77 191 77 134 q 117 307 77 257 q 234 384 157 356 q 422 411 311 411 l 556 411 l 556 373 l 422 373 q 195 322 273 373 q 118 191 118 271 q 142 109 118 146 q 208 49 167 71 q 300 27 250 27 q 415 58 359 27 q 506 138 470 89 q 541 244 541 188 l 541 374 l 541 381 l 541 469 q 533 557 541 517 q 504 624 525 596 q 447 668 484 652 q 353 684 410 684 q 284 674 323 684 q 208 647 245 664 q 144 610 170 631 l 125 644 q 193 684 152 666 q 277 711 234 701 q 355 722 321 722 q 469 702 425 722 q 538 647 513 682 q 572 565 562 611 q 582 464 582 518 l 582 157 q 599 73 582 106 q 640 28 616 41 l 646 26 l 631 -11 l 614 -3 q 565 47 581 15 q 541 127 549 80 l 547 122 l 530 122 l 541 127 q 446 31 509 72 q 300 -11 382 -11 m 350 808 l 317 833 l 492 1046 l 522 1023 l 350 808 z "},"ă":{"ha":718,"x_min":77,"x_max":646,"o":"m 300 -11 q 187 16 237 -11 q 107 88 136 42 q 77 191 77 134 q 117 307 77 257 q 234 384 157 356 q 422 411 311 411 l 556 411 l 556 373 l 422 373 q 195 322 273 373 q 118 191 118 271 q 142 109 118 146 q 208 49 167 71 q 300 27 250 27 q 415 58 359 27 q 506 138 470 89 q 541 244 541 188 l 541 374 l 541 381 l 541 469 q 533 557 541 517 q 504 624 525 596 q 447 668 484 652 q 353 684 410 684 q 284 674 323 684 q 208 647 245 664 q 144 610 170 631 l 125 644 q 193 684 152 666 q 277 711 234 701 q 355 722 321 722 q 469 702 425 722 q 538 647 513 682 q 572 565 562 611 q 582 464 582 518 l 582 157 q 599 73 582 106 q 640 28 616 41 l 646 26 l 631 -11 l 614 -3 q 565 47 581 15 q 541 127 549 80 l 547 122 l 530 122 l 541 127 q 446 31 509 72 q 300 -11 382 -11 m 358 830 q 261 855 304 830 q 192 923 218 880 q 167 1020 167 966 l 205 1020 q 249 912 205 956 q 358 868 293 868 q 467 912 423 868 q 511 1020 511 956 l 549 1020 q 524 923 549 966 q 455 855 498 880 q 358 830 412 830 z "},"ắ":{"ha":718,"x_min":77,"x_max":646,"o":"m 300 -11 q 187 16 237 -11 q 107 88 136 42 q 77 191 77 134 q 117 307 77 257 q 234 384 157 356 q 422 411 311 411 l 556 411 l 556 373 l 422 373 q 195 322 273 373 q 118 191 118 271 q 142 109 118 146 q 208 49 167 71 q 300 27 250 27 q 415 58 359 27 q 506 138 470 89 q 541 244 541 188 l 541 374 l 541 381 l 541 469 q 533 557 541 517 q 504 624 525 596 q 447 668 484 652 q 353 684 410 684 q 284 674 323 684 q 208 647 245 664 q 144 610 170 631 l 125 644 q 193 684 152 666 q 277 711 234 701 q 355 722 321 722 q 469 702 425 722 q 538 647 513 682 q 572 565 562 611 q 582 464 582 518 l 582 157 q 599 73 582 106 q 640 28 616 41 l 646 26 l 631 -11 l 614 -3 q 565 47 581 15 q 541 127 549 80 l 547 122 l 530 122 l 541 127 q 446 31 509 72 q 300 -11 382 -11 m 335 936 l 309 966 l 499 1154 l 528 1124 l 335 936 m 354 830 q 257 853 300 830 q 188 915 214 876 q 164 1000 163 953 l 202 1000 q 247 907 202 945 q 354 868 292 868 q 461 907 416 868 q 506 1000 506 945 l 544 1000 q 518 915 544 953 q 449 853 492 876 q 354 830 406 830 z "},"ặ":{"ha":718,"x_min":77,"x_max":646,"o":"m 300 -11 q 187 16 237 -11 q 107 88 136 42 q 77 191 77 134 q 117 307 77 257 q 234 384 157 356 q 422 411 311 411 l 556 411 l 556 373 l 422 373 q 195 322 273 373 q 118 191 118 271 q 142 109 118 146 q 208 49 167 71 q 300 27 250 27 q 415 58 359 27 q 506 138 470 89 q 541 244 541 188 l 541 374 l 541 381 l 541 469 q 533 557 541 517 q 504 624 525 596 q 447 668 484 652 q 353 684 410 684 q 284 674 323 684 q 208 647 245 664 q 144 610 170 631 l 125 644 q 193 684 152 666 q 277 711 234 701 q 355 722 321 722 q 469 702 425 722 q 538 647 513 682 q 572 565 562 611 q 582 464 582 518 l 582 157 q 599 73 582 106 q 640 28 616 41 l 646 26 l 631 -11 l 614 -3 q 565 47 581 15 q 541 127 549 80 l 547 122 l 530 122 l 541 127 q 446 31 509 72 q 300 -11 382 -11 m 345 -208 q 303 -191 320 -208 q 286 -149 286 -174 q 303 -108 286 -125 q 345 -91 320 -91 q 386 -108 369 -91 q 403 -149 403 -125 q 386 -191 403 -174 q 345 -208 369 -208 m 358 830 q 261 855 304 830 q 192 923 218 880 q 167 1020 167 966 l 205 1020 q 249 912 205 956 q 358 868 293 868 q 467 912 423 868 q 511 1020 511 956 l 549 1020 q 524 923 549 966 q 455 855 498 880 q 358 830 412 830 z "},"ằ":{"ha":718,"x_min":77,"x_max":646,"o":"m 300 -11 q 187 16 237 -11 q 107 88 136 42 q 77 191 77 134 q 117 307 77 257 q 234 384 157 356 q 422 411 311 411 l 556 411 l 556 373 l 422 373 q 195 322 273 373 q 118 191 118 271 q 142 109 118 146 q 208 49 167 71 q 300 27 250 27 q 415 58 359 27 q 506 138 470 89 q 541 244 541 188 l 541 374 l 541 381 l 541 469 q 533 557 541 517 q 504 624 525 596 q 447 668 484 652 q 353 684 410 684 q 284 674 323 684 q 208 647 245 664 q 144 610 170 631 l 125 644 q 193 684 152 666 q 277 711 234 701 q 355 722 321 722 q 469 702 425 722 q 538 647 513 682 q 572 565 562 611 q 582 464 582 518 l 582 157 q 599 73 582 106 q 640 28 616 41 l 646 26 l 631 -11 l 614 -3 q 565 47 581 15 q 541 127 549 80 l 547 122 l 530 122 l 541 127 q 446 31 509 72 q 300 -11 382 -11 m 376 936 l 183 1124 l 212 1154 l 401 966 l 376 936 m 357 830 q 261 853 304 830 q 193 915 218 876 q 167 1000 167 953 l 205 1000 q 250 907 205 945 q 357 868 294 868 q 464 907 419 868 q 509 1000 509 945 l 547 1000 q 523 915 548 953 q 454 853 498 876 q 357 830 410 830 z "},"ẳ":{"ha":718,"x_min":77,"x_max":646,"o":"m 300 -11 q 187 16 237 -11 q 107 88 136 42 q 77 191 77 134 q 117 307 77 257 q 234 384 157 356 q 422 411 311 411 l 556 411 l 556 373 l 422 373 q 195 322 273 373 q 118 191 118 271 q 142 109 118 146 q 208 49 167 71 q 300 27 250 27 q 415 58 359 27 q 506 138 470 89 q 541 244 541 188 l 541 374 l 541 381 l 541 469 q 533 557 541 517 q 504 624 525 596 q 447 668 484 652 q 353 684 410 684 q 284 674 323 684 q 208 647 245 664 q 144 610 170 631 l 125 644 q 193 684 152 666 q 277 711 234 701 q 355 722 321 722 q 469 702 425 722 q 538 647 513 682 q 572 565 562 611 q 582 464 582 518 l 582 157 q 599 73 582 106 q 640 28 616 41 l 646 26 l 631 -11 l 614 -3 q 565 47 581 15 q 541 127 549 80 l 547 122 l 530 122 l 541 127 q 446 31 509 72 q 300 -11 382 -11 m 357 830 q 261 853 304 830 q 193 915 218 876 q 167 1000 167 953 l 205 1000 q 250 907 205 945 q 357 868 294 868 q 464 907 419 868 q 509 1000 509 945 l 547 1000 q 523 915 548 953 q 454 853 498 876 q 357 830 410 830 m 350 941 l 324 971 q 373 1010 354 987 q 392 1058 392 1034 q 372 1101 392 1086 q 319 1116 353 1116 q 279 1113 300 1116 q 241 1103 259 1109 l 241 1143 q 282 1153 260 1151 q 316 1156 304 1156 q 400 1129 371 1156 q 429 1061 429 1103 q 407 992 429 1026 q 350 941 386 959 z "},"ẵ":{"ha":718,"x_min":77,"x_max":646,"o":"m 300 -11 q 187 16 237 -11 q 107 88 136 42 q 77 191 77 134 q 117 307 77 257 q 234 384 157 356 q 422 411 311 411 l 556 411 l 556 373 l 422 373 q 195 322 273 373 q 118 191 118 271 q 142 109 118 146 q 208 49 167 71 q 300 27 250 27 q 415 58 359 27 q 506 138 470 89 q 541 244 541 188 l 541 374 l 541 381 l 541 469 q 533 557 541 517 q 504 624 525 596 q 447 668 484 652 q 353 684 410 684 q 284 674 323 684 q 208 647 245 664 q 144 610 170 631 l 125 644 q 193 684 152 666 q 277 711 234 701 q 355 722 321 722 q 469 702 425 722 q 538 647 513 682 q 572 565 562 611 q 582 464 582 518 l 582 157 q 599 73 582 106 q 640 28 616 41 l 646 26 l 631 -11 l 614 -3 q 565 47 581 15 q 541 127 549 80 l 547 122 l 530 122 l 541 127 q 446 31 509 72 q 300 -11 382 -11 m 164 1044 q 195 1133 164 1103 q 273 1162 225 1162 q 327 1151 304 1162 q 366 1124 349 1139 q 400 1097 383 1108 q 439 1085 418 1085 q 488 1105 470 1085 q 506 1162 506 1125 l 547 1162 q 534 1099 548 1126 q 496 1059 521 1073 q 438 1044 471 1044 q 388 1057 410 1044 q 349 1084 367 1069 q 312 1112 330 1100 q 270 1124 293 1124 q 223 1105 241 1124 q 205 1044 205 1086 l 164 1044 m 354 830 q 259 853 302 830 q 190 915 216 876 q 164 1000 164 953 l 202 1000 q 247 907 202 945 q 354 868 292 868 q 461 907 416 868 q 506 1000 506 945 l 544 1000 q 520 915 545 953 q 451 853 495 876 q 354 830 408 830 z "},"ǎ":{"ha":718,"x_min":77,"x_max":646,"o":"m 300 -11 q 187 16 237 -11 q 107 88 136 42 q 77 191 77 134 q 117 307 77 257 q 234 384 157 356 q 422 411 311 411 l 556 411 l 556 373 l 422 373 q 195 322 273 373 q 118 191 118 271 q 142 109 118 146 q 208 49 167 71 q 300 27 250 27 q 415 58 359 27 q 506 138 470 89 q 541 244 541 188 l 541 374 l 541 381 l 541 469 q 533 557 541 517 q 504 624 525 596 q 447 668 484 652 q 353 684 410 684 q 284 674 323 684 q 208 647 245 664 q 144 610 170 631 l 125 644 q 193 684 152 666 q 277 711 234 701 q 355 722 321 722 q 469 702 425 722 q 538 647 513 682 q 572 565 562 611 q 582 464 582 518 l 582 157 q 599 73 582 106 q 640 28 616 41 l 646 26 l 631 -11 l 614 -3 q 565 47 581 15 q 541 127 549 80 l 547 122 l 530 122 l 541 127 q 446 31 509 72 q 300 -11 382 -11 m 198 1028 l 353 867 l 358 867 l 513 1028 l 540 1000 l 366 822 l 345 822 l 171 1000 l 198 1028 z "},"â":{"ha":718,"x_min":77,"x_max":646,"o":"m 300 -11 q 187 16 237 -11 q 107 88 136 42 q 77 191 77 134 q 117 307 77 257 q 234 384 157 356 q 422 411 311 411 l 556 411 l 556 373 l 422 373 q 195 322 273 373 q 118 191 118 271 q 142 109 118 146 q 208 49 167 71 q 300 27 250 27 q 415 58 359 27 q 506 138 470 89 q 541 244 541 188 l 541 374 l 541 381 l 541 469 q 533 557 541 517 q 504 624 525 596 q 447 668 484 652 q 353 684 410 684 q 284 674 323 684 q 208 647 245 664 q 144 610 170 631 l 125 644 q 193 684 152 666 q 277 711 234 701 q 355 722 321 722 q 469 702 425 722 q 538 647 513 682 q 572 565 562 611 q 582 464 582 518 l 582 157 q 599 73 582 106 q 640 28 616 41 l 646 26 l 631 -11 l 614 -3 q 565 47 581 15 q 541 127 549 80 l 547 122 l 530 122 l 541 127 q 446 31 509 72 q 300 -11 382 -11 m 198 822 l 171 850 l 345 1028 l 366 1028 l 540 850 l 513 822 l 358 983 l 353 983 l 198 822 z "},"ấ":{"ha":718,"x_min":77,"x_max":696,"o":"m 300 -11 q 187 16 237 -11 q 107 88 136 42 q 77 191 77 134 q 117 307 77 257 q 234 384 157 356 q 422 411 311 411 l 556 411 l 556 373 l 422 373 q 195 322 273 373 q 118 191 118 271 q 142 109 118 146 q 208 49 167 71 q 300 27 250 27 q 415 58 359 27 q 506 138 470 89 q 541 244 541 188 l 541 374 l 541 381 l 541 469 q 533 557 541 517 q 504 624 525 596 q 447 668 484 652 q 353 684 410 684 q 284 674 323 684 q 208 647 245 664 q 144 610 170 631 l 125 644 q 193 684 152 666 q 277 711 234 701 q 355 722 321 722 q 469 702 425 722 q 538 647 513 682 q 572 565 562 611 q 582 464 582 518 l 582 157 q 599 73 582 106 q 640 28 616 41 l 646 26 l 631 -11 l 614 -3 q 565 47 581 15 q 541 127 549 80 l 547 122 l 530 122 l 541 127 q 446 31 509 72 q 300 -11 382 -11 m 517 949 l 487 981 l 662 1154 l 696 1122 l 517 949 m 189 822 l 161 853 l 347 1000 l 373 1000 l 555 853 l 528 822 l 365 952 l 355 952 l 189 822 z "},"ậ":{"ha":718,"x_min":77,"x_max":646,"o":"m 300 -11 q 187 16 237 -11 q 107 88 136 42 q 77 191 77 134 q 117 307 77 257 q 234 384 157 356 q 422 411 311 411 l 556 411 l 556 373 l 422 373 q 195 322 273 373 q 118 191 118 271 q 142 109 118 146 q 208 49 167 71 q 300 27 250 27 q 415 58 359 27 q 506 138 470 89 q 541 244 541 188 l 541 374 l 541 381 l 541 469 q 533 557 541 517 q 504 624 525 596 q 447 668 484 652 q 353 684 410 684 q 284 674 323 684 q 208 647 245 664 q 144 610 170 631 l 125 644 q 193 684 152 666 q 277 711 234 701 q 355 722 321 722 q 469 702 425 722 q 538 647 513 682 q 572 565 562 611 q 582 464 582 518 l 582 157 q 599 73 582 106 q 640 28 616 41 l 646 26 l 631 -11 l 614 -3 q 565 47 581 15 q 541 127 549 80 l 547 122 l 530 122 l 541 127 q 446 31 509 72 q 300 -11 382 -11 m 345 -208 q 303 -191 320 -208 q 286 -149 286 -174 q 303 -108 286 -125 q 345 -91 320 -91 q 386 -108 369 -91 q 403 -149 403 -125 q 386 -191 403 -174 q 345 -208 369 -208 m 198 822 l 171 850 l 345 1028 l 366 1028 l 540 850 l 513 822 l 358 983 l 353 983 l 198 822 z "},"ầ":{"ha":718,"x_min":15,"x_max":646,"o":"m 300 -11 q 187 16 237 -11 q 107 88 136 42 q 77 191 77 134 q 117 307 77 257 q 234 384 157 356 q 422 411 311 411 l 556 411 l 556 373 l 422 373 q 195 322 273 373 q 118 191 118 271 q 142 109 118 146 q 208 49 167 71 q 300 27 250 27 q 415 58 359 27 q 506 138 470 89 q 541 244 541 188 l 541 374 l 541 381 l 541 469 q 533 557 541 517 q 504 624 525 596 q 447 668 484 652 q 353 684 410 684 q 284 674 323 684 q 208 647 245 664 q 144 610 170 631 l 125 644 q 193 684 152 666 q 277 711 234 701 q 355 722 321 722 q 469 702 425 722 q 538 647 513 682 q 572 565 562 611 q 582 464 582 518 l 582 157 q 599 73 582 106 q 640 28 616 41 l 646 26 l 631 -11 l 614 -3 q 565 47 581 15 q 541 127 549 80 l 547 122 l 530 122 l 541 127 q 446 31 509 72 q 300 -11 382 -11 m 194 949 l 15 1122 l 49 1154 l 224 981 l 194 949 m 522 822 l 355 952 l 346 952 l 183 822 l 156 853 l 338 1000 l 363 1000 l 549 853 l 522 822 z "},"ẩ":{"ha":718,"x_min":77,"x_max":646,"o":"m 300 -11 q 187 16 237 -11 q 107 88 136 42 q 77 191 77 134 q 117 307 77 257 q 234 384 157 356 q 422 411 311 411 l 556 411 l 556 373 l 422 373 q 195 322 273 373 q 118 191 118 271 q 142 109 118 146 q 208 49 167 71 q 300 27 250 27 q 415 58 359 27 q 506 138 470 89 q 541 244 541 188 l 541 374 l 541 381 l 541 469 q 533 557 541 517 q 504 624 525 596 q 447 668 484 652 q 353 684 410 684 q 284 674 323 684 q 208 647 245 664 q 144 610 170 631 l 125 644 q 193 684 152 666 q 277 711 234 701 q 355 722 321 722 q 469 702 425 722 q 538 647 513 682 q 572 565 562 611 q 582 464 582 518 l 582 157 q 599 73 582 106 q 640 28 616 41 l 646 26 l 631 -11 l 614 -3 q 565 47 581 15 q 541 127 549 80 l 547 122 l 530 122 l 541 127 q 446 31 509 72 q 300 -11 382 -11 m 506 944 l 475 970 q 513 1013 496 988 q 530 1061 530 1038 q 511 1103 530 1087 q 458 1119 492 1119 q 420 1115 442 1119 q 381 1105 397 1112 l 381 1143 q 418 1153 397 1149 q 458 1157 439 1157 q 542 1132 511 1157 q 572 1063 572 1107 q 562 1020 572 1042 q 537 977 552 997 q 506 944 522 957 m 186 822 l 159 853 l 345 1000 l 370 1000 l 552 853 l 525 822 l 362 952 l 353 952 l 186 822 z "},"ẫ":{"ha":718,"x_min":77,"x_max":646,"o":"m 300 -11 q 187 16 237 -11 q 107 88 136 42 q 77 191 77 134 q 117 307 77 257 q 234 384 157 356 q 422 411 311 411 l 556 411 l 556 373 l 422 373 q 195 322 273 373 q 118 191 118 271 q 142 109 118 146 q 208 49 167 71 q 300 27 250 27 q 415 58 359 27 q 506 138 470 89 q 541 244 541 188 l 541 374 l 541 381 l 541 469 q 533 557 541 517 q 504 624 525 596 q 447 668 484 652 q 353 684 410 684 q 284 674 323 684 q 208 647 245 664 q 144 610 170 631 l 125 644 q 193 684 152 666 q 277 711 234 701 q 355 722 321 722 q 469 702 425 722 q 538 647 513 682 q 572 565 562 611 q 582 464 582 518 l 582 157 q 599 73 582 106 q 640 28 616 41 l 646 26 l 631 -11 l 614 -3 q 565 47 581 15 q 541 127 549 80 l 547 122 l 530 122 l 541 127 q 446 31 509 72 q 300 -11 382 -11 m 164 1044 q 195 1133 164 1103 q 273 1162 225 1162 q 327 1151 304 1162 q 366 1124 349 1139 q 400 1097 383 1108 q 439 1085 418 1085 q 488 1105 470 1085 q 506 1162 506 1125 l 547 1162 q 534 1098 548 1124 q 494 1058 519 1072 q 438 1044 469 1044 q 388 1057 410 1044 q 348 1084 366 1069 q 310 1112 329 1100 q 269 1124 292 1124 q 224 1105 243 1124 q 205 1044 205 1086 l 164 1044 m 186 822 l 159 853 l 345 1000 l 370 1000 l 552 853 l 525 822 l 362 952 l 353 952 l 186 822 z "},"ȁ":{"ha":718,"x_min":77,"x_max":646,"o":"m 300 -11 q 187 16 237 -11 q 107 88 136 42 q 77 191 77 134 q 117 307 77 257 q 234 384 157 356 q 422 411 311 411 l 556 411 l 556 373 l 422 373 q 195 322 273 373 q 118 191 118 271 q 142 109 118 146 q 208 49 167 71 q 300 27 250 27 q 415 58 359 27 q 506 138 470 89 q 541 244 541 188 l 541 374 l 541 381 l 541 469 q 533 557 541 517 q 504 624 525 596 q 447 668 484 652 q 353 684 410 684 q 284 674 323 684 q 208 647 245 664 q 144 610 170 631 l 125 644 q 193 684 152 666 q 277 711 234 701 q 355 722 321 722 q 469 702 425 722 q 538 647 513 682 q 572 565 562 611 q 582 464 582 518 l 582 157 q 599 73 582 106 q 640 28 616 41 l 646 26 l 631 -11 l 614 -3 q 565 47 581 15 q 541 127 549 80 l 547 122 l 530 122 l 541 127 q 446 31 509 72 q 300 -11 382 -11 m 464 808 l 305 1050 l 343 1076 l 490 822 l 464 808 m 283 808 l 125 1050 l 160 1076 l 309 822 l 283 808 z "},"ä":{"ha":718,"x_min":77,"x_max":646,"o":"m 300 -11 q 187 16 237 -11 q 107 88 136 42 q 77 191 77 134 q 117 307 77 257 q 234 384 157 356 q 422 411 311 411 l 556 411 l 556 373 l 422 373 q 195 322 273 373 q 118 191 118 271 q 142 109 118 146 q 208 49 167 71 q 300 27 250 27 q 415 58 359 27 q 506 138 470 89 q 541 244 541 188 l 541 374 l 541 381 l 541 469 q 533 557 541 517 q 504 624 525 596 q 447 668 484 652 q 353 684 410 684 q 284 674 323 684 q 208 647 245 664 q 144 610 170 631 l 125 644 q 193 684 152 666 q 277 711 234 701 q 355 722 321 722 q 469 702 425 722 q 538 647 513 682 q 572 565 562 611 q 582 464 582 518 l 582 157 q 599 73 582 106 q 640 28 616 41 l 646 26 l 631 -11 l 614 -3 q 565 47 581 15 q 541 127 549 80 l 547 122 l 530 122 l 541 127 q 446 31 509 72 q 300 -11 382 -11 m 467 853 q 425 870 441 853 q 408 911 408 886 q 425 953 408 937 q 467 970 441 970 q 508 953 492 970 q 525 911 525 937 q 508 870 525 886 q 467 853 492 853 m 244 853 q 202 870 219 853 q 186 911 186 886 q 202 953 186 937 q 244 970 219 970 q 286 953 269 970 q 302 911 302 937 q 286 870 302 886 q 244 853 269 853 z "},"ȧ":{"ha":718,"x_min":77,"x_max":646,"o":"m 300 -11 q 187 16 237 -11 q 107 88 136 42 q 77 191 77 134 q 117 307 77 257 q 234 384 157 356 q 422 411 311 411 l 556 411 l 556 373 l 422 373 q 195 322 273 373 q 118 191 118 271 q 142 109 118 146 q 208 49 167 71 q 300 27 250 27 q 415 58 359 27 q 506 138 470 89 q 541 244 541 188 l 541 374 l 541 381 l 541 469 q 533 557 541 517 q 504 624 525 596 q 447 668 484 652 q 353 684 410 684 q 284 674 323 684 q 208 647 245 664 q 144 610 170 631 l 125 644 q 193 684 152 666 q 277 711 234 701 q 355 722 321 722 q 469 702 425 722 q 538 647 513 682 q 572 565 562 611 q 582 464 582 518 l 582 157 q 599 73 582 106 q 640 28 616 41 l 646 26 l 631 -11 l 614 -3 q 565 47 581 15 q 541 127 549 80 l 547 122 l 530 122 l 541 127 q 446 31 509 72 q 300 -11 382 -11 m 355 853 q 314 870 331 853 q 297 911 297 887 q 314 953 297 936 q 355 970 331 970 q 397 953 380 970 q 414 911 414 936 q 397 870 414 887 q 355 853 380 853 z "},"ạ":{"ha":718,"x_min":77,"x_max":646,"o":"m 300 -11 q 187 16 237 -11 q 107 88 136 42 q 77 191 77 134 q 117 307 77 257 q 234 384 157 356 q 422 411 311 411 l 556 411 l 556 373 l 422 373 q 195 322 273 373 q 118 191 118 271 q 142 109 118 146 q 208 49 167 71 q 300 27 250 27 q 415 58 359 27 q 506 138 470 89 q 541 244 541 188 l 541 374 l 541 381 l 541 469 q 533 557 541 517 q 504 624 525 596 q 447 668 484 652 q 353 684 410 684 q 284 674 323 684 q 208 647 245 664 q 144 610 170 631 l 125 644 q 193 684 152 666 q 277 711 234 701 q 355 722 321 722 q 469 702 425 722 q 538 647 513 682 q 572 565 562 611 q 582 464 582 518 l 582 157 q 599 73 582 106 q 640 28 616 41 l 646 26 l 631 -11 l 614 -3 q 565 47 581 15 q 541 127 549 80 l 547 122 l 530 122 l 541 127 q 446 31 509 72 q 300 -11 382 -11 m 345 -208 q 303 -191 320 -208 q 286 -149 286 -174 q 303 -108 286 -125 q 345 -91 320 -91 q 386 -108 369 -91 q 403 -149 403 -125 q 386 -191 403 -174 q 345 -208 369 -208 z "},"à":{"ha":718,"x_min":77,"x_max":646,"o":"m 300 -11 q 187 16 237 -11 q 107 88 136 42 q 77 191 77 134 q 117 307 77 257 q 234 384 157 356 q 422 411 311 411 l 556 411 l 556 373 l 422 373 q 195 322 273 373 q 118 191 118 271 q 142 109 118 146 q 208 49 167 71 q 300 27 250 27 q 415 58 359 27 q 506 138 470 89 q 541 244 541 188 l 541 374 l 541 381 l 541 469 q 533 557 541 517 q 504 624 525 596 q 447 668 484 652 q 353 684 410 684 q 284 674 323 684 q 208 647 245 664 q 144 610 170 631 l 125 644 q 193 684 152 666 q 277 711 234 701 q 355 722 321 722 q 469 702 425 722 q 538 647 513 682 q 572 565 562 611 q 582 464 582 518 l 582 157 q 599 73 582 106 q 640 28 616 41 l 646 26 l 631 -11 l 614 -3 q 565 47 581 15 q 541 127 549 80 l 547 122 l 530 122 l 541 127 q 446 31 509 72 q 300 -11 382 -11 m 361 808 l 189 1023 l 218 1046 l 393 833 l 361 808 z "},"ả":{"ha":718,"x_min":77,"x_max":646,"o":"m 300 -11 q 187 16 237 -11 q 107 88 136 42 q 77 191 77 134 q 117 307 77 257 q 234 384 157 356 q 422 411 311 411 l 556 411 l 556 373 l 422 373 q 195 322 273 373 q 118 191 118 271 q 142 109 118 146 q 208 49 167 71 q 300 27 250 27 q 415 58 359 27 q 506 138 470 89 q 541 244 541 188 l 541 374 l 541 381 l 541 469 q 533 557 541 517 q 504 624 525 596 q 447 668 484 652 q 353 684 410 684 q 284 674 323 684 q 208 647 245 664 q 144 610 170 631 l 125 644 q 193 684 152 666 q 277 711 234 701 q 355 722 321 722 q 469 702 425 722 q 538 647 513 682 q 572 565 562 611 q 582 464 582 518 l 582 157 q 599 73 582 106 q 640 28 616 41 l 646 26 l 631 -11 l 614 -3 q 565 47 581 15 q 541 127 549 80 l 547 122 l 530 122 l 541 127 q 446 31 509 72 q 300 -11 382 -11 m 372 808 l 346 838 q 395 877 376 854 q 414 925 414 901 q 394 968 414 953 q 340 983 374 983 q 301 980 321 983 q 263 970 281 976 l 263 1010 q 303 1020 281 1018 q 338 1023 326 1023 q 421 997 393 1023 q 450 928 450 970 q 429 860 450 893 q 372 808 408 826 z "},"ȃ":{"ha":718,"x_min":77,"x_max":646,"o":"m 300 -11 q 187 16 237 -11 q 107 88 136 42 q 77 191 77 134 q 117 307 77 257 q 234 384 157 356 q 422 411 311 411 l 556 411 l 556 373 l 422 373 q 195 322 273 373 q 118 191 118 271 q 142 109 118 146 q 208 49 167 71 q 300 27 250 27 q 415 58 359 27 q 506 138 470 89 q 541 244 541 188 l 541 374 l 541 381 l 541 469 q 533 557 541 517 q 504 624 525 596 q 447 668 484 652 q 353 684 410 684 q 284 674 323 684 q 208 647 245 664 q 144 610 170 631 l 125 644 q 193 684 152 666 q 277 711 234 701 q 355 722 321 722 q 469 702 425 722 q 538 647 513 682 q 572 565 562 611 q 582 464 582 518 l 582 157 q 599 73 582 106 q 640 28 616 41 l 646 26 l 631 -11 l 614 -3 q 565 47 581 15 q 541 127 549 80 l 547 122 l 530 122 l 541 127 q 446 31 509 72 q 300 -11 382 -11 m 355 1025 q 453 1000 410 1025 q 521 932 496 975 q 547 836 547 889 l 509 836 q 465 944 509 900 q 355 987 420 987 q 246 944 290 987 q 202 836 202 900 l 164 836 q 190 932 164 889 q 258 1000 215 975 q 355 1025 302 1025 z "},"ā":{"ha":718,"x_min":77,"x_max":646,"o":"m 300 -11 q 187 16 237 -11 q 107 88 136 42 q 77 191 77 134 q 117 307 77 257 q 234 384 157 356 q 422 411 311 411 l 556 411 l 556 373 l 422 373 q 195 322 273 373 q 118 191 118 271 q 142 109 118 146 q 208 49 167 71 q 300 27 250 27 q 415 58 359 27 q 506 138 470 89 q 541 244 541 188 l 541 374 l 541 381 l 541 469 q 533 557 541 517 q 504 624 525 596 q 447 668 484 652 q 353 684 410 684 q 284 674 323 684 q 208 647 245 664 q 144 610 170 631 l 125 644 q 193 684 152 666 q 277 711 234 701 q 355 722 321 722 q 469 702 425 722 q 538 647 513 682 q 572 565 562 611 q 582 464 582 518 l 582 157 q 599 73 582 106 q 640 28 616 41 l 646 26 l 631 -11 l 614 -3 q 565 47 581 15 q 541 127 549 80 l 547 122 l 530 122 l 541 127 q 446 31 509 72 q 300 -11 382 -11 m 146 894 l 146 933 l 562 933 l 562 894 l 146 894 z "},"ą":{"ha":718,"x_min":77,"x_max":650,"o":"m 578 -264 q 504 -235 524 -264 q 484 -175 484 -206 q 502 -110 484 -141 q 547 -48 520 -79 q 601 16 574 -17 l 631 -11 q 555 -95 589 -54 q 521 -175 521 -135 q 536 -212 521 -198 q 576 -225 552 -225 q 608 -221 591 -225 q 650 -203 625 -218 l 650 -244 q 609 -261 631 -257 q 578 -264 588 -264 m 300 -11 q 187 16 237 -11 q 107 88 136 42 q 77 191 77 134 q 117 307 77 257 q 234 384 157 356 q 422 411 311 411 l 556 411 l 556 373 l 422 373 q 195 322 273 373 q 118 191 118 271 q 142 109 118 146 q 208 49 167 71 q 300 27 250 27 q 415 58 359 27 q 506 138 470 89 q 541 244 541 188 l 541 374 l 541 381 l 541 469 q 533 557 541 517 q 504 624 525 596 q 447 668 484 652 q 353 684 410 684 q 284 674 323 684 q 208 647 245 664 q 144 610 170 631 l 125 644 q 193 684 152 666 q 277 711 234 701 q 355 722 321 722 q 469 702 425 722 q 538 647 513 682 q 572 565 562 611 q 582 464 582 518 l 582 157 q 599 73 582 106 q 640 28 616 41 l 646 26 l 631 -11 l 614 -3 q 565 47 581 15 q 541 127 549 80 l 547 122 l 530 122 l 541 127 q 446 31 509 72 q 300 -11 382 -11 z "},"å":{"ha":718,"x_min":77,"x_max":646,"o":"m 300 -11 q 187 16 237 -11 q 107 88 136 42 q 77 191 77 134 q 117 307 77 257 q 234 384 157 356 q 422 411 311 411 l 556 411 l 556 373 l 422 373 q 195 322 273 373 q 118 191 118 271 q 142 109 118 146 q 208 49 167 71 q 300 27 250 27 q 415 58 359 27 q 506 138 470 89 q 541 244 541 188 l 541 374 l 541 381 l 541 469 q 533 557 541 517 q 504 624 525 596 q 447 668 484 652 q 353 684 410 684 q 284 674 323 684 q 208 647 245 664 q 144 610 170 631 l 125 644 q 193 684 152 666 q 277 711 234 701 q 355 722 321 722 q 469 702 425 722 q 538 647 513 682 q 572 565 562 611 q 582 464 582 518 l 582 157 q 599 73 582 106 q 640 28 616 41 l 646 26 l 631 -11 l 614 -3 q 565 47 581 15 q 541 127 549 80 l 547 122 l 530 122 l 541 127 q 446 31 509 72 q 300 -11 382 -11 m 355 811 q 269 847 304 811 q 233 933 233 882 q 269 1020 233 984 q 355 1055 304 1055 q 442 1020 406 1055 q 477 933 477 984 q 442 847 477 882 q 355 811 406 811 m 355 849 q 415 874 391 849 q 439 933 439 899 q 415 993 439 969 q 355 1017 391 1017 q 296 993 321 1017 q 271 933 271 969 q 296 874 271 899 q 355 849 321 849 z "},"ǻ":{"ha":718,"x_min":77,"x_max":646,"o":"m 355 811 q 269 847 304 811 q 233 933 233 882 q 269 1020 233 984 q 355 1055 304 1055 q 442 1020 406 1055 q 477 933 477 984 q 442 847 477 882 q 355 811 406 811 m 355 849 q 415 874 391 849 q 439 933 439 899 q 415 993 439 969 q 355 1017 391 1017 q 296 993 321 1017 q 271 933 271 969 q 296 874 271 899 q 355 849 321 849 m 369 1082 l 339 1116 l 530 1302 l 557 1272 l 369 1082 m 300 -11 q 187 16 237 -11 q 107 88 136 42 q 77 191 77 134 q 117 307 77 257 q 234 384 157 356 q 422 411 311 411 l 556 411 l 556 373 l 422 373 q 195 322 273 373 q 118 191 118 271 q 142 109 118 146 q 208 49 167 71 q 300 27 250 27 q 415 58 359 27 q 506 138 470 89 q 541 244 541 188 l 541 374 l 541 381 l 541 469 q 533 557 541 517 q 504 624 525 596 q 447 668 484 652 q 353 684 410 684 q 284 674 323 684 q 208 647 245 664 q 144 610 170 631 l 125 644 q 193 684 152 666 q 277 711 234 701 q 355 722 321 722 q 469 702 425 722 q 538 647 513 682 q 572 565 562 611 q 582 464 582 518 l 582 157 q 599 73 582 106 q 640 28 616 41 l 646 26 l 631 -11 l 614 -3 q 565 47 581 15 q 541 127 549 80 l 547 122 l 530 122 l 541 127 q 446 31 509 72 q 300 -11 382 -11 z "},"ã":{"ha":718,"x_min":77,"x_max":646,"o":"m 300 -11 q 187 16 237 -11 q 107 88 136 42 q 77 191 77 134 q 117 307 77 257 q 234 384 157 356 q 422 411 311 411 l 556 411 l 556 373 l 422 373 q 195 322 273 373 q 118 191 118 271 q 142 109 118 146 q 208 49 167 71 q 300 27 250 27 q 415 58 359 27 q 506 138 470 89 q 541 244 541 188 l 541 374 l 541 381 l 541 469 q 533 557 541 517 q 504 624 525 596 q 447 668 484 652 q 353 684 410 684 q 284 674 323 684 q 208 647 245 664 q 144 610 170 631 l 125 644 q 193 684 152 666 q 277 711 234 701 q 355 722 321 722 q 469 702 425 722 q 538 647 513 682 q 572 565 562 611 q 582 464 582 518 l 582 157 q 599 73 582 106 q 640 28 616 41 l 646 26 l 631 -11 l 614 -3 q 565 47 581 15 q 541 127 549 80 l 547 122 l 530 122 l 541 127 q 446 31 509 72 q 300 -11 382 -11 m 165 842 q 196 936 165 899 q 274 972 227 972 q 327 959 305 972 q 366 928 349 945 q 400 897 383 910 q 439 883 418 883 q 489 909 471 883 q 507 972 507 935 l 548 972 q 519 881 548 920 q 439 842 490 842 q 390 856 411 842 q 350 888 368 869 q 313 920 332 906 q 271 933 294 933 q 224 909 242 933 q 206 842 206 884 l 165 842 z "},"æ":{"ha":1183,"x_min":77,"x_max":1108,"o":"m 297 -11 q 184 14 233 -11 q 106 82 134 38 q 77 186 77 126 q 164 337 77 287 q 411 387 250 387 l 541 387 l 541 349 l 406 349 q 189 306 260 349 q 118 186 118 263 q 168 72 118 117 q 293 27 218 27 q 403 54 348 27 q 494 135 458 81 q 530 270 530 189 l 530 471 q 527 530 530 494 q 509 601 524 565 q 457 660 493 636 q 355 684 421 684 q 238 663 298 684 q 136 610 178 643 l 117 644 q 225 700 159 678 q 358 722 291 722 q 510 669 461 722 q 568 529 558 616 l 559 529 q 621 635 582 593 q 710 700 659 678 q 821 722 761 722 q 938 698 885 722 q 1028 631 990 675 q 1087 526 1067 587 q 1108 388 1108 465 q 1107 368 1108 379 q 1105 349 1107 357 l 563 349 l 563 387 l 1063 387 q 1037 540 1065 473 q 955 645 1009 607 q 823 684 900 684 q 693 646 750 684 q 604 537 636 608 q 571 365 571 466 q 591 224 571 287 q 646 118 610 162 q 729 51 681 74 q 834 27 777 27 q 956 55 901 27 q 1053 118 1012 83 l 1069 80 q 967 16 1028 43 q 833 -11 905 -11 q 660 45 730 -11 q 556 199 589 102 l 563 199 q 512 93 548 141 q 421 17 476 45 q 297 -11 367 -11 z "},"ǽ":{"ha":1183,"x_min":77,"x_max":1108,"o":"m 297 -11 q 184 14 233 -11 q 106 82 134 38 q 77 186 77 126 q 164 337 77 287 q 411 387 250 387 l 541 387 l 541 349 l 406 349 q 189 306 260 349 q 118 186 118 263 q 168 72 118 117 q 293 27 218 27 q 403 54 348 27 q 494 135 458 81 q 530 270 530 189 l 530 471 q 527 530 530 494 q 509 601 524 565 q 457 660 493 636 q 355 684 421 684 q 238 663 298 684 q 136 610 178 643 l 117 644 q 225 700 159 678 q 358 722 291 722 q 510 669 461 722 q 568 529 558 616 l 559 529 q 621 635 582 593 q 710 700 659 678 q 821 722 761 722 q 938 698 885 722 q 1028 631 990 675 q 1087 526 1067 587 q 1108 388 1108 465 q 1107 368 1108 379 q 1105 349 1107 357 l 563 349 l 563 387 l 1063 387 q 1037 540 1065 473 q 955 645 1009 607 q 823 684 900 684 q 693 646 750 684 q 604 537 636 608 q 571 365 571 466 q 591 224 571 287 q 646 118 610 162 q 729 51 681 74 q 834 27 777 27 q 956 55 901 27 q 1053 118 1012 83 l 1069 80 q 967 16 1028 43 q 833 -11 905 -11 q 660 45 730 -11 q 556 199 589 102 l 563 199 q 512 93 548 141 q 421 17 476 45 q 297 -11 367 -11 m 552 808 l 519 833 l 694 1046 l 724 1023 l 552 808 z "},"b":{"ha":818,"x_min":117,"x_max":739,"o":"m 117 0 l 117 1044 l 157 1044 l 157 566 l 171 566 l 149 494 l 149 212 l 179 152 l 157 152 l 157 0 l 117 0 m 427 -11 q 274 30 345 -11 q 162 152 204 70 q 119 358 119 233 q 161 564 119 484 q 273 683 203 644 q 427 722 343 722 q 592 678 522 722 q 701 553 663 635 q 739 355 739 471 q 717 202 739 270 q 653 87 694 134 q 555 14 612 39 q 427 -11 498 -11 m 430 26 q 567 66 507 26 q 663 181 628 107 q 699 355 699 255 q 664 532 699 458 q 569 646 630 606 q 430 685 509 685 q 296 649 358 685 q 197 540 235 613 q 159 355 159 467 q 193 186 159 261 q 289 69 228 112 q 430 26 350 26 z "},"c":{"ha":701,"x_min":79,"x_max":640,"o":"m 415 -8 q 287 19 347 -8 q 179 96 226 47 q 105 213 132 146 q 79 358 79 279 q 107 505 79 438 q 183 620 135 571 q 293 695 231 668 q 420 722 354 722 q 535 703 475 722 q 637 650 594 684 l 618 610 q 559 652 595 635 q 487 676 524 668 q 420 684 450 684 q 274 642 342 684 q 162 527 205 600 q 119 358 119 453 q 160 191 119 265 q 269 73 201 117 q 418 30 337 30 q 537 55 482 30 q 621 113 592 79 l 640 72 q 536 13 595 33 q 415 -8 477 -8 z "},"ć":{"ha":701,"x_min":79,"x_max":640,"o":"m 415 -8 q 287 19 347 -8 q 179 96 226 47 q 105 213 132 146 q 79 358 79 279 q 107 505 79 438 q 183 620 135 571 q 293 695 231 668 q 420 722 354 722 q 535 703 475 722 q 637 650 594 684 l 618 610 q 559 652 595 635 q 487 676 524 668 q 420 684 450 684 q 274 642 342 684 q 162 527 205 600 q 119 358 119 453 q 160 191 119 265 q 269 73 201 117 q 418 30 337 30 q 537 55 482 30 q 621 113 592 79 l 640 72 q 536 13 595 33 q 415 -8 477 -8 m 396 808 l 363 833 l 538 1046 l 568 1023 l 396 808 z "},"č":{"ha":701,"x_min":79,"x_max":640,"o":"m 415 -8 q 287 19 347 -8 q 179 96 226 47 q 105 213 132 146 q 79 358 79 279 q 107 505 79 438 q 183 620 135 571 q 293 695 231 668 q 420 722 354 722 q 535 703 475 722 q 637 650 594 684 l 618 610 q 559 652 595 635 q 487 676 524 668 q 420 684 450 684 q 274 642 342 684 q 162 527 205 600 q 119 358 119 453 q 160 191 119 265 q 269 73 201 117 q 418 30 337 30 q 537 55 482 30 q 621 113 592 79 l 640 72 q 536 13 595 33 q 415 -8 477 -8 m 244 1028 l 399 867 l 404 867 l 559 1028 l 586 1000 l 412 822 l 391 822 l 217 1000 l 244 1028 z "},"ç":{"ha":701,"x_min":79,"x_max":640,"o":"m 415 -8 q 287 19 347 -8 q 179 96 226 47 q 105 213 132 146 q 79 358 79 279 q 107 505 79 438 q 183 620 135 571 q 293 695 231 668 q 420 722 354 722 q 535 703 475 722 q 637 650 594 684 l 618 610 q 559 652 595 635 q 487 676 524 668 q 420 684 450 684 q 274 642 342 684 q 162 527 205 600 q 119 358 119 453 q 160 191 119 265 q 269 73 201 117 q 418 30 337 30 q 537 55 482 30 q 621 113 592 79 l 640 72 q 536 13 595 33 q 415 -8 477 -8 m 313 -292 l 313 -250 q 422 -237 380 -252 q 464 -180 464 -222 q 434 -133 464 -152 q 355 -114 404 -114 l 391 0 l 434 0 l 399 -109 l 388 -80 q 472 -117 443 -89 q 500 -183 500 -145 q 451 -265 500 -238 q 313 -292 402 -292 z "},"ḉ":{"ha":701,"x_min":79,"x_max":640,"o":"m 415 -8 q 287 19 347 -8 q 179 96 226 47 q 105 213 132 146 q 79 358 79 279 q 107 505 79 438 q 183 620 135 571 q 293 695 231 668 q 420 722 354 722 q 535 703 475 722 q 637 650 594 684 l 618 610 q 559 652 595 635 q 487 676 524 668 q 420 684 450 684 q 274 642 342 684 q 162 527 205 600 q 119 358 119 453 q 160 191 119 265 q 269 73 201 117 q 418 30 337 30 q 537 55 482 30 q 621 113 592 79 l 640 72 q 536 13 595 33 q 415 -8 477 -8 m 313 -292 l 313 -250 q 422 -237 380 -252 q 464 -180 464 -222 q 434 -133 464 -152 q 355 -114 404 -114 l 391 0 l 434 0 l 399 -109 l 388 -80 q 472 -117 443 -89 q 500 -183 500 -145 q 451 -265 500 -238 q 313 -292 402 -292 m 396 808 l 363 833 l 538 1046 l 568 1023 l 396 808 z "},"ĉ":{"ha":701,"x_min":79,"x_max":640,"o":"m 415 -8 q 287 19 347 -8 q 179 96 226 47 q 105 213 132 146 q 79 358 79 279 q 107 505 79 438 q 183 620 135 571 q 293 695 231 668 q 420 722 354 722 q 535 703 475 722 q 637 650 594 684 l 618 610 q 559 652 595 635 q 487 676 524 668 q 420 684 450 684 q 274 642 342 684 q 162 527 205 600 q 119 358 119 453 q 160 191 119 265 q 269 73 201 117 q 418 30 337 30 q 537 55 482 30 q 621 113 592 79 l 640 72 q 536 13 595 33 q 415 -8 477 -8 m 244 822 l 217 850 l 391 1028 l 412 1028 l 586 850 l 559 822 l 404 983 l 399 983 l 244 822 z "},"ċ":{"ha":701,"x_min":79,"x_max":640,"o":"m 415 -8 q 287 19 347 -8 q 179 96 226 47 q 105 213 132 146 q 79 358 79 279 q 107 505 79 438 q 183 620 135 571 q 293 695 231 668 q 420 722 354 722 q 535 703 475 722 q 637 650 594 684 l 618 610 q 559 652 595 635 q 487 676 524 668 q 420 684 450 684 q 274 642 342 684 q 162 527 205 600 q 119 358 119 453 q 160 191 119 265 q 269 73 201 117 q 418 30 337 30 q 537 55 482 30 q 621 113 592 79 l 640 72 q 536 13 595 33 q 415 -8 477 -8 m 401 853 q 360 870 377 853 q 343 911 343 887 q 360 953 343 936 q 401 970 377 970 q 443 953 426 970 q 460 911 460 936 q 443 870 460 887 q 401 853 426 853 z "},"d":{"ha":833,"x_min":79,"x_max":762,"o":"m 743 -11 q 697 25 715 6 q 669 75 679 44 q 658 159 660 106 l 663 151 l 644 151 l 666 199 l 666 513 l 642 566 l 658 566 l 658 1044 l 699 1044 l 699 157 q 712 72 699 98 q 762 26 725 45 l 743 -11 m 391 -11 q 263 14 321 -11 q 164 87 205 39 q 101 202 123 134 q 79 355 79 270 q 117 553 79 471 q 225 678 155 635 q 391 722 296 722 q 545 683 475 722 q 656 564 614 644 q 699 358 699 484 q 656 152 699 233 q 544 30 614 70 q 391 -11 473 -11 m 388 26 q 529 69 468 26 q 625 186 590 112 q 659 355 659 261 q 621 540 659 467 q 522 649 583 613 q 388 685 460 685 q 249 646 309 685 q 154 532 188 606 q 119 355 119 458 q 155 181 119 255 q 251 66 190 107 q 388 26 311 26 z "},"ď":{"ha":833,"x_min":79,"x_max":834,"o":"m 743 -11 q 697 25 715 6 q 669 75 679 44 q 658 159 660 106 l 663 151 l 644 151 l 666 199 l 666 513 l 642 566 l 658 566 l 658 1044 l 699 1044 l 699 157 q 712 72 699 98 q 762 26 725 45 l 743 -11 m 391 -11 q 263 14 321 -11 q 164 87 205 39 q 101 202 123 134 q 79 355 79 270 q 117 553 79 471 q 225 678 155 635 q 391 722 296 722 q 545 683 475 722 q 656 564 614 644 q 699 358 699 484 q 656 152 699 233 q 544 30 614 70 q 391 -11 473 -11 m 388 26 q 529 69 468 26 q 625 186 590 112 q 659 355 659 261 q 621 540 659 467 q 522 649 583 613 q 388 685 460 685 q 249 646 309 685 q 154 532 188 606 q 119 355 119 458 q 155 181 119 255 q 251 66 190 107 q 388 26 311 26 m 785 769 l 792 1044 l 834 1044 l 823 769 l 785 769 z "},"đ":{"ha":833,"x_min":79,"x_max":821,"o":"m 743 -11 q 697 25 715 6 q 669 75 679 44 q 658 159 660 106 l 663 151 l 644 151 l 666 199 l 666 513 l 642 566 l 658 566 l 658 1044 l 699 1044 l 699 157 q 712 72 699 98 q 762 26 725 45 l 743 -11 m 391 -11 q 263 14 321 -11 q 164 87 205 39 q 101 202 123 134 q 79 355 79 270 q 117 553 79 471 q 225 678 155 635 q 391 722 296 722 q 545 683 475 722 q 656 564 614 644 q 699 358 699 484 q 656 152 699 233 q 544 30 614 70 q 391 -11 473 -11 m 388 26 q 529 69 468 26 q 625 186 590 112 q 659 355 659 261 q 621 540 659 467 q 522 649 583 613 q 388 685 460 685 q 249 646 309 685 q 154 532 188 606 q 119 355 119 458 q 155 181 119 255 q 251 66 190 107 q 388 26 311 26 m 538 837 l 538 875 l 821 875 l 821 837 l 538 837 z "},"ḍ":{"ha":833,"x_min":79,"x_max":762,"o":"m 743 -11 q 697 25 715 6 q 669 75 679 44 q 658 159 660 106 l 663 151 l 644 151 l 666 199 l 666 513 l 642 566 l 658 566 l 658 1044 l 699 1044 l 699 157 q 712 72 699 98 q 762 26 725 45 l 743 -11 m 391 -11 q 263 14 321 -11 q 164 87 205 39 q 101 202 123 134 q 79 355 79 270 q 117 553 79 471 q 225 678 155 635 q 391 722 296 722 q 545 683 475 722 q 656 564 614 644 q 699 358 699 484 q 656 152 699 233 q 544 30 614 70 q 391 -11 473 -11 m 388 26 q 529 69 468 26 q 625 186 590 112 q 659 355 659 261 q 621 540 659 467 q 522 649 583 613 q 388 685 460 685 q 249 646 309 685 q 154 532 188 606 q 119 355 119 458 q 155 181 119 255 q 251 66 190 107 q 388 26 311 26 m 418 -208 q 376 -191 393 -208 q 359 -149 359 -174 q 376 -108 359 -125 q 418 -91 393 -91 q 459 -108 442 -91 q 476 -149 476 -125 q 459 -191 476 -174 q 418 -208 442 -208 z "},"ḏ":{"ha":833,"x_min":79,"x_max":762,"o":"m 743 -11 q 697 25 715 6 q 669 75 679 44 q 658 159 660 106 l 663 151 l 644 151 l 666 199 l 666 513 l 642 566 l 658 566 l 658 1044 l 699 1044 l 699 157 q 712 72 699 98 q 762 26 725 45 l 743 -11 m 391 -11 q 263 14 321 -11 q 164 87 205 39 q 101 202 123 134 q 79 355 79 270 q 117 553 79 471 q 225 678 155 635 q 391 722 296 722 q 545 683 475 722 q 656 564 614 644 q 699 358 699 484 q 656 152 699 233 q 544 30 614 70 q 391 -11 473 -11 m 388 26 q 529 69 468 26 q 625 186 590 112 q 659 355 659 261 q 621 540 659 467 q 522 649 583 613 q 388 685 460 685 q 249 646 309 685 q 154 532 188 606 q 119 355 119 458 q 155 181 119 255 q 251 66 190 107 q 388 26 311 26 m 209 -256 l 209 -217 l 624 -217 l 624 -256 l 209 -256 z "},"ǆ":{"ha":1481,"x_min":79,"x_max":1404,"o":"m 743 -11 q 697 25 715 6 q 669 75 679 44 q 658 159 660 106 l 663 151 l 644 151 l 666 199 l 666 513 l 642 566 l 658 566 l 658 1044 l 699 1044 l 699 157 q 712 72 699 98 q 762 26 725 45 l 743 -11 m 391 -11 q 263 14 321 -11 q 164 87 205 39 q 101 202 123 134 q 79 355 79 270 q 117 553 79 471 q 225 678 155 635 q 391 722 296 722 q 545 683 475 722 q 656 564 614 644 q 699 358 699 484 q 656 152 699 233 q 544 30 614 70 q 391 -11 473 -11 m 388 26 q 529 69 468 26 q 625 186 590 112 q 659 355 659 261 q 621 540 659 467 q 522 649 583 613 q 388 685 460 685 q 249 646 309 685 q 154 532 188 606 q 119 355 119 458 q 155 181 119 255 q 251 66 190 107 q 388 26 311 26 m 905 0 l 905 24 l 1335 667 l 1335 673 l 925 673 l 925 711 l 1396 711 l 1396 692 l 963 43 l 963 38 l 1404 38 l 1404 0 l 905 0 m 1012 1028 l 1166 867 l 1172 867 l 1326 1028 l 1354 1000 l 1180 822 l 1158 822 l 985 1000 l 1012 1028 z "},"ð":{"ha":829,"x_min":83,"x_max":746,"o":"m 419 -11 q 248 36 323 -11 q 127 162 172 82 q 83 342 83 242 q 127 521 83 441 q 248 648 171 601 q 422 694 324 694 q 535 677 479 694 q 635 625 590 660 q 707 540 680 591 l 682 566 l 703 566 l 694 555 q 613 736 665 658 q 495 872 561 815 q 360 966 430 929 q 225 1023 290 1003 l 239 1057 q 422 975 332 1029 q 586 838 513 920 q 703 648 659 756 q 746 404 746 539 q 705 183 746 276 q 591 40 665 90 q 419 -11 517 -11 m 419 27 q 570 75 505 27 q 671 200 635 122 q 707 370 707 278 q 665 536 707 473 q 559 628 623 600 q 427 656 495 656 q 271 616 339 656 q 163 504 202 575 q 123 343 123 433 q 165 177 123 248 q 275 66 208 106 q 419 27 342 27 m 233 795 l 217 827 l 631 1054 l 643 1025 l 233 795 z "},"e":{"ha":770,"x_min":79,"x_max":696,"o":"m 404 -11 q 235 36 309 -11 q 120 165 161 83 q 79 355 79 248 q 119 543 79 460 q 231 673 159 625 q 397 722 302 722 q 553 679 486 722 q 658 563 621 637 q 696 395 696 489 q 696 370 696 382 q 694 343 696 357 l 111 343 l 111 381 l 654 381 q 626 535 657 467 q 536 644 595 604 q 399 684 477 684 q 259 644 322 684 q 157 531 195 605 q 119 353 119 456 q 154 182 119 256 q 253 68 189 109 q 401 27 316 27 q 487 39 447 27 q 561 71 526 51 q 627 118 596 92 l 643 80 q 541 16 602 43 q 404 -11 479 -11 z "},"é":{"ha":770,"x_min":79,"x_max":696,"o":"m 404 -11 q 235 36 309 -11 q 120 165 161 83 q 79 355 79 248 q 119 543 79 460 q 231 673 159 625 q 397 722 302 722 q 553 679 486 722 q 658 563 621 637 q 696 395 696 489 q 696 370 696 382 q 694 343 696 357 l 111 343 l 111 381 l 654 381 q 626 535 657 467 q 536 644 595 604 q 399 684 477 684 q 259 644 322 684 q 157 531 195 605 q 119 353 119 456 q 154 182 119 256 q 253 68 189 109 q 401 27 316 27 q 487 39 447 27 q 561 71 526 51 q 627 118 596 92 l 643 80 q 541 16 602 43 q 404 -11 479 -11 m 393 808 l 361 833 l 536 1046 l 566 1023 l 393 808 z "},"ĕ":{"ha":770,"x_min":79,"x_max":696,"o":"m 404 -11 q 235 36 309 -11 q 120 165 161 83 q 79 355 79 248 q 119 543 79 460 q 231 673 159 625 q 397 722 302 722 q 553 679 486 722 q 658 563 621 637 q 696 395 696 489 q 696 370 696 382 q 694 343 696 357 l 111 343 l 111 381 l 654 381 q 626 535 657 467 q 536 644 595 604 q 399 684 477 684 q 259 644 322 684 q 157 531 195 605 q 119 353 119 456 q 154 182 119 256 q 253 68 189 109 q 401 27 316 27 q 487 39 447 27 q 561 71 526 51 q 627 118 596 92 l 643 80 q 541 16 602 43 q 404 -11 479 -11 m 401 830 q 304 855 348 830 q 236 923 261 880 q 210 1020 210 966 l 248 1020 q 292 912 248 956 q 401 868 336 868 q 511 912 467 868 q 555 1020 555 956 l 593 1020 q 567 923 593 966 q 499 855 542 880 q 401 830 456 830 z "},"ě":{"ha":770,"x_min":79,"x_max":696,"o":"m 404 -11 q 235 36 309 -11 q 120 165 161 83 q 79 355 79 248 q 119 543 79 460 q 231 673 159 625 q 397 722 302 722 q 553 679 486 722 q 658 563 621 637 q 696 395 696 489 q 696 370 696 382 q 694 343 696 357 l 111 343 l 111 381 l 654 381 q 626 535 657 467 q 536 644 595 604 q 399 684 477 684 q 259 644 322 684 q 157 531 195 605 q 119 353 119 456 q 154 182 119 256 q 253 68 189 109 q 401 27 316 27 q 487 39 447 27 q 561 71 526 51 q 627 118 596 92 l 643 80 q 541 16 602 43 q 404 -11 479 -11 m 241 1028 l 396 867 l 401 867 l 556 1028 l 583 1000 l 410 822 l 388 822 l 214 1000 l 241 1028 z "},"ḝ":{"ha":770,"x_min":79,"x_max":696,"o":"m 404 -11 q 235 36 309 -11 q 120 165 161 83 q 79 355 79 248 q 119 543 79 460 q 231 673 159 625 q 397 722 302 722 q 553 679 486 722 q 658 563 621 637 q 696 395 696 489 q 696 370 696 382 q 694 343 696 357 l 111 343 l 111 381 l 654 381 q 626 535 657 467 q 536 644 595 604 q 399 684 477 684 q 259 644 322 684 q 157 531 195 605 q 119 353 119 456 q 154 182 119 256 q 253 68 189 109 q 401 27 316 27 q 487 39 447 27 q 561 71 526 51 q 627 118 596 92 l 643 80 q 541 16 602 43 q 404 -11 479 -11 m 297 -292 l 297 -250 q 406 -237 364 -252 q 448 -180 448 -222 q 417 -133 448 -152 q 339 -114 387 -114 l 374 0 l 418 0 l 382 -109 l 372 -80 q 455 -117 427 -89 q 484 -183 484 -145 q 435 -265 484 -238 q 297 -292 386 -292 m 401 830 q 304 855 348 830 q 236 923 261 880 q 210 1020 210 966 l 248 1020 q 292 912 248 956 q 401 868 336 868 q 511 912 467 868 q 555 1020 555 956 l 593 1020 q 567 923 593 966 q 499 855 542 880 q 401 830 456 830 z "},"ê":{"ha":770,"x_min":79,"x_max":696,"o":"m 404 -11 q 235 36 309 -11 q 120 165 161 83 q 79 355 79 248 q 119 543 79 460 q 231 673 159 625 q 397 722 302 722 q 553 679 486 722 q 658 563 621 637 q 696 395 696 489 q 696 370 696 382 q 694 343 696 357 l 111 343 l 111 381 l 654 381 q 626 535 657 467 q 536 644 595 604 q 399 684 477 684 q 259 644 322 684 q 157 531 195 605 q 119 353 119 456 q 154 182 119 256 q 253 68 189 109 q 401 27 316 27 q 487 39 447 27 q 561 71 526 51 q 627 118 596 92 l 643 80 q 541 16 602 43 q 404 -11 479 -11 m 241 822 l 214 850 l 388 1028 l 410 1028 l 583 850 l 556 822 l 401 983 l 396 983 l 241 822 z "},"ế":{"ha":770,"x_min":79,"x_max":739,"o":"m 404 -11 q 235 36 309 -11 q 120 165 161 83 q 79 355 79 248 q 119 543 79 460 q 231 673 159 625 q 397 722 302 722 q 553 679 486 722 q 658 563 621 637 q 696 395 696 489 q 696 370 696 382 q 694 343 696 357 l 111 343 l 111 381 l 654 381 q 626 535 657 467 q 536 644 595 604 q 399 684 477 684 q 259 644 322 684 q 157 531 195 605 q 119 353 119 456 q 154 182 119 256 q 253 68 189 109 q 401 27 316 27 q 487 39 447 27 q 561 71 526 51 q 627 118 596 92 l 643 80 q 541 16 602 43 q 404 -11 479 -11 m 560 949 l 530 981 l 705 1154 l 739 1122 l 560 949 m 232 822 l 205 853 l 391 1000 l 416 1000 l 598 853 l 571 822 l 408 952 l 399 952 l 232 822 z "},"ệ":{"ha":770,"x_min":79,"x_max":696,"o":"m 404 -11 q 235 36 309 -11 q 120 165 161 83 q 79 355 79 248 q 119 543 79 460 q 231 673 159 625 q 397 722 302 722 q 553 679 486 722 q 658 563 621 637 q 696 395 696 489 q 696 370 696 382 q 694 343 696 357 l 111 343 l 111 381 l 654 381 q 626 535 657 467 q 536 644 595 604 q 399 684 477 684 q 259 644 322 684 q 157 531 195 605 q 119 353 119 456 q 154 182 119 256 q 253 68 189 109 q 401 27 316 27 q 487 39 447 27 q 561 71 526 51 q 627 118 596 92 l 643 80 q 541 16 602 43 q 404 -11 479 -11 m 396 -208 q 355 -191 372 -208 q 338 -149 338 -174 q 355 -108 338 -125 q 396 -91 372 -91 q 437 -108 420 -91 q 454 -149 454 -125 q 437 -191 454 -174 q 396 -208 420 -208 m 241 822 l 214 850 l 388 1028 l 410 1028 l 583 850 l 556 822 l 401 983 l 396 983 l 241 822 z "},"ề":{"ha":770,"x_min":58,"x_max":696,"o":"m 404 -11 q 235 36 309 -11 q 120 165 161 83 q 79 355 79 248 q 119 543 79 460 q 231 673 159 625 q 397 722 302 722 q 553 679 486 722 q 658 563 621 637 q 696 395 696 489 q 696 370 696 382 q 694 343 696 357 l 111 343 l 111 381 l 654 381 q 626 535 657 467 q 536 644 595 604 q 399 684 477 684 q 259 644 322 684 q 157 531 195 605 q 119 353 119 456 q 154 182 119 256 q 253 68 189 109 q 401 27 316 27 q 487 39 447 27 q 561 71 526 51 q 627 118 596 92 l 643 80 q 541 16 602 43 q 404 -11 479 -11 m 237 949 l 58 1122 l 92 1154 l 267 981 l 237 949 m 566 822 l 399 952 l 389 952 l 227 822 l 199 853 l 381 1000 l 407 1000 l 593 853 l 566 822 z "},"ể":{"ha":770,"x_min":79,"x_max":696,"o":"m 404 -11 q 235 36 309 -11 q 120 165 161 83 q 79 355 79 248 q 119 543 79 460 q 231 673 159 625 q 397 722 302 722 q 553 679 486 722 q 658 563 621 637 q 696 395 696 489 q 696 370 696 382 q 694 343 696 357 l 111 343 l 111 381 l 654 381 q 626 535 657 467 q 536 644 595 604 q 399 684 477 684 q 259 644 322 684 q 157 531 195 605 q 119 353 119 456 q 154 182 119 256 q 253 68 189 109 q 401 27 316 27 q 487 39 447 27 q 561 71 526 51 q 627 118 596 92 l 643 80 q 541 16 602 43 q 404 -11 479 -11 m 549 944 l 518 970 q 557 1013 540 988 q 574 1061 574 1038 q 555 1103 574 1087 q 502 1119 536 1119 q 463 1115 486 1119 q 425 1105 441 1112 l 425 1143 q 462 1153 441 1149 q 502 1157 483 1157 q 585 1132 555 1157 q 616 1063 616 1107 q 606 1020 616 1042 q 580 977 595 997 q 549 944 565 957 m 229 822 l 202 853 l 388 1000 l 414 1000 l 595 853 l 568 822 l 406 952 l 396 952 l 229 822 z "},"ễ":{"ha":770,"x_min":79,"x_max":696,"o":"m 404 -11 q 235 36 309 -11 q 120 165 161 83 q 79 355 79 248 q 119 543 79 460 q 231 673 159 625 q 397 722 302 722 q 553 679 486 722 q 658 563 621 637 q 696 395 696 489 q 696 370 696 382 q 694 343 696 357 l 111 343 l 111 381 l 654 381 q 626 535 657 467 q 536 644 595 604 q 399 684 477 684 q 259 644 322 684 q 157 531 195 605 q 119 353 119 456 q 154 182 119 256 q 253 68 189 109 q 401 27 316 27 q 487 39 447 27 q 561 71 526 51 q 627 118 596 92 l 643 80 q 541 16 602 43 q 404 -11 479 -11 m 208 1044 q 238 1133 208 1103 q 316 1162 269 1162 q 370 1151 348 1162 q 409 1124 392 1139 q 444 1097 427 1108 q 483 1085 461 1085 q 531 1105 513 1085 q 549 1162 549 1125 l 590 1162 q 577 1098 591 1124 q 538 1058 563 1072 q 481 1044 513 1044 q 431 1057 453 1044 q 391 1084 410 1069 q 354 1112 372 1100 q 312 1124 335 1124 q 268 1105 287 1124 q 248 1044 248 1086 l 208 1044 m 229 822 l 202 853 l 388 1000 l 414 1000 l 595 853 l 568 822 l 406 952 l 396 952 l 229 822 z "},"ȅ":{"ha":770,"x_min":79,"x_max":696,"o":"m 404 -11 q 235 36 309 -11 q 120 165 161 83 q 79 355 79 248 q 119 543 79 460 q 231 673 159 625 q 397 722 302 722 q 553 679 486 722 q 658 563 621 637 q 696 395 696 489 q 696 370 696 382 q 694 343 696 357 l 111 343 l 111 381 l 654 381 q 626 535 657 467 q 536 644 595 604 q 399 684 477 684 q 259 644 322 684 q 157 531 195 605 q 119 353 119 456 q 154 182 119 256 q 253 68 189 109 q 401 27 316 27 q 487 39 447 27 q 561 71 526 51 q 627 118 596 92 l 643 80 q 541 16 602 43 q 404 -11 479 -11 m 507 808 l 349 1050 l 387 1076 l 533 822 l 507 808 m 327 808 l 168 1050 l 203 1076 l 353 822 l 327 808 z "},"ë":{"ha":770,"x_min":79,"x_max":696,"o":"m 404 -11 q 235 36 309 -11 q 120 165 161 83 q 79 355 79 248 q 119 543 79 460 q 231 673 159 625 q 397 722 302 722 q 553 679 486 722 q 658 563 621 637 q 696 395 696 489 q 696 370 696 382 q 694 343 696 357 l 111 343 l 111 381 l 654 381 q 626 535 657 467 q 536 644 595 604 q 399 684 477 684 q 259 644 322 684 q 157 531 195 605 q 119 353 119 456 q 154 182 119 256 q 253 68 189 109 q 401 27 316 27 q 487 39 447 27 q 561 71 526 51 q 627 118 596 92 l 643 80 q 541 16 602 43 q 404 -11 479 -11 m 510 853 q 468 870 485 853 q 452 911 452 886 q 468 953 452 937 q 510 970 485 970 q 552 953 535 970 q 568 911 568 937 q 552 870 568 886 q 510 853 535 853 m 288 853 q 246 870 262 853 q 229 911 229 886 q 246 953 229 937 q 288 970 262 970 q 329 953 313 970 q 346 911 346 937 q 329 870 346 886 q 288 853 313 853 z "},"ė":{"ha":770,"x_min":79,"x_max":696,"o":"m 404 -11 q 235 36 309 -11 q 120 165 161 83 q 79 355 79 248 q 119 543 79 460 q 231 673 159 625 q 397 722 302 722 q 553 679 486 722 q 658 563 621 637 q 696 395 696 489 q 696 370 696 382 q 694 343 696 357 l 111 343 l 111 381 l 654 381 q 626 535 657 467 q 536 644 595 604 q 399 684 477 684 q 259 644 322 684 q 157 531 195 605 q 119 353 119 456 q 154 182 119 256 q 253 68 189 109 q 401 27 316 27 q 487 39 447 27 q 561 71 526 51 q 627 118 596 92 l 643 80 q 541 16 602 43 q 404 -11 479 -11 m 399 853 q 357 870 374 853 q 340 911 340 887 q 357 953 340 936 q 399 970 374 970 q 440 953 423 970 q 457 911 457 936 q 440 870 457 887 q 399 853 423 853 z "},"ẹ":{"ha":770,"x_min":79,"x_max":696,"o":"m 404 -11 q 235 36 309 -11 q 120 165 161 83 q 79 355 79 248 q 119 543 79 460 q 231 673 159 625 q 397 722 302 722 q 553 679 486 722 q 658 563 621 637 q 696 395 696 489 q 696 370 696 382 q 694 343 696 357 l 111 343 l 111 381 l 654 381 q 626 535 657 467 q 536 644 595 604 q 399 684 477 684 q 259 644 322 684 q 157 531 195 605 q 119 353 119 456 q 154 182 119 256 q 253 68 189 109 q 401 27 316 27 q 487 39 447 27 q 561 71 526 51 q 627 118 596 92 l 643 80 q 541 16 602 43 q 404 -11 479 -11 m 396 -208 q 355 -191 372 -208 q 338 -149 338 -174 q 355 -108 338 -125 q 396 -91 372 -91 q 437 -108 420 -91 q 454 -149 454 -125 q 437 -191 454 -174 q 396 -208 420 -208 z "},"è":{"ha":770,"x_min":79,"x_max":696,"o":"m 404 -11 q 235 36 309 -11 q 120 165 161 83 q 79 355 79 248 q 119 543 79 460 q 231 673 159 625 q 397 722 302 722 q 553 679 486 722 q 658 563 621 637 q 696 395 696 489 q 696 370 696 382 q 694 343 696 357 l 111 343 l 111 381 l 654 381 q 626 535 657 467 q 536 644 595 604 q 399 684 477 684 q 259 644 322 684 q 157 531 195 605 q 119 353 119 456 q 154 182 119 256 q 253 68 189 109 q 401 27 316 27 q 487 39 447 27 q 561 71 526 51 q 627 118 596 92 l 643 80 q 541 16 602 43 q 404 -11 479 -11 m 404 808 l 232 1023 l 262 1046 l 437 833 l 404 808 z "},"ẻ":{"ha":770,"x_min":79,"x_max":696,"o":"m 404 -11 q 235 36 309 -11 q 120 165 161 83 q 79 355 79 248 q 119 543 79 460 q 231 673 159 625 q 397 722 302 722 q 553 679 486 722 q 658 563 621 637 q 696 395 696 489 q 696 370 696 382 q 694 343 696 357 l 111 343 l 111 381 l 654 381 q 626 535 657 467 q 536 644 595 604 q 399 684 477 684 q 259 644 322 684 q 157 531 195 605 q 119 353 119 456 q 154 182 119 256 q 253 68 189 109 q 401 27 316 27 q 487 39 447 27 q 561 71 526 51 q 627 118 596 92 l 643 80 q 541 16 602 43 q 404 -11 479 -11 m 415 808 l 389 838 q 438 877 419 854 q 457 925 457 901 q 437 968 457 953 q 384 983 418 983 q 345 980 365 983 q 307 970 324 976 l 307 1010 q 347 1020 325 1018 q 381 1023 369 1023 q 465 997 436 1023 q 494 928 494 970 q 472 860 494 893 q 415 808 451 826 z "},"ȇ":{"ha":770,"x_min":79,"x_max":696,"o":"m 404 -11 q 235 36 309 -11 q 120 165 161 83 q 79 355 79 248 q 119 543 79 460 q 231 673 159 625 q 397 722 302 722 q 553 679 486 722 q 658 563 621 637 q 696 395 696 489 q 696 370 696 382 q 694 343 696 357 l 111 343 l 111 381 l 654 381 q 626 535 657 467 q 536 644 595 604 q 399 684 477 684 q 259 644 322 684 q 157 531 195 605 q 119 353 119 456 q 154 182 119 256 q 253 68 189 109 q 401 27 316 27 q 487 39 447 27 q 561 71 526 51 q 627 118 596 92 l 643 80 q 541 16 602 43 q 404 -11 479 -11 m 399 1025 q 496 1000 453 1025 q 565 932 539 975 q 590 836 590 889 l 552 836 q 508 944 552 900 q 399 987 464 987 q 290 944 334 987 q 245 836 245 900 l 208 836 q 233 932 208 889 q 302 1000 258 975 q 399 1025 345 1025 z "},"ē":{"ha":770,"x_min":79,"x_max":696,"o":"m 404 -11 q 235 36 309 -11 q 120 165 161 83 q 79 355 79 248 q 119 543 79 460 q 231 673 159 625 q 397 722 302 722 q 553 679 486 722 q 658 563 621 637 q 696 395 696 489 q 696 370 696 382 q 694 343 696 357 l 111 343 l 111 381 l 654 381 q 626 535 657 467 q 536 644 595 604 q 399 684 477 684 q 259 644 322 684 q 157 531 195 605 q 119 353 119 456 q 154 182 119 256 q 253 68 189 109 q 401 27 316 27 q 487 39 447 27 q 561 71 526 51 q 627 118 596 92 l 643 80 q 541 16 602 43 q 404 -11 479 -11 m 190 894 l 190 933 l 605 933 l 605 894 l 190 894 z "},"ḗ":{"ha":770,"x_min":79,"x_max":696,"o":"m 404 -11 q 235 36 309 -11 q 120 165 161 83 q 79 355 79 248 q 119 543 79 460 q 231 673 159 625 q 397 722 302 722 q 553 679 486 722 q 658 563 621 637 q 696 395 696 489 q 696 370 696 382 q 694 343 696 357 l 111 343 l 111 381 l 654 381 q 626 535 657 467 q 536 644 595 604 q 399 684 477 684 q 259 644 322 684 q 157 531 195 605 q 119 353 119 456 q 154 182 119 256 q 253 68 189 109 q 401 27 316 27 q 487 39 447 27 q 561 71 526 51 q 627 118 596 92 l 643 80 q 541 16 602 43 q 404 -11 479 -11 m 190 894 l 190 933 l 605 933 l 605 894 l 190 894 m 393 1015 l 361 1039 l 536 1252 l 566 1229 l 393 1015 z "},"ḕ":{"ha":770,"x_min":79,"x_max":696,"o":"m 404 -11 q 235 36 309 -11 q 120 165 161 83 q 79 355 79 248 q 119 543 79 460 q 231 673 159 625 q 397 722 302 722 q 553 679 486 722 q 658 563 621 637 q 696 395 696 489 q 696 370 696 382 q 694 343 696 357 l 111 343 l 111 381 l 654 381 q 626 535 657 467 q 536 644 595 604 q 399 684 477 684 q 259 644 322 684 q 157 531 195 605 q 119 353 119 456 q 154 182 119 256 q 253 68 189 109 q 401 27 316 27 q 487 39 447 27 q 561 71 526 51 q 627 118 596 92 l 643 80 q 541 16 602 43 q 404 -11 479 -11 m 190 894 l 190 933 l 605 933 l 605 894 l 190 894 m 404 1015 l 232 1229 l 262 1252 l 437 1039 l 404 1015 z "},"ę":{"ha":770,"x_min":79,"x_max":696,"o":"m 404 -11 q 235 36 309 -11 q 120 165 161 83 q 79 355 79 248 q 119 543 79 460 q 231 673 159 625 q 397 722 302 722 q 553 679 486 722 q 658 563 621 637 q 696 395 696 489 q 696 370 696 382 q 694 343 696 357 l 111 343 l 111 381 l 654 381 q 626 535 657 467 q 536 644 595 604 q 399 684 477 684 q 259 644 322 684 q 157 531 195 605 q 119 353 119 456 q 154 182 119 256 q 253 68 189 109 q 401 27 316 27 q 487 39 447 27 q 561 71 526 51 q 627 118 596 92 l 643 80 q 541 16 602 43 q 404 -11 479 -11 m 548 -212 q 480 -183 507 -212 q 454 -111 454 -155 q 494 -15 454 -57 q 576 69 533 28 l 608 53 q 556 -2 583 24 q 510 -55 529 -28 q 491 -111 491 -81 q 510 -156 491 -140 q 555 -172 530 -172 q 602 -162 581 -172 q 639 -141 624 -151 l 639 -183 q 598 -203 624 -195 q 548 -212 572 -212 z "},"ẽ":{"ha":770,"x_min":79,"x_max":696,"o":"m 404 -11 q 235 36 309 -11 q 120 165 161 83 q 79 355 79 248 q 119 543 79 460 q 231 673 159 625 q 397 722 302 722 q 553 679 486 722 q 658 563 621 637 q 696 395 696 489 q 696 370 696 382 q 694 343 696 357 l 111 343 l 111 381 l 654 381 q 626 535 657 467 q 536 644 595 604 q 399 684 477 684 q 259 644 322 684 q 157 531 195 605 q 119 353 119 456 q 154 182 119 256 q 253 68 189 109 q 401 27 316 27 q 487 39 447 27 q 561 71 526 51 q 627 118 596 92 l 643 80 q 541 16 602 43 q 404 -11 479 -11 m 209 842 q 239 936 209 899 q 317 972 270 972 q 370 959 349 972 q 409 928 392 945 q 444 897 427 910 q 483 883 461 883 q 533 909 515 883 q 551 972 551 935 l 591 972 q 562 881 591 920 q 483 842 533 842 q 433 856 454 842 q 393 888 412 869 q 356 920 375 906 q 315 933 338 933 q 268 909 286 933 q 250 842 250 884 l 209 842 z "},"ə":{"ha":770,"x_min":75,"x_max":692,"o":"m 366 722 q 535 675 462 722 q 650 546 609 629 q 692 355 692 463 q 652 168 692 251 q 540 37 612 85 q 373 -11 468 -11 q 217 32 284 -11 q 112 148 150 74 q 75 316 75 222 q 75 341 75 328 q 76 368 75 353 l 659 368 l 659 330 l 117 330 q 144 176 113 244 q 234 67 176 107 q 372 27 293 27 q 512 67 448 27 q 613 180 575 106 q 651 358 651 254 q 616 528 651 455 q 518 643 581 602 q 369 684 454 684 q 284 672 323 684 q 209 640 244 661 q 144 593 174 619 l 127 631 q 230 694 168 667 q 366 722 291 722 z "},"f":{"ha":477,"x_min":66,"x_max":431,"o":"m 66 673 l 66 711 l 412 711 l 412 673 l 66 673 m 186 0 l 186 853 q 227 997 186 939 q 359 1055 268 1055 q 394 1053 376 1055 q 431 1042 413 1050 l 415 1006 q 384 1015 403 1012 q 351 1017 366 1017 q 257 970 288 1017 q 227 861 227 922 l 227 0 l 186 0 z "},"g":{"ha":817,"x_min":80,"x_max":700,"o":"m 395 -296 q 264 -274 332 -296 q 156 -221 196 -252 l 172 -180 q 272 -237 214 -216 q 392 -258 330 -258 q 528 -228 467 -258 q 624 -139 588 -197 q 659 3 659 -81 l 659 152 l 652 152 l 661 191 l 661 524 l 654 566 l 658 566 l 658 711 l 699 711 l 699 5 q 670 -135 699 -77 q 595 -228 641 -193 q 496 -279 549 -263 q 395 -296 443 -296 m 392 -11 q 265 14 322 -11 q 166 87 208 39 q 102 203 125 135 q 80 358 80 272 q 118 552 80 471 q 226 677 156 633 q 392 722 296 722 q 547 683 477 722 q 658 563 616 644 q 700 358 700 483 q 657 151 700 233 q 545 29 615 69 q 392 -11 475 -11 m 389 27 q 531 71 470 27 q 626 190 592 114 q 661 365 661 267 q 626 534 661 463 q 531 645 592 606 q 389 684 470 684 q 246 643 307 684 q 153 529 186 602 q 121 358 121 456 q 156 182 121 256 q 252 67 191 108 q 389 27 313 27 z "},"ǵ":{"ha":817,"x_min":80,"x_max":700,"o":"m 395 -296 q 264 -274 332 -296 q 156 -221 196 -252 l 172 -180 q 272 -237 214 -216 q 392 -258 330 -258 q 528 -228 467 -258 q 624 -139 588 -197 q 659 3 659 -81 l 659 152 l 652 152 l 661 191 l 661 524 l 654 566 l 658 566 l 658 711 l 699 711 l 699 5 q 670 -135 699 -77 q 595 -228 641 -193 q 496 -279 549 -263 q 395 -296 443 -296 m 392 -11 q 265 14 322 -11 q 166 87 208 39 q 102 203 125 135 q 80 358 80 272 q 118 552 80 471 q 226 677 156 633 q 392 722 296 722 q 547 683 477 722 q 658 563 616 644 q 700 358 700 483 q 657 151 700 233 q 545 29 615 69 q 392 -11 475 -11 m 389 27 q 531 71 470 27 q 626 190 592 114 q 661 365 661 267 q 626 534 661 463 q 531 645 592 606 q 389 684 470 684 q 246 643 307 684 q 153 529 186 602 q 121 358 121 456 q 156 182 121 256 q 252 67 191 108 q 389 27 313 27 m 397 808 l 365 833 l 540 1046 l 570 1023 l 397 808 z "},"ğ":{"ha":817,"x_min":80,"x_max":700,"o":"m 395 -296 q 264 -274 332 -296 q 156 -221 196 -252 l 172 -180 q 272 -237 214 -216 q 392 -258 330 -258 q 528 -228 467 -258 q 624 -139 588 -197 q 659 3 659 -81 l 659 152 l 652 152 l 661 191 l 661 524 l 654 566 l 658 566 l 658 711 l 699 711 l 699 5 q 670 -135 699 -77 q 595 -228 641 -193 q 496 -279 549 -263 q 395 -296 443 -296 m 392 -11 q 265 14 322 -11 q 166 87 208 39 q 102 203 125 135 q 80 358 80 272 q 118 552 80 471 q 226 677 156 633 q 392 722 296 722 q 547 683 477 722 q 658 563 616 644 q 700 358 700 483 q 657 151 700 233 q 545 29 615 69 q 392 -11 475 -11 m 389 27 q 531 71 470 27 q 626 190 592 114 q 661 365 661 267 q 626 534 661 463 q 531 645 592 606 q 389 684 470 684 q 246 643 307 684 q 153 529 186 602 q 121 358 121 456 q 156 182 121 256 q 252 67 191 108 q 389 27 313 27 m 406 830 q 309 855 352 830 q 240 923 265 880 q 214 1020 214 966 l 252 1020 q 296 912 252 956 q 406 868 340 868 q 515 912 471 868 q 559 1020 559 956 l 597 1020 q 571 923 597 966 q 503 855 546 880 q 406 830 460 830 z "},"ǧ":{"ha":817,"x_min":80,"x_max":700,"o":"m 395 -296 q 264 -274 332 -296 q 156 -221 196 -252 l 172 -180 q 272 -237 214 -216 q 392 -258 330 -258 q 528 -228 467 -258 q 624 -139 588 -197 q 659 3 659 -81 l 659 152 l 652 152 l 661 191 l 661 524 l 654 566 l 658 566 l 658 711 l 699 711 l 699 5 q 670 -135 699 -77 q 595 -228 641 -193 q 496 -279 549 -263 q 395 -296 443 -296 m 392 -11 q 265 14 322 -11 q 166 87 208 39 q 102 203 125 135 q 80 358 80 272 q 118 552 80 471 q 226 677 156 633 q 392 722 296 722 q 547 683 477 722 q 658 563 616 644 q 700 358 700 483 q 657 151 700 233 q 545 29 615 69 q 392 -11 475 -11 m 389 27 q 531 71 470 27 q 626 190 592 114 q 661 365 661 267 q 626 534 661 463 q 531 645 592 606 q 389 684 470 684 q 246 643 307 684 q 153 529 186 602 q 121 358 121 456 q 156 182 121 256 q 252 67 191 108 q 389 27 313 27 m 245 1028 l 400 867 l 406 867 l 560 1028 l 587 1000 l 414 822 l 392 822 l 218 1000 l 245 1028 z "},"ĝ":{"ha":817,"x_min":80,"x_max":700,"o":"m 395 -296 q 264 -274 332 -296 q 156 -221 196 -252 l 172 -180 q 272 -237 214 -216 q 392 -258 330 -258 q 528 -228 467 -258 q 624 -139 588 -197 q 659 3 659 -81 l 659 152 l 652 152 l 661 191 l 661 524 l 654 566 l 658 566 l 658 711 l 699 711 l 699 5 q 670 -135 699 -77 q 595 -228 641 -193 q 496 -279 549 -263 q 395 -296 443 -296 m 392 -11 q 265 14 322 -11 q 166 87 208 39 q 102 203 125 135 q 80 358 80 272 q 118 552 80 471 q 226 677 156 633 q 392 722 296 722 q 547 683 477 722 q 658 563 616 644 q 700 358 700 483 q 657 151 700 233 q 545 29 615 69 q 392 -11 475 -11 m 389 27 q 531 71 470 27 q 626 190 592 114 q 661 365 661 267 q 626 534 661 463 q 531 645 592 606 q 389 684 470 684 q 246 643 307 684 q 153 529 186 602 q 121 358 121 456 q 156 182 121 256 q 252 67 191 108 q 389 27 313 27 m 245 822 l 218 850 l 392 1028 l 414 1028 l 587 850 l 560 822 l 406 983 l 400 983 l 245 822 z "},"ģ":{"ha":817,"x_min":80,"x_max":700,"o":"m 395 -296 q 264 -274 332 -296 q 156 -221 196 -252 l 172 -180 q 272 -237 214 -216 q 392 -258 330 -258 q 528 -228 467 -258 q 624 -139 588 -197 q 659 3 659 -81 l 659 152 l 652 152 l 661 191 l 661 524 l 654 566 l 658 566 l 658 711 l 699 711 l 699 5 q 670 -135 699 -77 q 595 -228 641 -193 q 496 -279 549 -263 q 395 -296 443 -296 m 392 -11 q 265 14 322 -11 q 166 87 208 39 q 102 203 125 135 q 80 358 80 272 q 118 552 80 471 q 226 677 156 633 q 392 722 296 722 q 547 683 477 722 q 658 563 616 644 q 700 358 700 483 q 657 151 700 233 q 545 29 615 69 q 392 -11 475 -11 m 389 27 q 531 71 470 27 q 626 190 592 114 q 661 365 661 267 q 626 534 661 463 q 531 645 592 606 q 389 684 470 684 q 246 643 307 684 q 153 529 186 602 q 121 358 121 456 q 156 182 121 256 q 252 67 191 108 q 389 27 313 27 m 452 1035 l 477 1013 l 427 958 q 403 927 412 940 q 390 904 394 915 q 388 883 387 894 l 369 880 q 383 900 375 892 q 401 907 391 907 q 436 893 420 907 q 452 854 452 878 q 436 820 452 833 q 401 806 420 806 q 362 823 376 806 q 349 865 349 840 q 358 908 349 886 q 379 947 367 929 q 399 974 391 964 l 452 1035 z "},"ġ":{"ha":817,"x_min":80,"x_max":700,"o":"m 395 -296 q 264 -274 332 -296 q 156 -221 196 -252 l 172 -180 q 272 -237 214 -216 q 392 -258 330 -258 q 528 -228 467 -258 q 624 -139 588 -197 q 659 3 659 -81 l 659 152 l 652 152 l 661 191 l 661 524 l 654 566 l 658 566 l 658 711 l 699 711 l 699 5 q 670 -135 699 -77 q 595 -228 641 -193 q 496 -279 549 -263 q 395 -296 443 -296 m 392 -11 q 265 14 322 -11 q 166 87 208 39 q 102 203 125 135 q 80 358 80 272 q 118 552 80 471 q 226 677 156 633 q 392 722 296 722 q 547 683 477 722 q 658 563 616 644 q 700 358 700 483 q 657 151 700 233 q 545 29 615 69 q 392 -11 475 -11 m 389 27 q 531 71 470 27 q 626 190 592 114 q 661 365 661 267 q 626 534 661 463 q 531 645 592 606 q 389 684 470 684 q 246 643 307 684 q 153 529 186 602 q 121 358 121 456 q 156 182 121 256 q 252 67 191 108 q 389 27 313 27 m 403 853 q 361 870 378 853 q 345 911 345 887 q 361 953 345 936 q 403 970 378 970 q 444 953 427 970 q 461 911 461 936 q 444 870 461 887 q 403 853 427 853 z "},"ḡ":{"ha":817,"x_min":80,"x_max":700,"o":"m 395 -296 q 264 -274 332 -296 q 156 -221 196 -252 l 172 -180 q 272 -237 214 -216 q 392 -258 330 -258 q 528 -228 467 -258 q 624 -139 588 -197 q 659 3 659 -81 l 659 152 l 652 152 l 661 191 l 661 524 l 654 566 l 658 566 l 658 711 l 699 711 l 699 5 q 670 -135 699 -77 q 595 -228 641 -193 q 496 -279 549 -263 q 395 -296 443 -296 m 392 -11 q 265 14 322 -11 q 166 87 208 39 q 102 203 125 135 q 80 358 80 272 q 118 552 80 471 q 226 677 156 633 q 392 722 296 722 q 547 683 477 722 q 658 563 616 644 q 700 358 700 483 q 657 151 700 233 q 545 29 615 69 q 392 -11 475 -11 m 389 27 q 531 71 470 27 q 626 190 592 114 q 661 365 661 267 q 626 534 661 463 q 531 645 592 606 q 389 684 470 684 q 246 643 307 684 q 153 529 186 602 q 121 358 121 456 q 156 182 121 256 q 252 67 191 108 q 389 27 313 27 m 194 894 l 194 933 l 609 933 l 609 894 l 194 894 z "},"h":{"ha":757,"x_min":117,"x_max":646,"o":"m 117 0 l 117 1044 l 157 1044 l 157 582 l 176 582 l 149 559 q 203 641 165 604 q 292 700 240 678 q 404 722 344 722 q 527 692 473 722 q 614 605 582 663 q 646 458 646 546 l 646 0 l 605 0 l 605 448 q 548 624 605 565 q 403 684 490 684 q 279 651 334 684 q 190 565 223 618 q 157 453 157 513 l 157 0 l 117 0 z "},"ħ":{"ha":757,"x_min":-4,"x_max":646,"o":"m 117 0 l 117 1044 l 157 1044 l 157 582 l 176 582 l 149 559 q 203 641 165 604 q 292 700 240 678 q 404 722 344 722 q 527 692 473 722 q 614 605 582 663 q 646 458 646 546 l 646 0 l 605 0 l 605 448 q 548 624 605 565 q 403 684 490 684 q 279 651 334 684 q 190 565 223 618 q 157 453 157 513 l 157 0 l 117 0 m -4 837 l -4 875 l 278 875 l 278 837 l -4 837 z "},"ḫ":{"ha":757,"x_min":117,"x_max":646,"o":"m 117 0 l 117 1044 l 157 1044 l 157 582 l 176 582 l 149 559 q 203 641 165 604 q 292 700 240 678 q 404 722 344 722 q 527 692 473 722 q 614 605 582 663 q 646 458 646 546 l 646 0 l 605 0 l 605 448 q 548 624 605 565 q 403 684 490 684 q 279 651 334 684 q 190 565 223 618 q 157 453 157 513 l 157 0 l 117 0 m 381 -270 q 284 -245 328 -270 q 215 -177 241 -220 q 190 -80 190 -134 l 228 -80 q 272 -188 228 -144 q 381 -232 316 -232 q 490 -188 446 -232 q 534 -80 534 -144 l 572 -80 q 547 -177 572 -134 q 478 -245 522 -220 q 381 -270 435 -270 z "},"ĥ":{"ha":757,"x_min":-57,"x_max":646,"o":"m 117 0 l 117 1044 l 157 1044 l 157 582 l 176 582 l 149 559 q 203 641 165 604 q 292 700 240 678 q 404 722 344 722 q 527 692 473 722 q 614 605 582 663 q 646 458 646 546 l 646 0 l 605 0 l 605 448 q 548 624 605 565 q 403 684 490 684 q 279 651 334 684 q 190 565 223 618 q 157 453 157 513 l 157 0 l 117 0 m -30 1055 l -57 1089 l 129 1232 l 155 1232 l 336 1089 l 309 1055 l 146 1190 l 137 1190 l -30 1055 z "},"ḥ":{"ha":757,"x_min":117,"x_max":646,"o":"m 117 0 l 117 1044 l 157 1044 l 157 582 l 176 582 l 149 559 q 203 641 165 604 q 292 700 240 678 q 404 722 344 722 q 527 692 473 722 q 614 605 582 663 q 646 458 646 546 l 646 0 l 605 0 l 605 448 q 548 624 605 565 q 403 684 490 684 q 279 651 334 684 q 190 565 223 618 q 157 453 157 513 l 157 0 l 117 0 m 381 -208 q 340 -191 357 -208 q 323 -149 323 -174 q 340 -108 323 -125 q 381 -91 357 -91 q 422 -108 406 -91 q 439 -149 439 -125 q 422 -191 439 -174 q 381 -208 406 -208 z "},"i":{"ha":282,"x_min":84,"x_max":201,"o":"m 122 0 l 122 711 l 163 711 l 163 0 l 122 0 m 142 853 q 101 870 118 853 q 84 911 84 887 q 101 953 84 936 q 142 970 118 970 q 184 953 167 970 q 201 911 201 936 q 184 870 201 887 q 142 853 167 853 z "},"ı":{"ha":282,"x_min":122,"x_max":163,"o":"m 122 0 l 122 711 l 163 711 l 163 0 l 122 0 z "},"í":{"ha":317,"x_min":104,"x_max":309,"o":"m 122 0 l 122 711 l 163 711 l 163 0 l 122 0 m 137 808 l 104 833 l 279 1046 l 309 1023 l 137 808 z "},"ĭ":{"ha":372,"x_min":-1,"x_max":381,"o":"m 167 0 l 167 711 l 208 711 l 208 0 l 167 0 m 190 830 q 93 855 136 830 q 24 923 50 880 q -1 1020 -1 966 l 37 1020 q 81 912 37 956 q 190 868 125 868 q 299 912 255 868 q 343 1020 343 956 l 381 1020 q 356 923 381 966 q 287 855 330 880 q 190 830 244 830 z "},"ǐ":{"ha":372,"x_min":3,"x_max":372,"o":"m 167 0 l 167 711 l 208 711 l 208 0 l 167 0 m 30 1028 l 184 867 l 190 867 l 345 1028 l 372 1000 l 198 822 l 176 822 l 3 1000 l 30 1028 z "},"î":{"ha":372,"x_min":3,"x_max":372,"o":"m 167 0 l 167 711 l 208 711 l 208 0 l 167 0 m 30 822 l 3 850 l 176 1028 l 198 1028 l 372 850 l 345 822 l 190 983 l 184 983 l 30 822 z "},"ȉ":{"ha":316,"x_min":-71,"x_max":294,"o":"m 140 0 l 140 711 l 180 711 l 180 0 l 140 0 m 269 808 l 110 1050 l 148 1076 l 294 822 l 269 808 m 88 808 l -71 1050 l -35 1076 l 114 822 l 88 808 z "},"ï":{"ha":415,"x_min":39,"x_max":378,"o":"m 189 0 l 189 711 l 229 711 l 229 0 l 189 0 m 320 853 q 278 870 295 853 q 262 911 262 886 q 278 953 262 937 q 320 970 295 970 q 362 953 345 970 q 378 911 378 937 q 362 870 378 886 q 320 853 345 853 m 98 853 q 56 870 73 853 q 39 911 39 886 q 56 953 39 937 q 98 970 73 970 q 139 953 123 970 q 156 911 156 937 q 139 870 156 886 q 98 853 123 853 z "},"ḯ":{"ha":415,"x_min":39,"x_max":378,"o":"m 189 0 l 189 711 l 229 711 l 229 0 l 189 0 m 320 853 q 278 870 295 853 q 262 911 262 886 q 278 953 262 937 q 320 970 295 970 q 362 953 345 970 q 378 911 378 937 q 362 870 378 886 q 320 853 345 853 m 98 853 q 56 870 73 853 q 39 911 39 886 q 56 953 39 937 q 98 970 73 970 q 139 953 123 970 q 156 911 156 937 q 139 870 156 886 q 98 853 123 853 m 203 1009 l 171 1034 l 346 1246 l 376 1223 l 203 1009 z "},"ị":{"ha":282,"x_min":84,"x_max":201,"o":"m 122 0 l 122 711 l 163 711 l 163 0 l 122 0 m 142 853 q 101 870 118 853 q 84 911 84 887 q 101 953 84 936 q 142 970 118 970 q 184 953 167 970 q 201 911 201 936 q 184 870 201 887 q 142 853 167 853 m 142 -208 q 101 -191 118 -208 q 84 -149 84 -174 q 101 -108 84 -125 q 142 -91 118 -91 q 184 -108 167 -91 q 201 -149 201 -125 q 184 -191 201 -174 q 142 -208 167 -208 z "},"ì":{"ha":300,"x_min":-7,"x_max":198,"o":"m 140 0 l 140 711 l 180 711 l 180 0 l 140 0 m 165 808 l -7 1023 l 23 1046 l 198 833 l 165 808 z "},"ỉ":{"ha":282,"x_min":50,"x_max":237,"o":"m 122 0 l 122 711 l 163 711 l 163 0 l 122 0 m 159 808 l 133 838 q 182 877 163 854 q 201 925 201 901 q 181 968 201 953 q 127 983 161 983 q 88 980 109 983 q 50 970 68 976 l 50 1010 q 91 1020 68 1018 q 125 1023 113 1023 q 209 997 180 1023 q 237 928 237 970 q 216 860 237 893 q 159 808 195 826 z "},"ȋ":{"ha":372,"x_min":-4,"x_max":378,"o":"m 167 0 l 167 711 l 208 711 l 208 0 l 167 0 m 187 1025 q 284 1000 241 1025 q 353 932 328 975 q 378 836 378 889 l 340 836 q 296 944 340 900 q 187 987 252 987 q 78 944 122 987 q 34 836 34 900 l -4 836 q 21 932 -4 889 q 90 1000 47 975 q 187 1025 134 1025 z "},"ī":{"ha":372,"x_min":9,"x_max":362,"o":"m 167 0 l 167 711 l 208 711 l 208 0 l 167 0 m 9 894 l 9 933 l 362 933 l 362 894 l 9 894 z "},"į":{"ha":282,"x_min":9,"x_max":201,"o":"m 122 0 l 122 711 l 163 711 l 163 0 l 122 0 m 142 853 q 101 870 118 853 q 84 911 84 887 q 101 953 84 936 q 142 970 118 970 q 184 953 167 970 q 201 911 201 936 q 184 870 201 887 q 142 853 167 853 m 103 -264 q 36 -236 62 -264 q 9 -164 9 -208 q 49 -67 9 -110 q 132 16 88 -25 l 163 0 q 111 -55 138 -29 q 65 -108 84 -81 q 46 -164 46 -134 q 65 -209 46 -193 q 110 -225 85 -225 q 157 -215 136 -225 q 194 -194 179 -204 l 194 -236 q 153 -256 179 -248 q 103 -264 127 -264 z "},"ĩ":{"ha":372,"x_min":-3,"x_max":380,"o":"m 167 0 l 167 711 l 208 711 l 208 0 l 167 0 m -3 842 q 28 936 -3 899 q 106 972 58 972 q 159 959 137 972 q 198 928 180 945 q 232 897 215 910 q 271 883 250 883 q 321 909 303 883 q 339 972 339 935 l 380 972 q 351 881 380 920 q 271 842 321 842 q 221 856 243 842 q 182 888 200 869 q 145 920 163 906 q 103 933 126 933 q 56 909 74 933 q 38 842 38 884 l -3 842 z "},"j":{"ha":312,"x_min":-31,"x_max":232,"o":"m 22 -296 q -4 -294 9 -296 q -31 -290 -17 -293 l -31 -250 q -5 -256 -18 -254 q 19 -258 8 -258 q 122 -211 90 -258 q 153 -104 153 -164 l 153 711 l 194 711 l 194 -94 q 176 -196 194 -151 q 119 -269 157 -242 q 22 -296 81 -296 m 174 853 q 132 870 149 853 q 115 911 115 887 q 132 953 115 936 q 174 970 149 970 q 215 953 198 970 q 232 911 232 936 q 215 870 232 887 q 174 853 198 853 z "},"ȷ":{"ha":312,"x_min":-31,"x_max":194,"o":"m 22 -296 q -4 -294 9 -296 q -31 -290 -17 -293 l -31 -250 q -5 -256 -18 -254 q 19 -258 8 -258 q 122 -211 90 -258 q 153 -104 153 -164 l 153 711 l 194 711 l 194 -94 q 176 -196 194 -151 q 119 -269 157 -242 q 22 -296 81 -296 z "},"ĵ":{"ha":363,"x_min":-31,"x_max":358,"o":"m 22 -296 q -4 -294 9 -296 q -31 -290 -17 -293 l -31 -250 q -5 -256 -18 -254 q 19 -258 8 -258 q 122 -211 90 -258 q 153 -104 153 -164 l 153 711 l 194 711 l 194 -94 q 176 -196 194 -151 q 119 -269 157 -242 q 22 -296 81 -296 m 16 822 l -11 850 l 163 1028 l 184 1028 l 358 850 l 331 822 l 176 983 l 171 983 l 16 822 z "},"k":{"ha":662,"x_min":117,"x_max":618,"o":"m 117 0 l 117 1044 l 157 1044 l 157 384 l 216 384 l 182 366 l 533 711 l 591 711 l 222 350 l 222 374 l 618 0 l 559 0 l 182 358 l 216 342 l 157 342 l 157 0 l 117 0 z "},"ķ":{"ha":662,"x_min":117,"x_max":618,"o":"m 117 0 l 117 1044 l 157 1044 l 157 384 l 216 384 l 182 366 l 533 711 l 591 711 l 222 350 l 222 374 l 618 0 l 559 0 l 182 358 l 216 342 l 157 342 l 157 0 l 117 0 m 302 -330 l 277 -308 l 327 -252 q 351 -222 342 -235 q 364 -199 360 -210 q 366 -178 368 -189 l 385 -175 q 372 -195 379 -187 q 353 -202 364 -202 q 318 -187 334 -202 q 302 -149 302 -172 q 318 -114 302 -127 q 353 -100 334 -100 q 392 -117 378 -100 q 406 -160 406 -134 q 396 -202 406 -181 q 375 -241 387 -224 q 355 -269 363 -259 l 302 -330 z "},"ĸ":{"ha":659,"x_min":117,"x_max":616,"o":"m 117 0 l 117 711 l 157 711 l 157 384 l 213 384 l 179 366 l 530 711 l 589 711 l 220 350 l 220 374 l 616 0 l 556 0 l 179 358 l 213 342 l 157 342 l 157 0 l 117 0 z "},"l":{"ha":304,"x_min":119,"x_max":260,"o":"m 210 -5 q 156 8 176 -5 q 128 48 136 21 q 119 118 119 76 l 119 1044 l 160 1044 l 160 118 q 162 77 160 97 q 176 45 165 58 q 213 33 186 33 q 241 36 227 33 q 260 43 254 39 l 260 3 q 236 -3 250 -1 q 210 -5 222 -5 z "},"ĺ":{"ha":304,"x_min":102,"x_max":307,"o":"m 210 -5 q 156 8 176 -5 q 128 48 136 21 q 119 118 119 76 l 119 1044 l 160 1044 l 160 118 q 162 77 160 97 q 176 45 165 58 q 213 33 186 33 q 241 36 227 33 q 260 43 254 39 l 260 3 q 236 -3 250 -1 q 210 -5 222 -5 m 134 1142 l 102 1166 l 277 1379 l 307 1356 l 134 1142 z "}}}
